<?xml version="1.0" encoding="UTF-8"?>
<svg id="Layer_1" xmlns="http://www.w3.org/2000/svg" version="1.1" viewBox="0 0 209.5 209.5">
  <!-- Generator: Adobe Illustrator 29.1.0, SVG Export Plug-In . SVG Version: 2.1.0 Build 142)  -->
  <defs>
    <style>
      .st0 {
        fill: #fff;
      }

      .st1 {
        fill: #10042e;
      }
    </style>
  </defs>
  <circle class="st1" cx="104.7" cy="104.7" r="104.7"/>
  <g>
    <path class="st0" d="M48.5,126.3c-3-1.9-5.3-4.4-7.1-7.7-1.7-3.3-2.6-7-2.6-11.1s.9-7.9,2.6-11.1c1.7-3.3,4.1-5.8,7.1-7.7,3-1.9,6.3-2.8,10-2.8s5.5.6,7.7,1.9c2.3,1.3,4,2.8,5.2,4.7h.4l-.4-5.8v-16.1h8.8v57.2h-8.4v-5.3h-.4c-1.2,1.8-2.9,3.4-5.2,4.6-2.3,1.3-4.9,1.9-7.7,1.9s-7-.9-10-2.8ZM65.7,119.3c1.8-1.1,3.3-2.7,4.4-4.8s1.7-4.4,1.7-7.1-.6-5-1.7-7.1c-1.1-2-2.6-3.6-4.4-4.8-1.8-1.1-3.8-1.7-6-1.7s-4.1.6-6,1.7c-1.9,1.1-3.4,2.7-4.5,4.8-1.1,2.1-1.7,4.4-1.7,7.1s.6,5,1.7,7.1,2.6,3.7,4.5,4.8c1.9,1.1,3.9,1.7,6,1.7s4.1-.6,6-1.7Z"/>
    <path class="st0" d="M90.1,87h8.4v5.4h.4c1.2-1.9,2.9-3.4,5.2-4.7,2.3-1.3,4.9-1.9,7.7-1.9s7,.9,10,2.8c3,1.9,5.3,4.4,7.1,7.7,1.7,3.3,2.6,7,2.6,11.1s-.9,7.9-2.6,11.1-4.1,5.8-7.1,7.7c-3,1.9-6.3,2.8-10,2.8s-5.5-.6-7.7-1.9c-2.3-1.3-4-2.8-5.2-4.6h-.4l.4,5.7v16.9h-8.8v-58ZM116.6,119.3c1.9-1.1,3.4-2.7,4.5-4.8s1.7-4.4,1.7-7.1-.6-5-1.7-7.1c-1.1-2-2.6-3.6-4.5-4.8-1.9-1.1-3.9-1.7-6-1.7s-4.1.6-6,1.7c-1.8,1.1-3.3,2.7-4.4,4.8-1.1,2.1-1.7,4.4-1.7,7.1s.6,5,1.7,7.1,2.6,3.7,4.4,4.8c1.8,1.1,3.8,1.7,6,1.7s4.1-.6,6-1.7Z"/>
    <path class="st0" d="M142.4,126c-3-2.1-5.1-4.7-6.3-7.9l7.8-3.4c1,2.1,2.3,3.8,4,4.9,1.7,1.1,3.7,1.7,6,1.7s4-.4,5.5-1.2c1.5-.8,2.2-1.9,2.2-3.5s-.6-2.7-1.9-3.5c-1.3-.9-3.2-1.6-5.9-2.2l-4.9-1.2c-3.2-.8-5.9-2.2-8.1-4.2-2.1-2-3.2-4.6-3.2-7.7s.7-4.5,2.1-6.3c1.4-1.8,3.3-3.2,5.7-4.2,2.4-1,5-1.5,7.8-1.5s7.1.8,10,2.3,5,3.7,6.2,6.6l-7.7,3.4c-1.5-3.1-4.4-4.7-8.5-4.7s-3.6.4-5,1.2c-1.3.8-2,1.8-2,3.1s.5,2.2,1.5,3c1,.8,2.5,1.4,4.5,2l6,1.5c4,1,7,2.5,9.1,4.6,2.1,2.1,3.1,4.6,3.1,7.6s-.7,4.8-2.2,6.8c-1.5,1.9-3.5,3.4-6,4.5-2.6,1.1-5.4,1.6-8.5,1.6-4.7,0-8.5-1-11.5-3.1Z"/>
  </g>
</svg>