<?xml version="1.0" encoding="UTF-8"?>
<svg id="Layer_2" data-name="Layer 2" xmlns="http://www.w3.org/2000/svg" viewBox="0 0 354 327">
  <defs>
    <style>
      .cls-1 {
        fill: #010101;
      }

      .cls-2 {
        fill: #f9f9fa;
      }
    </style>
  </defs>
  <g id="Layer_1-2" data-name="Layer 1">
    <rect class="cls-2" width="354" height="327"/>
    <g>
      <path class="cls-1" d="M101.3,174.52c-1.89,0-3.82-.34-5.78-1.02s-3.76-1.71-5.38-3.1l4.34-5.22c1.09.83,2.26,1.5,3.52,2.01,1.25.52,2.53.77,3.83.77,1.15,0,1.97-.16,2.46-.49.49-.32.73-.72.73-1.2,0-.56-.16-1-.49-1.33s-.8-.62-1.42-.89c-.62-.27-1.37-.58-2.26-.93l-3.58-1.5c-1.09-.41-2.1-.98-3.03-1.7s-1.67-1.61-2.21-2.66c-.55-1.05-.82-2.26-.82-3.65,0-1.65.46-3.15,1.37-4.49.91-1.34,2.2-2.42,3.85-3.23,1.65-.81,3.57-1.22,5.75-1.22,1.71,0,3.43.32,5.16.95,1.73.64,3.28,1.6,4.67,2.9l-3.81,4.78c-1.03-.68-2.02-1.2-2.97-1.55s-2.11-.53-3.5-.53c-.83,0-1.5.15-2.04.47-.53.31-.8.8-.8,1.48,0,.44.18.81.53,1.11.35.3.87.58,1.55.84s1.49.58,2.44.93l3.32,1.37c1.3.47,2.4,1.07,3.3,1.79.9.72,1.59,1.59,2.06,2.59.47,1,.71,2.17.71,3.5,0,1.62-.44,3.14-1.33,4.54-.88,1.4-2.18,2.53-3.9,3.39-1.71.86-3.81,1.28-6.29,1.28Z"/>
      <path class="cls-1" d="M128.04,174.52c-2.33,0-4.43-.46-6.31-1.37s-3.36-2.23-4.45-3.96c-1.09-1.73-1.64-3.81-1.64-6.26s.55-4.49,1.66-6.22c1.11-1.73,2.54-3.05,4.31-3.98,1.77-.93,3.64-1.39,5.62-1.39,2.33,0,4.28.48,5.84,1.44s2.74,2.25,3.52,3.87c.78,1.62,1.17,3.43,1.17,5.4,0,.65-.04,1.28-.11,1.88-.07.61-.14,1.04-.2,1.31h-16.07v-4.96h10.8l-1.06,1.33c0-1.47-.3-2.6-.89-3.36-.59-.77-1.5-1.15-2.75-1.15-.97,0-1.79.21-2.46.62-.67.41-1.17,1.06-1.53,1.93-.35.87-.53,1.97-.53,3.3s.23,2.51.69,3.36c.46.86,1.14,1.48,2.04,1.88s2.03.6,3.39.6c.88,0,1.75-.11,2.59-.33.84-.22,1.75-.55,2.72-1l2.48,4.51c-1.33.83-2.79,1.46-4.38,1.9-1.59.44-3.08.66-4.47.66Z"/>
      <path class="cls-1" d="M153.27,174.52c-2.33,0-4.43-.46-6.31-1.37s-3.36-2.23-4.45-3.96c-1.09-1.73-1.64-3.81-1.64-6.26s.55-4.49,1.66-6.22c1.11-1.73,2.54-3.05,4.31-3.98,1.77-.93,3.64-1.39,5.62-1.39,2.33,0,4.28.48,5.84,1.44s2.74,2.25,3.52,3.87c.78,1.62,1.17,3.43,1.17,5.4,0,.65-.04,1.28-.11,1.88-.07.61-.14,1.04-.2,1.31h-16.07v-4.96h10.8l-1.06,1.33c0-1.47-.3-2.6-.89-3.36-.59-.77-1.5-1.15-2.75-1.15-.97,0-1.79.21-2.46.62-.67.41-1.17,1.06-1.53,1.93-.35.87-.53,1.97-.53,3.3s.23,2.51.69,3.36c.46.86,1.14,1.48,2.04,1.88s2.03.6,3.39.6c.88,0,1.75-.11,2.59-.33.84-.22,1.75-.55,2.72-1l2.48,4.51c-1.33.83-2.79,1.46-4.38,1.9-1.59.44-3.08.66-4.47.66Z"/>
      <path class="cls-1" d="M166.73,173.99v-22.13h6.2l.53,2.66h.18c.89-.85,1.93-1.6,3.14-2.23,1.21-.64,2.63-.95,4.25-.95,2.45,0,4.24.82,5.36,2.46,1.12,1.64,1.68,3.83,1.68,6.57v13.63h-7.62v-12.66c0-1.24-.18-2.14-.55-2.7-.37-.56-1.04-.84-2.02-.84-.71,0-1.33.15-1.86.44-.53.29-1.09.71-1.68,1.24v14.52h-7.61Z"/>
      <path class="cls-1" d="M198.69,174.52c-1.53,0-2.83-.32-3.9-.95-1.06-.63-1.87-1.47-2.43-2.5-.56-1.03-.84-2.15-.84-3.37,0-2.48,1.07-4.37,3.21-5.69,2.14-1.31,5.73-2.1,10.78-2.37-.09-.53-.31-.97-.66-1.31-.35-.34-.83-.59-1.44-.75s-1.32-.24-2.15-.24c-.62,0-1.26.07-1.9.2s-1.34.34-2.06.62-1.53.63-2.41,1.04l-2.66-4.96c1.12-.62,2.26-1.15,3.41-1.59s2.32-.77,3.5-1,2.39-.33,3.63-.33c2.1,0,3.92.36,5.47,1.08s2.75,1.84,3.61,3.36c.86,1.52,1.28,3.49,1.28,5.91v12.31h-6.2l-.53-2.3h-.18c-1.09.8-2.27,1.47-3.54,2.01s-2.6.82-3.98.82ZM201.17,168.68c.88,0,1.68-.17,2.39-.51s1.36-.73,1.95-1.17v-2.83c-1.8.06-3.19.22-4.16.49-.97.27-1.64.61-2.01,1.04-.37.43-.55.89-.55,1.4,0,.32.09.61.27.86.18.25.44.44.8.55s.8.18,1.33.18Z"/>
      <path class="cls-1" d="M217.64,173.99v-22.13h6.24l.58,4.69h.18c1.06-1.83,2.35-3.16,3.87-3.98s3.11-1.24,4.76-1.24c1.03,0,1.84.08,2.41.24.58.16,1.17.38,1.79.64l-1.5,6.38c-.65-.21-1.25-.36-1.81-.47-.56-.1-1.24-.15-2.04-.15-1.27,0-2.52.38-3.76,1.13-1.24.75-2.27,2.06-3.1,3.92v10.98h-7.61Z"/>
      <path class="cls-1" d="M244.78,182.31c-.68,0-1.31-.04-1.9-.13-.59-.09-1.14-.19-1.64-.31l1.33-5.75c.29.09.58.15.84.2.27.04.52.07.75.07,1.18,0,2.09-.21,2.72-.62.64-.41,1.1-.94,1.4-1.59l.35-.97-9.3-21.34h7.53l3.1,8.5c.38,1.06.74,2.15,1.06,3.25.32,1.11.63,2.26.93,3.48h.18c.27-1.12.57-2.25.91-3.39s.67-2.25,1-3.34l2.66-8.5h7.17l-8.32,21.78c-.77,1.98-1.61,3.61-2.55,4.89-.93,1.28-2.04,2.23-3.34,2.85-1.3.62-2.92.93-4.87.93Z"/>
    </g>
  </g>
</svg>