<?xml version="1.0" encoding="UTF-8"?>
<svg id="Layer_2" data-name="Layer 2" xmlns="http://www.w3.org/2000/svg" viewBox="0 0 354 327">
  <defs>
    <style>
      .cls-1 {
        fill: #010101;
      }

      .cls-2 {
        fill: #f9f9fa;
      }
    </style>
  </defs>
  <g id="Layer_1-2" data-name="Layer 1">
    <rect class="cls-2" width="354" height="327"/>
    <g>
      <g>
        <path class="cls-1" d="M115.45,177.96c-2.1,0-3.78-.36-5.03-1.08-1.25-.72-2.16-1.72-2.73-3.01-.56-1.29-.84-2.8-.84-4.51v-5.91h-4.61v-4.92l4.92-.23.84-5.76h5.45v5.76h7.6v5.15h-7.6v5.8c0,.9.14,1.61.42,2.13.28.52.7.9,1.25,1.11.55.22,1.23.33,2.05.33.67,0,1.29-.06,1.86-.17.58-.12,1.12-.26,1.63-.44l1.15,4.76c-.84.23-1.79.45-2.84.67-1.05.22-2.23.33-3.53.33Z"/>
        <path class="cls-1" d="M138.68,177.96c-2.56,0-4.49-.77-5.78-2.32s-1.94-3.56-1.94-6.05v-13.67h-5.76v-5.15h12.36v19.04c0,1.1.31,1.85.94,2.25.63.4,1.27.6,1.94.6.41,0,.83-.04,1.27-.13.43-.09.93-.22,1.5-.4l1.42,4.84c-1.02.31-1.96.55-2.8.73-.84.18-1.89.27-3.15.27Z"/>
        <path class="cls-1" d="M158.22,166.06c-1.49,0-2.69-.49-3.61-1.46-.92-.97-1.38-2.15-1.38-3.53s.46-2.53,1.38-3.51c.92-.99,2.12-1.48,3.61-1.48s2.72.49,3.63,1.48c.91.99,1.36,2.16,1.36,3.51s-.45,2.56-1.36,3.53c-.91.97-2.12,1.46-3.63,1.46ZM155.07,185.87l-1.58-3.76c1.74-.56,3.03-1.29,3.86-2.19.83-.9,1.22-1.88,1.17-2.96v-4.99l2.38,4.19c-.38.28-.8.5-1.25.65-.45.15-.93.23-1.44.23-.79,0-1.54-.17-2.25-.52-.71-.35-1.27-.84-1.71-1.48-.44-.64-.65-1.42-.65-2.34,0-1.28.47-2.32,1.4-3.13.93-.81,2.07-1.21,3.4-1.21,1.74,0,3.05.63,3.94,1.9.88,1.27,1.32,3.04,1.32,5.32,0,2.51-.72,4.65-2.15,6.41-1.43,1.77-3.58,3.06-6.45,3.88Z"/>
      </g>
      <g id="AHjl1B">
        <g>
          <path d="M244.44,141.47c12.73,9.79,12.01,38.14-3.1,45.4-5.57,2.67-11.52,1.69-16.19-2.22-11.52-9.65-11.56-32.45-.51-42.49,5.77-5.24,13.64-5.43,19.8-.69ZM241.74,144.36c-.14-.11-.19-.35-.38-.47-8.66-5.94-16.93,1.48-19.72,9.7.49.23.96-.47,1.38-.7,11.35-6.28,18.8,10.6,11.27,18.97-3.26,3.62-8.69,3.97-12.46.9.61,2.72,2.4,5.64,4.33,7.65,8.65,9,18.22,2.52,21.87-7.23,3.43-9.16,1.85-22.74-6.3-28.82ZM228.96,154.3c-1.33-1.36-4.29.31-3.19,2.53s4.51.82,3.82-1.7c-.05-.17-.34-.19-.45-.35-.1-.15-.1-.41-.18-.48Z"/>
          <path d="M204.77,142.6c7.13,6.72,8.91,18.77,6.93,28.05-2.39,11.17-12.54,22.5-24.79,15.79-13.22-7.23-14.41-29.59-6.18-41.01,5.97-8.28,16.36-10.07,24.05-2.83ZM204.19,178.72c6.92-9.38,6.24-27.82-3.83-34.84-8.68-6.05-16.89,1.68-19.71,9.79.62.12.82-.47,1.26-.72,11.1-6.53,18.98,10.2,11.68,18.67-3.23,3.74-8.82,4.37-12.66,1.14-.24.23.05.73.14.99,3.78,10.87,15.47,15.33,23.11,4.97ZM188.15,154.49c-1.8-1.88-4.55.68-3.24,2.58,1.68,2.44,5.22-.51,3.24-2.58Z"/>
        </g>
      </g>
    </g>
  </g>
</svg>