<?xml version="1.0" encoding="UTF-8"?>
<svg id="Layer_2" data-name="Layer 2" xmlns="http://www.w3.org/2000/svg" viewBox="0 0 354 327">
  <defs>
    <style>
      .cls-1 {
        fill: #fec20e;
      }

      .cls-2 {
        fill: #f9f9fa;
      }

      .cls-3 {
        fill: #f7901e;
      }
    </style>
  </defs>
  <g id="Layer_1-2" data-name="Layer 1">
    <g>
      <rect class="cls-2" width="354" height="327"/>
      <g>
        <g>
          <circle class="cls-3" cx="87.17" cy="163.5" r="9.12"/>
          <path class="cls-1" d="M88.79,149.3c0,.89-.72,1.62-1.62,1.62s-1.62-.72-1.62-1.62v-9.26c0-.89.72-1.62,1.62-1.62s1.62.72,1.62,1.62v9.26Z"/>
          <path class="cls-1" d="M88.79,186.96c0,.89-.72,1.62-1.62,1.62s-1.62-.72-1.62-1.62v-9.26c0-.89.72-1.62,1.62-1.62s1.62.72,1.62,1.62v9.26Z"/>
          <path class="cls-1" d="M98.36,154.6c-.63.63-1.65.63-2.28,0s-.63-1.65,0-2.28l6.55-6.55c.63-.63,1.65-.63,2.28,0,.63.63.63,1.65,0,2.28l-6.55,6.55Z"/>
          <path class="cls-1" d="M71.72,181.23c-.63.63-1.65.63-2.28,0-.63-.63-.63-1.65,0-2.28l6.55-6.55c.63-.63,1.65-.63,2.28,0s.63,1.65,0,2.28l-6.55,6.55Z"/>
          <path class="cls-1" d="M96.07,174.68c-.63-.63-.63-1.65,0-2.28s1.65-.63,2.28,0l6.55,6.55c.63.63.63,1.65,0,2.28-.63.63-1.65.63-2.28,0l-6.55-6.55Z"/>
          <path class="cls-1" d="M69.44,148.05c-.63-.63-.63-1.65,0-2.28.63-.63,1.65-.63,2.28,0l6.55,6.55c.63.63.63,1.65,0,2.28s-1.65.63-2.28,0l-6.55-6.55Z"/>
          <path class="cls-1" d="M101.37,165.12c-.89,0-1.62-.72-1.62-1.62s.72-1.62,1.62-1.62h9.26c.89,0,1.62.72,1.62,1.62s-.72,1.62-1.62,1.62h-9.26Z"/>
          <path class="cls-1" d="M63.71,165.12c-.89,0-1.62-.72-1.62-1.62s.72-1.62,1.62-1.62h9.26c.89,0,1.62.72,1.62,1.62s-.72,1.62-1.62,1.62h-9.26Z"/>
        </g>
        <g>
          <path class="cls-3" d="M126.88,176.84c-1.64-.31-2.98-.73-4.02-1.25v-5.24c1.38.68,2.81,1.19,4.3,1.52,1.48.34,2.9.51,4.26.51,1.51,0,2.66-.26,3.44-.78.78-.52,1.17-1.25,1.17-2.19,0-.68-.2-1.25-.59-1.72-.39-.47-.96-.89-1.7-1.27-.74-.38-1.88-.88-3.42-1.5-2.55-1.04-4.4-2.21-5.55-3.5-1.15-1.29-1.72-2.88-1.72-4.79,0-1.54.42-2.9,1.25-4.08.83-1.18,2.01-2.1,3.52-2.75,1.51-.65,3.26-.98,5.24-.98,1.61,0,3.05.13,4.3.39,1.25.26,2.47.66,3.67,1.21v5.08c-2.29-1.15-4.58-1.72-6.88-1.72-1.46,0-2.6.25-3.44.76-.83.51-1.25,1.23-1.25,2.17,0,.68.2,1.24.59,1.68.39.44.94.83,1.64,1.17.7.34,1.85.83,3.44,1.48,1.85.78,3.29,1.53,4.34,2.25,1.04.72,1.81,1.56,2.31,2.54.49.98.74,2.18.74,3.61,0,2.47-.89,4.4-2.68,5.78-1.78,1.38-4.45,2.07-7.99,2.07-1.67,0-3.32-.16-4.96-.47Z"/>
          <path class="cls-3" d="M146.96,175.21c-1.28-1.39-1.91-3.25-1.91-5.57v-11.68h5.9v11.06c0,2.45,1.13,3.67,3.4,3.67.99,0,1.91-.23,2.77-.7.86-.47,1.58-1.17,2.15-2.11v-11.92h5.9v18.75h-5.7v-2.27c-.83.96-1.84,1.68-3.03,2.15-1.19.47-2.43.7-3.73.7-2.55,0-4.47-.7-5.74-2.09Z"/>
          <path class="cls-3" d="M169.27,157.97h5.7v2.31c.86-.96,1.88-1.69,3.07-2.17,1.18-.48,2.43-.72,3.73-.72,2.55,0,4.46.68,5.72,2.05,1.26,1.37,1.89,3.21,1.89,5.53v11.76h-5.9v-11.1c0-2.42-1.12-3.63-3.36-3.63-.99,0-1.91.24-2.77.72-.86.48-1.59,1.19-2.19,2.13v11.88h-5.9v-18.75Z"/>
          <path class="cls-3" d="M196.48,176.86c-1.6-.3-2.86-.72-3.77-1.27v-4.61c1.04.63,2.29,1.13,3.75,1.52,1.46.39,2.81.59,4.06.59,1.07,0,1.85-.09,2.34-.27.49-.18.74-.52.74-1.02,0-.39-.14-.71-.43-.96-.29-.25-.72-.47-1.31-.66-.59-.2-1.56-.49-2.91-.88-1.59-.47-2.83-.94-3.73-1.43-.9-.48-1.58-1.09-2.03-1.82-.46-.73-.68-1.67-.68-2.81,0-1.95.77-3.42,2.32-4.4,1.55-.98,3.65-1.47,6.31-1.47,1.3,0,2.65.14,4.04.41,1.39.27,2.47.63,3.22,1.07v4.49c-.76-.49-1.74-.9-2.95-1.21-1.21-.31-2.39-.47-3.54-.47-1.07,0-1.89.1-2.48.31-.59.21-.88.6-.88,1.17,0,.5.28.87.84,1.13.56.26,1.61.59,3.15.98l.78.2c1.64.44,2.92.93,3.83,1.47.91.53,1.56,1.17,1.93,1.91.38.74.57,1.67.57,2.79,0,1.72-.74,3.09-2.23,4.12-1.48,1.03-3.63,1.54-6.45,1.54-1.41,0-2.91-.15-4.51-.45Z"/>
          <path class="cls-3" d="M212.99,147.85h5.9v12.27c.89-.91,1.89-1.6,3.01-2.05,1.12-.46,2.32-.68,3.59-.68,2.55,0,4.46.68,5.72,2.05,1.26,1.37,1.89,3.21,1.89,5.53v11.76h-5.9v-11.1c0-2.42-1.12-3.63-3.36-3.63-.99,0-1.91.24-2.77.72-.86.48-1.59,1.19-2.19,2.13v11.88h-5.9v-28.87Z"/>
          <path class="cls-3" d="M237.95,154.18c-.63-.6-.94-1.35-.94-2.27s.31-1.63.94-2.25c.62-.61,1.39-.92,2.31-.92s1.68.31,2.31.92c.63.61.94,1.36.94,2.25s-.31,1.67-.94,2.27c-.63.6-1.39.9-2.31.9s-1.68-.3-2.31-.9ZM237.29,157.97h5.94v18.75h-5.94v-18.75Z"/>
          <path class="cls-3" d="M247.56,157.97h5.7v2.31c.86-.96,1.88-1.69,3.07-2.17,1.18-.48,2.43-.72,3.73-.72,2.55,0,4.46.68,5.72,2.05,1.26,1.37,1.89,3.21,1.89,5.53v11.76h-5.9v-11.1c0-2.42-1.12-3.63-3.36-3.63-.99,0-1.91.24-2.77.72-.86.48-1.59,1.19-2.19,2.13v11.88h-5.9v-18.75Z"/>
          <path class="cls-3" d="M273.9,174.71c-2.06-1.73-3.09-4.16-3.09-7.29s.92-5.55,2.75-7.35c1.84-1.8,4.46-2.7,7.87-2.7,2.24,0,4.14.42,5.7,1.25,1.56.83,2.75,1.99,3.56,3.46.81,1.47,1.21,3.13,1.21,4.98v2.38h-15.47c.42,2.4,2.66,3.59,6.72,3.59,1.2,0,2.44-.1,3.71-.31,1.28-.21,2.38-.49,3.32-.86v4.14c-.91.39-2.08.7-3.52.94-1.43.23-2.87.35-4.3.35-3.59,0-6.42-.87-8.48-2.6ZM286.32,165.62c-.08-1.25-.55-2.22-1.41-2.91-.86-.69-2.05-1.04-3.56-1.04s-2.66.35-3.52,1.05-1.33,1.67-1.41,2.89h9.88Z"/>
        </g>
      </g>
    </g>
  </g>
</svg>