<?xml version="1.0" encoding="UTF-8"?>
<svg id="Layer_2" data-name="Layer 2" xmlns="http://www.w3.org/2000/svg" viewBox="0 0 354 327">
  <defs>
    <style>
      .cls-1 {
        fill: #f9f9fa;
      }

      .cls-2 {
        fill: #212255;
      }

      .cls-3 {
        stroke: #f2712a;
      }

      .cls-3, .cls-4, .cls-5, .cls-6 {
        fill: none;
        stroke-miterlimit: 10;
        stroke-width: 3.03px;
      }

      .cls-4 {
        stroke: #0daed0;
      }

      .cls-5 {
        stroke: #f7bc1a;
      }

      .cls-6 {
        stroke: #12a64d;
      }
    </style>
  </defs>
  <g id="Layer_1-2" data-name="Layer 1">
    <g>
      <rect class="cls-1" width="354" height="327"/>
      <g>
        <g>
          <path class="cls-2" d="M109.53,157.87c1.6,1.37,2.4,3.34,2.4,5.89h-5.69c0-1.08-.28-1.93-.85-2.56-.57-.63-1.37-.94-2.41-.94-1.2,0-2.09.38-2.65,1.13-.57.75-.85,1.81-.85,3.15v1.73c0,1.33.28,2.38.85,3.14.57.76,1.43,1.15,2.6,1.15s2.02-.3,2.61-.89c.59-.59.89-1.43.89-2.51h5.5c0,2.53-.78,4.47-2.33,5.82-1.55,1.35-3.75,2.02-6.59,2.02-3.16,0-5.56-.81-7.18-2.43-1.63-1.62-2.44-4.01-2.44-7.17s.81-5.55,2.44-7.17c1.63-1.62,4.02-2.43,7.18-2.43,2.75,0,4.92.69,6.52,2.06Z"/>
          <path class="cls-2" d="M114.95,174.68v-18.54h5.96v18.54h-5.96Z"/>
          <path class="cls-2" d="M141.66,164.89c-.61.92-1.5,1.59-2.67,2.02l4.12,7.76h-6.68l-3.29-6.77h-2.21v6.77h-5.96v-18.54h11.35c1.33,0,2.47.26,3.41.77.94.51,1.65,1.2,2.13,2.08.48.87.71,1.82.71,2.84,0,1.13-.31,2.16-.92,3.07ZM136.02,160.85c-.32-.32-.72-.49-1.19-.49h-3.91v3.42h3.91c.47,0,.86-.17,1.19-.5.32-.33.49-.74.49-1.23s-.16-.89-.49-1.21Z"/>
          <path class="cls-2" d="M161.44,157.87c1.6,1.37,2.4,3.34,2.4,5.89h-5.69c0-1.08-.28-1.93-.85-2.56-.57-.63-1.37-.94-2.41-.94-1.2,0-2.09.38-2.65,1.13-.57.75-.85,1.81-.85,3.15v1.73c0,1.33.28,2.38.85,3.14.57.76,1.43,1.15,2.6,1.15s2.02-.3,2.61-.89c.59-.59.89-1.43.89-2.51h5.5c0,2.53-.78,4.47-2.33,5.82-1.55,1.35-3.75,2.02-6.59,2.02-3.16,0-5.56-.81-7.18-2.43-1.63-1.62-2.44-4.01-2.44-7.17s.81-5.55,2.44-7.17c1.63-1.62,4.02-2.43,7.18-2.43,2.75,0,4.92.69,6.52,2.06Z"/>
          <path class="cls-2" d="M183.19,173c-1.6,1.33-3.87,1.99-6.82,1.99s-5.23-.66-6.83-1.99c-1.61-1.33-2.41-3.26-2.41-5.79v-11.08h5.96v11c0,1.04.28,1.87.84,2.49.56.62,1.37.93,2.43.93s1.87-.31,2.44-.94c.57-.63.85-1.46.85-2.48v-11h5.96v11.08c0,2.53-.8,4.47-2.4,5.79Z"/>
          <path class="cls-2" d="M189.39,156.13h5.96v13.8h9.51v4.74h-15.47v-18.54Z"/>
          <path class="cls-2" d="M220.41,174.68l-.78-2.61h-6.5l-.78,2.61h-6.09l6.76-18.54h6.93l6.77,18.54h-6.31ZM214.37,167.91h4.02l-1.94-6.6h-.11l-1.97,6.6Z"/>
          <path class="cls-2" d="M245.72,164.89c-.61.92-1.5,1.59-2.67,2.02l4.12,7.76h-6.68l-3.29-6.77h-2.21v6.77h-5.96v-18.54h11.35c1.33,0,2.47.26,3.41.77.94.51,1.65,1.2,2.13,2.08.48.87.71,1.82.71,2.84,0,1.13-.31,2.16-.92,3.07ZM240.09,160.85c-.32-.32-.72-.49-1.19-.49h-3.91v3.42h3.91c.47,0,.86-.17,1.19-.5.32-.33.49-.74.49-1.23s-.16-.89-.49-1.21Z"/>
          <path class="cls-2" d="M271.99,174.68v-7.03h-6.55v7.03h-5.96v-18.54h5.96v6.77h6.55v-6.77h5.96v18.54h-5.96Z"/>
          <path class="cls-2" d="M297.81,173c-1.6,1.33-3.87,1.99-6.82,1.99s-5.22-.66-6.83-1.99c-1.61-1.33-2.41-3.26-2.41-5.79v-11.08h5.96v11c0,1.04.28,1.87.84,2.49.56.62,1.36.93,2.43.93s1.87-.31,2.44-.94c.57-.63.85-1.46.85-2.48v-11h5.96v11.08c0,2.53-.8,4.47-2.4,5.79Z"/>
          <path class="cls-2" d="M318.93,156.71c.78.39,1.4.93,1.86,1.63.46.7.69,1.48.69,2.34,0,2.28-1.03,3.72-3.1,4.31v.11c2.35.54,3.53,2.08,3.53,4.64,0,.97-.24,1.83-.71,2.57-.48.75-1.13,1.33-1.95,1.74-.83.41-1.73.62-2.72.62h-12.51v-18.54h12.34c.93,0,1.79.19,2.57.58ZM309.97,163.36h4.1c.4,0,.72-.14.98-.42.26-.28.39-.62.39-1.04v-.27c0-.4-.13-.73-.4-1.01-.27-.28-.59-.42-.97-.42h-4.1v3.15ZM309.97,170.36h4.53c.39,0,.72-.14.98-.42.26-.28.39-.62.39-1.04v-.27c0-.41-.13-.76-.39-1.04-.26-.28-.59-.42-.98-.42h-4.53v3.18Z"/>
        </g>
        <g>
          <circle class="cls-4" cx="56.65" cy="163.5" r="24.56"/>
          <circle class="cls-6" cx="56.65" cy="163.5" r="18.7"/>
          <circle class="cls-3" cx="56.65" cy="163.5" r="12.69"/>
          <circle class="cls-5" cx="56.65" cy="163.5" r="7.15"/>
        </g>
      </g>
    </g>
  </g>
</svg>