<?xml version="1.0" encoding="UTF-8"?>
<svg id="Layer_2" data-name="Layer 2" xmlns="http://www.w3.org/2000/svg" viewBox="0 0 354 327">
  <defs>
    <style>
      .cls-1 {
        letter-spacing: 0em;
      }

      .cls-1, .cls-2, .cls-3, .cls-4 {
        font-family: GoogleSans-Bold, 'Google Sans';
        font-weight: 700;
      }

      .cls-2 {
        letter-spacing: -.03em;
      }

      .cls-5 {
        fill: #f9f9fa;
      }

      .cls-6 {
        font-family: GoogleSans-Regular, 'Google Sans';
      }

      .cls-3 {
        letter-spacing: .14em;
      }

      .cls-7 {
        fill: #231f20;
        font-size: 33.01px;
      }
    </style>
  </defs>
  <g id="Layer_1-2" data-name="Layer 1">
    <g>
      <rect class="cls-5" width="354" height="327"/>
      <g>
        <text class="cls-7" transform="translate(109.86 172.96)"><tspan class="cls-4" x="0" y="0">P</tspan><tspan class="cls-2" x="20.14" y="0">r</tspan><tspan class="cls-4" x="33.24" y="0">od</tspan><tspan class="cls-1" x="74.38" y="0">uc</tspan><tspan class="cls-3" x="112.74" y="0">t</tspan><tspan class="cls-6" x="131.16" y="0">LIM</tspan></text>
        <g id="ekRhGA.tif">
          <g>
            <polygon points="95.66 147.92 95.66 160.41 85.46 165.56 85.46 152.92 95.66 147.92"/>
            <polygon points="83.01 154.3 83.01 166.78 72.81 171.93 72.81 159.29 83.01 154.3"/>
            <path d="M82.38,151.32c.05.25-.03.17-.14.24-.33.21-.87.47-1.24.67-3.21,1.74-6.48,3.38-9.73,5.04-.27.02-1.41-.63-1.75-.79-3.18-1.59-6.3-3.34-9.45-5l11.12-5.55,11.19,5.4Z"/>
            <polygon points="69.73 159.29 69.73 171.93 59.53 166.78 59.53 154.3 69.73 159.29"/>
            <polygon points="69.73 174.91 69.73 187.55 59.53 182.4 59.53 169.81 69.73 174.91"/>
            <polygon points="85.46 181.18 85.46 168.53 95.66 163.44 95.66 176.02 85.46 181.18"/>
            <polygon points="72.81 187.55 72.81 174.91 83.01 169.81 83.01 182.4 72.81 187.55"/>
            <path d="M73.88,144.73l.14-.24,10.24-5.05,11.19,5.13-10.36,5.47c-3.77-1.66-7.44-3.62-11.2-5.32Z"/>
          </g>
        </g>
      </g>
    </g>
  </g>
</svg>