<?xml version="1.0" encoding="UTF-8"?>
<svg id="Layer_2" data-name="Layer 2" xmlns="http://www.w3.org/2000/svg" viewBox="0 0 354 327">
  <defs>
    <style>
      .cls-1 {
        fill: #f9f9fa;
      }

      .cls-2 {
        fill: #122d50;
      }

      .cls-3 {
        fill: #134983;
      }

      .cls-4 {
        fill: #06a2c4;
      }
    </style>
  </defs>
  <g id="Layer_1-2" data-name="Layer 1">
    <g>
      <rect class="cls-1" width="354" height="327"/>
      <g>
        <g>
          <path class="cls-4" d="M303.78,157.41c-2.03,2.03-4.15,4.27-7.38,4.27s-5.75-2.47-5.75-5.91c0-3.15,2.55-5.91,6.06-5.91,2.95,0,5.15,2.35,7.06,4.27,2.03-2.03,4.15-4.27,7.38-4.27,3.39,0,5.75,2.47,5.75,5.91,0,3.15-2.55,5.91-6.06,5.91-2.95,0-5.15-2.35-7.06-4.27ZM302.18,155.77c-1.56-1.44-3.19-3.51-5.51-3.51-2,0-3.51,1.64-3.51,3.51,0,2.03,1.44,3.51,3.39,3.51,2.27,0,4.11-1.96,5.63-3.51ZM314.39,155.77c0-2.03-1.44-3.51-3.39-3.51-2.27,0-4.11,1.96-5.63,3.51,1.56,1.44,3.19,3.51,5.51,3.51,2,0,3.51-1.64,3.51-3.51Z"/>
          <path class="cls-4" d="M302.14,155.77c-2.03-2.03-4.27-4.15-4.27-7.38s2.47-5.75,5.91-5.75c3.15,0,5.91,2.55,5.91,6.06,0,2.95-2.35,5.15-4.27,7.06,2.03,2.03,4.27,4.15,4.27,7.38,0,3.39-2.47,5.75-5.91,5.75-3.15,0-5.91-2.55-5.91-6.06,0-2.95,2.35-5.15,4.27-7.06ZM303.78,154.18c1.44-1.56,3.51-3.19,3.51-5.51,0-2-1.64-3.51-3.51-3.51-2.03,0-3.51,1.44-3.51,3.39,0,2.27,1.96,4.11,3.51,5.63ZM303.78,166.39c2.03,0,3.51-1.44,3.51-3.39,0-2.27-1.96-4.11-3.51-5.63-1.44,1.56-3.51,3.19-3.51,5.51,0,2,1.64,3.51,3.51,3.51Z"/>
        </g>
        <g>
          <g>
            <path class="cls-2" d="M256.15,154.76l-5.93,22.27h-2.84l-4.33-14.6c-.19-.58-.36-1.18-.51-1.79s-.29-1.15-.41-1.62c-.11-.47-.18-.8-.2-.98-.02.27-.14.85-.34,1.73-.21.88-.45,1.8-.72,2.76l-4.21,14.5h-2.84l-5.89-22.27h2.93l3.46,13.6c.25.96.46,1.88.64,2.78.18.89.32,1.74.42,2.53.1-.81.26-1.69.47-2.65.21-.96.45-1.89.72-2.81l3.93-13.44h2.9l4.09,13.53c.29.96.54,1.91.75,2.87.21.96.36,1.79.47,2.5.08-.77.22-1.61.42-2.51.2-.9.42-1.85.67-2.82l3.43-13.57h2.93Z"/>
            <path class="cls-2" d="M259.68,154.04c.42,0,.78.14,1.11.42.32.28.48.72.48,1.33s-.16,1.04-.48,1.33c-.32.28-.69.42-1.11.42-.46,0-.84-.14-1.15-.42-.31-.28-.47-.72-.47-1.33s.16-1.04.47-1.33c.31-.28.7-.42,1.15-.42ZM261.02,160.31v16.72h-2.74v-16.72h2.74Z"/>
            <path class="cls-2" d="M268.1,153.32v12.38c0,.33-.02.77-.05,1.31-.03.54-.06,1.01-.08,1.4h.12c.12-.17.31-.41.56-.72.25-.31.5-.63.76-.95.26-.32.48-.59.67-.8l5.33-5.64h3.21l-6.77,7.14,7.24,9.57h-3.31l-5.8-7.8-1.9,1.65v6.14h-2.71v-23.7h2.71Z"/>
            <path class="cls-2" d="M282.5,154.04c.42,0,.78.14,1.11.42.32.28.48.72.48,1.33s-.16,1.04-.48,1.33c-.32.28-.69.42-1.11.42-.46,0-.84-.14-1.15-.42-.31-.28-.47-.72-.47-1.33s.16-1.04.47-1.33c.31-.28.7-.42,1.15-.42ZM283.84,160.31v16.72h-2.74v-16.72h2.74Z"/>
          </g>
          <g>
            <path class="cls-3" d="M51.39,170.89c0,1.95-.7,3.5-2.11,4.66-1.4,1.16-3.4,1.74-5.98,1.74-2.32,0-4.39-.44-6.21-1.32v-4.34c1.05.45,2.13.87,3.24,1.25,1.12.38,2.23.57,3.34.57s1.96-.22,2.44-.66c.48-.44.72-1,.72-1.68,0-.55-.19-1.02-.57-1.41-.38-.39-.89-.75-1.52-1.09-.64-.34-1.36-.7-2.18-1.09-.51-.25-1.07-.54-1.66-.88-.59-.34-1.16-.76-1.71-1.26-.54-.5-.99-1.11-1.34-1.83-.35-.72-.52-1.58-.52-2.58,0-1.97.67-3.5,2-4.6,1.33-1.1,3.15-1.65,5.44-1.65,1.15,0,2.23.13,3.26.4,1.02.27,2.11.65,3.26,1.14l-1.51,3.63c-1-.41-1.91-.73-2.71-.95-.8-.23-1.62-.34-2.46-.34-.88,0-1.56.2-2.03.61-.47.41-.71.94-.71,1.6,0,.78.35,1.39,1.05,1.85.7.45,1.73,1,3.11,1.66,1.13.53,2.09,1.09,2.88,1.66.79.57,1.4,1.25,1.83,2.03.43.78.65,1.74.65,2.89Z"/>
            <path class="cls-3" d="M68.89,160.19v16.79h-3.51l-.61-2.15h-.25c-.53.86-1.27,1.49-2.2,1.88-.93.39-1.92.58-2.97.58-1.8,0-3.25-.49-4.34-1.46-1.09-.97-1.63-2.54-1.63-4.69v-10.95h4.58v9.81c0,1.21.22,2.12.65,2.72.43.6,1.12.91,2.06.91,1.39,0,2.35-.48,2.86-1.43.51-.95.77-2.32.77-4.11v-7.9h4.58Z"/>
            <path class="cls-3" d="M83.86,171.99c0,1.7-.6,3.01-1.8,3.92-1.2.91-2.99,1.37-5.37,1.37-1.17,0-2.17-.08-3.01-.23-.84-.15-1.68-.4-2.52-.75v-3.78c.9.41,1.88.75,2.92,1.01,1.05.27,1.97.4,2.77.4.88,0,1.52-.13,1.91-.4.39-.27.58-.61.58-1.05,0-.29-.08-.54-.23-.77-.15-.23-.49-.48-1-.77-.51-.29-1.31-.66-2.4-1.11-1.07-.45-1.93-.9-2.6-1.34-.67-.44-1.16-.97-1.49-1.6-.33-.62-.49-1.41-.49-2.35,0-1.56.6-2.73,1.81-3.51,1.21-.78,2.82-1.17,4.83-1.17,1.05,0,2.04.1,2.98.31.94.2,1.92.54,2.92,1.01l-1.38,3.29c-.82-.35-1.6-.64-2.34-.88-.74-.24-1.49-.35-2.24-.35-1.35,0-2.03.37-2.03,1.11,0,.27.09.51.26.72.17.22.51.45,1.01.69.5.25,1.25.57,2.23.98.96.39,1.79.79,2.49,1.21.7.42,1.23.95,1.61,1.58.38.64.57,1.44.57,2.43Z"/>
            <path class="cls-3" d="M92.97,173.62c.51,0,1-.05,1.48-.14.47-.09.94-.22,1.41-.38v3.41c-.49.23-1.1.41-1.83.55-.73.14-1.52.22-2.38.22-1,0-1.9-.16-2.69-.49-.79-.33-1.41-.89-1.88-1.69-.46-.8-.69-1.93-.69-3.38v-8.09h-2.18v-1.94l2.52-1.54,1.32-3.54h2.92v3.57h4.7v3.44h-4.7v8.09c0,.64.18,1.11.55,1.43.37.32.85.48,1.45.48Z"/>
            <path class="cls-3" d="M104.59,159.85c2.25,0,3.98.49,5.18,1.46,1.2.97,1.8,2.47,1.8,4.47v11.19h-3.2l-.89-2.28h-.12c-.72.9-1.48,1.56-2.28,1.97-.8.41-1.9.61-3.29.61-1.5,0-2.74-.43-3.72-1.29-.98-.86-1.48-2.2-1.48-4.03s.63-3.1,1.88-3.94c1.25-.84,3.13-1.31,5.63-1.41l2.92-.09v-.74c0-.88-.23-1.53-.69-1.94-.46-.41-1.1-.61-1.92-.61s-1.62.12-2.4.35c-.78.24-1.56.53-2.34.88l-1.51-3.11c.88-.45,1.88-.81,2.98-1.09,1.11-.28,2.25-.41,3.44-.41ZM107.02,169.19l-1.78.06c-1.48.04-2.5.31-3.07.8-.57.49-.86,1.14-.86,1.94,0,.7.2,1.19.62,1.49.41.3.94.45,1.6.45.98,0,1.81-.29,2.49-.88.68-.58,1.01-1.41,1.01-2.48v-1.38Z"/>
            <path class="cls-3" d="M117.04,153.6c.68,0,1.26.16,1.75.48.49.32.74.91.74,1.77s-.25,1.43-.74,1.75c-.49.33-1.08.49-1.75.49s-1.29-.16-1.77-.49c-.48-.33-.72-.91-.72-1.75s.24-1.45.72-1.77c.48-.32,1.07-.48,1.77-.48ZM119.32,160.19v16.79h-4.58v-16.79h4.58Z"/>
            <path class="cls-3" d="M132.11,159.88c1.8,0,3.25.49,4.34,1.46,1.09.97,1.63,2.54,1.63,4.69v10.95h-4.58v-9.81c0-1.21-.22-2.12-.65-2.72-.43-.6-1.12-.91-2.06-.91-1.39,0-2.35.48-2.86,1.43-.51.95-.77,2.32-.77,4.11v7.9h-4.58v-16.79h3.51l.62,2.15h.25c.53-.86,1.27-1.49,2.2-1.88.93-.39,1.92-.58,2.97-.58Z"/>
            <path class="cls-3" d="M147.51,159.85c2.25,0,3.98.49,5.18,1.46,1.2.97,1.8,2.47,1.8,4.47v11.19h-3.2l-.89-2.28h-.12c-.72.9-1.48,1.56-2.28,1.97-.8.41-1.9.61-3.29.61-1.5,0-2.74-.43-3.72-1.29-.98-.86-1.48-2.2-1.48-4.03s.63-3.1,1.88-3.94c1.25-.84,3.13-1.31,5.63-1.41l2.92-.09v-.74c0-.88-.23-1.53-.69-1.94-.46-.41-1.1-.61-1.92-.61s-1.62.12-2.4.35c-.78.24-1.56.53-2.34.88l-1.51-3.11c.88-.45,1.88-.81,2.98-1.09,1.11-.28,2.25-.41,3.44-.41ZM149.94,169.19l-1.78.06c-1.48.04-2.5.31-3.07.8-.57.49-.86,1.14-.86,1.94,0,.7.2,1.19.62,1.49.41.3.94.45,1.6.45.98,0,1.81-.29,2.49-.88.68-.58,1.01-1.41,1.01-2.48v-1.38Z"/>
            <path class="cls-3" d="M161.32,153.6v5.44c0,.64-.02,1.26-.06,1.88-.04.61-.08,1.1-.12,1.44h.18c.45-.7,1.06-1.29,1.81-1.77.76-.48,1.74-.72,2.95-.72,1.89,0,3.41.73,4.58,2.2,1.17,1.47,1.75,3.62,1.75,6.47s-.59,5.04-1.78,6.52c-1.19,1.48-2.75,2.21-4.67,2.21-1.23,0-2.2-.22-2.91-.66-.71-.44-1.29-.94-1.74-1.49h-.31l-.77,1.85h-3.51v-23.37h4.58ZM164.61,163.54c-1.19,0-2.03.37-2.52,1.12-.49.75-.75,1.87-.77,3.37v.49c0,1.62.24,2.87.72,3.74.48.87,1.36,1.31,2.63,1.31.94,0,1.69-.44,2.24-1.31.55-.87.83-2.13.83-3.77s-.28-2.88-.85-3.71c-.56-.83-1.33-1.25-2.29-1.25Z"/>
            <path class="cls-3" d="M176.97,153.6c.68,0,1.26.16,1.75.48.49.32.74.91.74,1.77s-.25,1.43-.74,1.75c-.49.33-1.08.49-1.75.49s-1.29-.16-1.77-.49c-.48-.33-.72-.91-.72-1.75s.24-1.45.72-1.77c.48-.32,1.07-.48,1.77-.48ZM179.25,160.19v16.79h-4.58v-16.79h4.58Z"/>
            <path class="cls-3" d="M186.17,176.97h-4.58v-23.37h4.58v23.37Z"/>
            <path class="cls-3" d="M191.12,153.6c.68,0,1.26.16,1.75.48s.74.91.74,1.77-.25,1.43-.74,1.75-1.08.49-1.75.49-1.29-.16-1.77-.49c-.48-.33-.72-.91-.72-1.75s.24-1.45.72-1.77c.48-.32,1.07-.48,1.77-.48ZM193.39,160.19v16.79h-4.58v-16.79h4.58Z"/>
            <path class="cls-3" d="M203.72,173.62c.51,0,1-.05,1.48-.14.47-.09.94-.22,1.41-.38v3.41c-.49.23-1.1.41-1.83.55-.73.14-1.52.22-2.38.22-1,0-1.9-.16-2.69-.49-.79-.33-1.41-.89-1.88-1.69-.46-.8-.69-1.93-.69-3.38v-8.09h-2.18v-1.94l2.52-1.54,1.32-3.54h2.92v3.57h4.7v3.44h-4.7v8.09c0,.64.18,1.11.55,1.43.37.32.85.48,1.45.48Z"/>
            <path class="cls-3" d="M207.9,160.19h5.01l3.17,9.44c.16.47.29.94.37,1.41.08.47.14.97.18,1.51h.09c.06-.53.14-1.03.25-1.51.1-.47.24-.94.4-1.41l3.11-9.44h4.92l-7.1,18.94c-.66,1.74-1.59,3.05-2.8,3.92-1.21.87-2.61,1.31-4.21,1.31-.53,0-.98-.03-1.35-.08-.37-.05-.7-.11-.98-.17v-3.63c.2.04.47.08.8.12.33.04.67.06,1.02.06.96,0,1.72-.29,2.28-.88.55-.58.97-1.29,1.26-2.11l.28-.83-6.67-16.67Z"/>
          </g>
        </g>
      </g>
    </g>
  </g>
</svg>