<?xml version="1.0" encoding="UTF-8"?>
<svg id="Layer_2" data-name="Layer 2" xmlns="http://www.w3.org/2000/svg" viewBox="0 0 354 327">
  <defs>
    <style>
      .cls-1 {
        fill: #f9f9fa;
      }

      .cls-2 {
        fill: #231f20;
      }
    </style>
  </defs>
  <g id="Layer_1-2" data-name="Layer 1">
    <rect class="cls-1" width="354" height="327"/>
    <path class="cls-2" d="M147.94,206.58c-6.64-3.93-11.82-9.26-15.54-15.99-3.72-6.72-5.58-14.06-5.58-22.01,0-9.98,2.45-19.1,7.36-27.34,4.9-8.25,11.67-14.76,20.3-19.54,8.63-4.78,18.27-7.17,28.93-7.17,7.95,0,15.27,1.76,21.95,5.27,6.68,3.51,11.99,8.42,15.92,14.72,3.93,6.3,5.9,13.51,5.9,21.63,0,5.92-.93,11.46-2.79,16.62-1.86,5.16-4.55,9.3-8.06,12.43-3.51,3.13-7.59,4.7-12.24,4.7-3.3,0-6.11-.87-8.44-2.6-2.33-1.73-3.91-4.08-4.76-7.04-2.2,3.04-4.99,5.41-8.37,7.1-3.38,1.69-6.94,2.54-10.66,2.54s-7.25-.95-10.59-2.86c-3.34-1.9-6.01-4.57-7.99-7.99-1.99-3.43-2.98-7.34-2.98-11.74,0-4.74,1.14-9.37,3.43-13.89,2.28-4.52,5.56-8.2,9.83-11.04,4.27-2.83,9.33-4.25,15.16-4.25,3.64,0,6.85.76,9.64,2.28,2.79,1.52,4.86,3.38,6.22,5.58h.51l1.01-6.09h8.5l-5.84,33.12c-.17,1.19-.25,2.11-.25,2.79,0,1.69.55,3.17,1.65,4.44,1.1,1.27,2.71,1.9,4.82,1.9,2.71,0,5.08-1.25,7.1-3.74,2.03-2.49,3.62-5.71,4.76-9.64,1.14-3.93,1.71-8.01,1.71-12.24,0-6.68-1.54-12.54-4.63-17.57-3.09-5.03-7.4-8.95-12.94-11.74-5.54-2.79-11.95-4.19-19.22-4.19-8.63,0-16.43,1.97-23.41,5.9-6.98,3.93-12.46,9.33-16.43,16.18-3.98,6.85-5.96,14.51-5.96,22.97,0,6.85,1.56,13.01,4.7,18.46,3.13,5.46,7.38,9.73,12.75,12.82,5.37,3.09,11.27,4.63,17.7,4.63s12.18-1.18,17.26-3.55l2.79,7.87c-6.18,2.79-13.15,4.19-20.94,4.19-8.21,0-15.63-1.97-22.27-5.9ZM183.28,178.41c2.79-1.73,4.99-4.08,6.6-7.04,1.61-2.96,2.41-6.22,2.41-9.77,0-4.4-1.29-7.93-3.87-10.59-2.58-2.67-6.03-4-10.34-4-3.55,0-6.7.89-9.45,2.67-2.75,1.78-4.88,4.19-6.41,7.23s-2.28,6.39-2.28,10.02c0,4.49,1.33,7.95,4,10.41,2.67,2.45,6.07,3.68,10.21,3.68,3.3,0,6.34-.87,9.14-2.6Z"/>
  </g>
</svg>