<?xml version="1.0" encoding="UTF-8"?>
<svg id="Layer_2" data-name="Layer 2" xmlns="http://www.w3.org/2000/svg" xmlns:xlink="http://www.w3.org/1999/xlink" viewBox="0 0 354 327">
  <defs>
    <style>
      .cls-1 {
        fill: #010101;
      }

      .cls-2 {
        fill: #f9f9fa;
      }

      .cls-3 {
        fill: #231f20;
      }

      .cls-4 {
        fill: #fff;
      }

      .cls-5 {
        fill: none;
        stroke: #000;
        stroke-miterlimit: 10;
      }

      .cls-6 {
        clip-path: url(#clippath);
      }
    </style>
    <clipPath id="clippath">
      <path class="cls-5" d="M91.89,153.83c-4.75.01-9.49.16-14.22.42-1.5.08-3.17.06-4.66.24-2.01.24-3.34,1.79-3.34,3.79,0,1.9,0,3.8,0,5.71v9.73c0,1.08,0,2.16,0,3.24,0,1.48-.08,3.1,1.17,4.14,1.02.85,2.5.91,3.77,1.01,5.68.44,11.5.58,17.27.54,5.77.04,11.59-.1,17.27-.54,1.13-.09,2.39-.15,3.39-.75,1.04-.63,1.54-1.84,1.56-3.02.02-1.54-.01-3.08-.01-4.62,0-3.24,0-6.48,0-9.73,0-1.9,0-3.8,0-5.71,0-2-1.33-3.55-3.34-3.79-1.48-.18-3.15-.16-4.66-.24-4.73-.26-9.47-.41-14.22-.42Z"/>
    </clipPath>
  </defs>
  <g id="Layer_1-2" data-name="Layer 1">
    <rect class="cls-2" width="354" height="327"/>
    <g>
      <g>
        <path class="cls-1" d="M120.04,157.06h8.14c2.51,0,4.7.5,6.56,1.51,1.86,1.01,3.3,2.42,4.31,4.24,1.01,1.82,1.51,3.91,1.51,6.29s-.5,4.48-1.51,6.29c-1.01,1.82-2.45,3.23-4.31,4.24-1.86,1.01-4.05,1.51-6.56,1.51h-8.14v-24.09ZM127.98,176.84c2.6,0,4.59-.69,5.95-2.07,1.37-1.38,2.05-3.27,2.05-5.67s-.68-4.29-2.05-5.67c-1.37-1.38-3.35-2.07-5.95-2.07h-3.4v15.47h3.4Z"/>
        <path class="cls-1" d="M143.93,180.09c-1.17-1.07-1.75-2.46-1.75-4.19,0-1.14.3-2.15.91-3.03.61-.88,1.43-1.55,2.49-2.02,1.05-.47,2.22-.71,3.5-.71,1.77,0,3.29.26,4.54.77v-.74c0-.94-.35-1.7-1.06-2.29-.71-.58-1.65-.87-2.84-.87-.81,0-1.59.18-2.34.55-.75.37-1.37.86-1.87,1.46l-2.83-2.22c.83-1.08,1.87-1.91,3.13-2.49s2.62-.87,4.1-.87c2.62,0,4.62.61,5.99,1.82s2.05,2.98,2.05,5.32v10.56h-4.34v-1.75h-.27c-.52.67-1.19,1.22-2.04,1.65-.84.43-1.81.64-2.91.64-1.82,0-3.31-.53-4.47-1.6ZM152.49,177.03c.75-.82,1.13-1.78,1.13-2.88-1.14-.54-2.34-.81-3.6-.81-2.29,0-3.43.85-3.43,2.56,0,.7.25,1.26.74,1.7.49.44,1.2.66,2.12.66,1.28,0,2.29-.41,3.04-1.23Z"/>
        <path class="cls-1" d="M162.21,180.41c-1.29-.85-2.19-1.96-2.71-3.33l3.94-1.72c.36.81.87,1.42,1.53,1.83.66.42,1.43.62,2.3.62.81,0,1.48-.13,2.02-.39.54-.26.81-.68.81-1.26s-.25-.98-.74-1.26c-.49-.28-1.23-.53-2.22-.76l-2.02-.44c-1.39-.34-2.55-.95-3.47-1.83-.92-.89-1.38-1.99-1.38-3.31,0-.99.3-1.87.89-2.66.59-.78,1.4-1.39,2.42-1.82,1.02-.43,2.15-.64,3.38-.64,3.54,0,5.91,1.24,7.1,3.73l-3.77,1.65c-.67-1.21-1.75-1.82-3.23-1.82-.76,0-1.37.14-1.82.42-.45.28-.67.63-.67,1.06,0,.81.76,1.41,2.29,1.82l2.52.61c1.7.43,2.99,1.08,3.85,1.95.86.87,1.3,1.95,1.3,3.23,0,1.1-.32,2.07-.96,2.91-.64.84-1.51,1.5-2.62,1.97-1.11.47-2.34.71-3.68.71-2.09,0-3.77-.43-5.06-1.28Z"/>
        <path class="cls-1" d="M176.63,157.06h4.41v6.09l-.27,2.99h.27c.49-.81,1.21-1.46,2.15-1.95.94-.49,1.96-.74,3.06-.74,2.09,0,3.68.62,4.79,1.87,1.11,1.24,1.66,2.97,1.66,5.16v10.66h-4.41v-10.13c0-1.1-.3-1.95-.89-2.56-.59-.61-1.39-.91-2.37-.91-1.17,0-2.13.47-2.88,1.41-.75.94-1.13,2.1-1.13,3.46v8.71h-4.41v-24.09Z"/>
        <path class="cls-1" d="M197.95,179.94c-1.59-1.17-2.69-2.8-3.3-4.91l3.57-1.45c.36,1.32.99,2.41,1.9,3.25.91.84,2,1.26,3.28,1.26,1.19,0,2.2-.31,3.03-.93.83-.62,1.24-1.46,1.24-2.54,0-.99-.36-1.8-1.09-2.44-.73-.64-2-1.28-3.82-1.93l-1.51-.54c-1.61-.56-2.97-1.37-4.07-2.42-1.1-1.05-1.65-2.44-1.65-4.17,0-1.19.32-2.29.98-3.3.65-1.01,1.55-1.81,2.71-2.41,1.15-.59,2.46-.89,3.92-.89,2.11,0,3.79.51,5.05,1.53,1.26,1.02,2.1,2.17,2.52,3.45l-3.4,1.45c-.25-.76-.72-1.43-1.41-2.02-.7-.58-1.59-.87-2.69-.87s-2.02.28-2.78.84c-.75.56-1.13,1.28-1.13,2.15s.34,1.51,1.01,2.05c.67.54,1.73,1.05,3.16,1.55l1.51.5c2.06.72,3.66,1.65,4.79,2.81,1.13,1.15,1.7,2.7,1.7,4.63,0,1.57-.4,2.89-1.21,3.95-.81,1.07-1.83,1.86-3.08,2.37-1.24.52-2.53.77-3.85.77-2,0-3.79-.58-5.38-1.75Z"/>
        <path class="cls-1" d="M218.11,181.05c-.67-.25-1.22-.57-1.65-.98-.96-.96-1.45-2.28-1.45-3.94v-8.88h-2.99v-3.26h2.99v-4.84h3.7v4.84h4.17v3.26h-4.17v8.07c0,.92.18,1.57.54,1.95.34.45.92.67,1.75.67.38,0,.72-.05,1.01-.15.29-.1.61-.26.94-.49v3.6c-.74.34-1.64.5-2.69.5-.76,0-1.48-.12-2.15-.37Z"/>
        <path class="cls-1" d="M225.31,163.99h3.53v2.52h.17c.38-.88,1.04-1.6,1.98-2.17.94-.57,1.94-.86,2.99-.86.83,0,1.52.11,2.09.34v3.84c-.99-.36-1.87-.54-2.66-.54-.85,0-1.61.22-2.27.67-.66.45-1.18,1.05-1.56,1.8-.38.75-.57,1.58-.57,2.47v9.08h-3.7v-17.16Z"/>
        <path class="cls-1" d="M241.1,180.51c-1.33-.78-2.38-1.87-3.13-3.25-.75-1.38-1.13-2.93-1.13-4.66,0-1.64.36-3.16,1.09-4.56.73-1.4,1.74-2.52,3.04-3.35,1.3-.83,2.78-1.24,4.44-1.24s3.22.38,4.49,1.14c1.27.76,2.23,1.81,2.89,3.13.66,1.32.99,2.81.99,4.47,0,.31-.03.71-.1,1.18h-13.15c.13,1.59.7,2.82,1.7,3.68,1,.86,2.16,1.3,3.48,1.3,1.05,0,1.97-.24,2.74-.72.77-.48,1.4-1.14,1.87-1.97l3.13,1.48c-.81,1.41-1.86,2.52-3.16,3.33-1.3.81-2.86,1.21-4.68,1.21-1.68,0-3.19-.39-4.52-1.18ZM250.03,170.55c-.05-.61-.24-1.2-.57-1.8-.34-.59-.85-1.09-1.53-1.5-.68-.4-1.52-.61-2.51-.61-1.19,0-2.19.35-3.01,1.06-.82.71-1.39,1.65-1.7,2.84h9.32Z"/>
        <path class="cls-1" d="M258.31,180.97c-.96-.48-1.72-1.17-2.25-2.05-.54-.89-.81-1.89-.81-3.01,0-1.77.67-3.17,2-4.21,1.33-1.03,3.02-1.55,5.06-1.55,1.01,0,1.92.1,2.73.29.81.19,1.45.4,1.92.62v-.87c0-1.05-.39-1.91-1.18-2.57-.79-.66-1.79-.99-3.03-.99-.87,0-1.7.19-2.47.57s-1.4.91-1.87,1.58l-2.59-1.99c.76-1.05,1.75-1.87,2.96-2.46,1.21-.58,2.56-.87,4.04-.87,2.49,0,4.41.61,5.75,1.83,1.35,1.22,2.02,2.94,2.02,5.16v10.7h-3.63v-2.05h-.17c-.49.74-1.19,1.36-2.09,1.85-.9.49-1.93.74-3.1.74-1.23,0-2.33-.24-3.3-.72ZM264.66,177.99c.72-.43,1.28-1,1.68-1.72.4-.72.61-1.49.61-2.32-.52-.29-1.12-.53-1.8-.71-.68-.18-1.4-.27-2.14-.27-1.39,0-2.41.27-3.06.82-.65.55-.98,1.26-.98,2.14,0,.78.3,1.43.91,1.93.61.51,1.39.76,2.35.76.9,0,1.7-.21,2.42-.64Z"/>
        <path class="cls-1" d="M273.51,163.99h3.53v2.25h.17c.52-.83,1.24-1.5,2.19-2.02.94-.52,1.95-.77,3.03-.77,1.23,0,2.31.29,3.23.86.92.57,1.58,1.33,1.98,2.27.58-.94,1.36-1.7,2.34-2.27.98-.57,2.12-.86,3.45-.86,1.97,0,3.47.6,4.49,1.8,1.02,1.2,1.53,2.83,1.53,4.9v11h-3.7v-10.36c0-2.6-1.11-3.9-3.33-3.9-1.19,0-2.16.48-2.93,1.45s-1.14,2.15-1.14,3.57v9.25h-3.7v-10.36c0-2.6-1.14-3.9-3.43-3.9-1.17,0-2.13.48-2.88,1.45-.75.96-1.13,2.15-1.13,3.57v9.25h-3.7v-17.16Z"/>
      </g>
      <g>
        <g class="cls-6">
          <path class="cls-3" d="M91.89,153.83c-4.75.01-9.49.16-14.22.42-1.5.08-3.17.06-4.66.24-2.01.24-3.34,1.79-3.34,3.79,0,1.9,0,3.8,0,5.71v9.73c0,1.08,0,2.16,0,3.24,0,1.48-.08,3.1,1.17,4.14,1.02.85,2.5.91,3.77,1.01,5.68.44,11.5.58,17.27.54,5.77.04,11.59-.1,17.27-.54,1.13-.09,2.39-.15,3.39-.75,1.04-.63,1.54-1.84,1.56-3.02.02-1.54-.01-3.08-.01-4.62,0-3.24,0-6.48,0-9.73,0-1.9,0-3.8,0-5.71,0-2-1.33-3.55-3.34-3.79-1.48-.18-3.15-.16-4.66-.24-4.73-.26-9.47-.41-14.22-.42Z"/>
          <g>
            <path d="M104.18,153.97c-.46-.05-.93-.04-1.39-.06-4.97-.22-9.96-.33-14.95-.24-4,.07-8.01.29-12.01.47-1.45.06-3.29-.06-4.58.68-1.15.66-1.78,1.87-1.84,3.18v20.05c.05.97.16,1.94.77,2.73s1.72,1.21,2.72,1.31c3.12-1.28,6.41-2.26,9.29-4.04,1.35-.84,3.69-2.5,3.61-4.28-.07-1.65-2.39-3.29-3.63-4.18-3.06-2.2-11.05-6.69-5.92-10.92,3.72-3.07,10.34-3.64,15-3.99,3.77-.28,7.57-.5,11.33-.65.5-.02,1,0,1.5-.03.04,0,.11.02.1-.03ZM89.3,182.97h7.18c2.24-2.23,4.9-4.81,4.71-8.26-.25-4.49-6.08-7.46-9.42-9.57-2.09-1.32-6.66-3.99-3.12-6.52,2.55-1.83,7.77-2.68,10.89-3.17,3.29-.51,6.6-.79,9.9-1.21,0-.04-.11-.05-.13-.05-.39,0-.83.06-1.23.08-6.01.35-12.13.5-18.01,1.89-2.55.6-10.03,2.46-6.74,6.36.92,1.08,2.34,2.03,3.52,2.82,3.97,2.67,10.54,5.73,7.85,11.66-.91,2.01-2.62,3.68-4.3,5.07-.31.26-.78.55-1.06.82-.03.03-.06.04-.04.09ZM107.94,182.36c.96-.09,1.96-.1,2.92-.24,2.02-.3,3.3-1.29,3.51-3.42v-20.67c-.16-2.46-1.77-3.65-4.13-3.8-.5-.03-.88.13-1.37.24-3.32.76-6.73,1.29-10.01,2.2-1.34.37-3.91,1.1-4.81,2.18-1.41,1.69,1.2,2.92,2.39,3.6,4.46,2.55,10.16,4.84,12.39,9.84,1.25,2.82,1.03,5.92-.21,8.7-.21.46-.46.9-.68,1.36Z"/>
            <path class="cls-4" d="M104.18,153.97c0,.05-.07.03-.1.03-.5.02-1,0-1.5.03-3.77.15-7.56.36-11.33.65-4.66.35-11.28.92-15,3.99-5.12,4.23,2.86,8.72,5.92,10.92,1.24.89,3.56,2.53,3.63,4.18.07,1.78-2.27,3.45-3.61,4.28-2.88,1.78-6.17,2.76-9.29,4.04-1-.1-2.09-.49-2.72-1.31s-.71-1.76-.77-2.73v-20.05c.06-1.31.7-2.52,1.84-3.18,1.29-.74,3.12-.61,4.58-.68,4-.18,8-.4,12.01-.47,4.99-.09,9.98.02,14.95.24.46.02.93,0,1.39.06Z"/>
            <g>
              <path class="cls-4" d="M107.94,182.36c.22-.46.47-.89.68-1.36,1.23-2.78,1.46-5.88.21-8.7-2.22-4.99-7.92-7.29-12.39-9.84-1.18-.68-3.8-1.91-2.39-3.6.9-1.08,3.46-1.81,4.81-2.18,3.28-.91,6.69-1.44,10.01-2.2.49-.11.87-.28,1.37-.24,2.35.15,3.97,1.34,4.13,3.8v20.67c-.21,2.13-1.49,3.12-3.51,3.42-.96.14-1.95.15-2.92.24Z"/>
              <path class="cls-4" d="M89.3,182.97s.02-.06.04-.09c.27-.27.74-.56,1.06-.82,1.67-1.38,3.39-3.06,4.3-5.07,2.68-5.93-3.88-9-7.85-11.66-1.18-.79-2.61-1.73-3.52-2.82-3.29-3.89,4.19-5.75,6.74-6.36,5.89-1.39,12-1.55,18.01-1.89.4-.02.84-.08,1.23-.08.03,0,.14,0,.13.05-3.3.42-6.62.7-9.9,1.21-3.12.49-8.34,1.34-10.89,3.17-3.54,2.53,1.03,5.2,3.12,6.52,3.34,2.11,9.18,5.08,9.42,9.57.19,3.45-2.47,6.03-4.71,8.26h-7.18Z"/>
            </g>
          </g>
        </g>
        <path class="cls-5" d="M91.89,153.83c-4.75.01-9.49.16-14.22.42-1.5.08-3.17.06-4.66.24-2.01.24-3.34,1.79-3.34,3.79,0,1.9,0,3.8,0,5.71v9.73c0,1.08,0,2.16,0,3.24,0,1.48-.08,3.1,1.17,4.14,1.02.85,2.5.91,3.77,1.01,5.68.44,11.5.58,17.27.54,5.77.04,11.59-.1,17.27-.54,1.13-.09,2.39-.15,3.39-.75,1.04-.63,1.54-1.84,1.56-3.02.02-1.54-.01-3.08-.01-4.62,0-3.24,0-6.48,0-9.73,0-1.9,0-3.8,0-5.71,0-2-1.33-3.55-3.34-3.79-1.48-.18-3.15-.16-4.66-.24-4.73-.26-9.47-.41-14.22-.42Z"/>
      </g>
    </g>
  </g>
</svg>