<?xml version="1.0" encoding="UTF-8"?>
<svg id="Layer_2" data-name="Layer 2" xmlns="http://www.w3.org/2000/svg" viewBox="0 0 354 327">
  <defs>
    <style>
      .cls-1 {
        fill: #e91d25;
      }

      .cls-2 {
        fill: #fff;
      }
    </style>
  </defs>
  <g id="Layer_1-2" data-name="Layer 1">
    <g>
      <rect class="cls-1" width="354" height="327"/>
      <g id="bcCDs1.tif">
        <g>
          <path class="cls-2" d="M188.52,208.99h-1.29c-7.9-.59-12.66-9.16-8.65-16.14,4.12-7.19,14.69-7.14,18.71.12,3.85,6.96-.87,15.49-8.76,16.02ZM187.21,191.44c-7.38.76-6.88,14.14,1.12,13.59,7.71-.53,7.21-14.44-1.12-13.59Z"/>
          <path class="cls-2" d="M146.01,208.99h-1.22c-7.87-.59-12.65-8.99-8.76-16.02,3.86-6.97,13.91-7.38,18.33-.73,4.59,6.9-.03,16.2-8.23,16.68l-.12.07ZM144.7,191.44c-6.97.71-6.94,13.1.28,13.59,8.51.57,8.49-14.48-.28-13.59Z"/>
          <path class="cls-2" d="M175.12,121.12c14.11-.38,31.3,3.42,40.97,14.42,9.92,11.29,6.7,24.41-4.53,33.1-18.17,14.06-52.12,13.96-69.92-.72-10.66-8.78-13.19-21.54-3.65-32.39,8.89-10.11,24.09-14.07,37.14-14.42ZM174.28,124.84c-5.91.2-18.08,1.77-22.08,6.52-4.26,5.06,4.37,8.59,8.02,9.69,1.66.5,4.45,1.29,6.13,1.4.09,0,.18.03.26-.03.71-4.05,1.65-8.17,3.63-11.8,3.57-6.55,8.86-7.62,13.05-.85,1.53,2.47,2.59,5.54,3.28,8.36.33,1.37.48,2.81.8,4.14.02.09.01.15.12.19.18.06,2.4-.39,2.78-.47,3.62-.75,10.13-2.64,12.11-5.99,2.6-4.39-4.05-7.45-7.24-8.57-4.97-1.73-10.34-2.31-15.57-2.61l-5.3.03ZM183.5,142.99c-.48-2.57-1.09-5.27-2.34-7.58-2.94-5.41-6.63-3.85-8.79,1.04-.92,2.07-1.4,4.31-1.79,6.54.49.05.99.11,1.48.15,2.51.19,5.02.16,7.52.07,1.31-.05,2.62-.06,3.92-.23ZM143.8,136.87c-.04-.39,0-.88,0-1.29,0-.02.14-.1.04-.11h-.11c-.36.58-.82,1.09-1.2,1.65-4.67,6.73-5.28,14.64-1.17,21.82,5.01,8.76,15.49,13.92,25.1,15.82,2.37.47,4.76.74,7.16.94-3.85-3.51-5.61-8.98-6.58-13.99-.53-2.72-.78-5.48-.95-8.25v-3.84c-4.38-.68-8.75-1.72-12.82-3.49-3.64-1.58-9.03-4.86-9.45-9.25ZM210.27,135.54v1.33c0,2.45-2.76,5.29-4.62,6.64-5,3.62-11.66,5.16-17.66,6.18.08,5.51-.42,11.13-2.02,16.41-1.07,3.53-2.67,7.13-5.51,9.58,4.7-.24,9.45-1.17,13.88-2.73,8.49-3,17.39-9.16,20.21-18.11,2.14-6.8.33-13.99-4.28-19.29ZM183.96,150.14l-5.43.31-5.63-.08-2.77-.23c.1,3.96.62,8.11,2.17,11.78,2.14,5.06,5.98,6.82,8.97,1.14,2.01-3.82,2.55-8.67,2.7-12.93Z"/>
          <path class="cls-2" d="M215.82,208.38l8.25-20.31,5.58.02,8.15,20.29h-4.91l-1.72-4.48h-8.63s-1.82,4.48-1.82,4.48h-4.91ZM229.82,200.32l-3-7.98-3,7.98h6.01Z"/>
          <polygon class="cls-2" points="161.68 188.08 166.66 196.74 171.64 188.08 177.04 188.08 168.9 200.89 168.9 208.38 164.41 208.38 164.41 200.89 156.28 188.08 161.68 188.08"/>
          <polygon class="cls-2" points="217.12 188.08 217.12 191.84 217 191.95 210.65 191.95 210.65 208.38 206.09 208.38 206.09 191.95 199.74 191.95 199.62 191.84 199.62 188.08 217.12 188.08"/>
          <polygon class="cls-2" points="133.61 188.08 133.61 191.95 127.23 191.95 127.23 208.26 127.11 208.38 122.66 208.38 122.66 191.95 116.2 191.95 116.2 188.08 133.61 188.08"/>
        </g>
      </g>
    </g>
  </g>
</svg>