<?xml version="1.0" encoding="UTF-8"?>
<svg id="Layer_2" data-name="Layer 2" xmlns="http://www.w3.org/2000/svg" viewBox="0 0 354 327">
  <defs>
    <style>
      .cls-1 {
        fill: #f9f9fa;
      }

      .cls-2 {
        fill: none;
        stroke: #000;
        stroke-miterlimit: 10;
        stroke-width: 5.93px;
      }
    </style>
  </defs>
  <g id="Layer_1-2" data-name="Layer 1">
    <rect class="cls-1" width="354" height="327"/>
    <g>
      <g>
        <g>
          <path class="cls-2" d="M213.24,128.07h8.9c5.43,0,9.88,4.45,9.88,9.88v8.9"/>
          <path class="cls-2" d="M121.98,146.85v-8.9c0-5.43,4.45-9.88,9.88-9.88h8.9"/>
        </g>
        <g>
          <path class="cls-2" d="M140.76,183.28h-8.9c-5.43,0-9.88-4.45-9.88-9.88v-8.9"/>
          <path class="cls-2" d="M232.02,164.5v8.9c0,5.43-4.45,9.88-9.88,9.88h-8.9"/>
        </g>
        <g>
          <path d="M167.4,146.57l-8.91,20.59h-4.71l-8.88-20.59h5.15l6.26,14.71,6.35-14.71h4.74Z"/>
          <path d="M167.48,165.13l1.62-3.59c1.73,1.26,4.32,2.15,6.79,2.15,2.82,0,3.97-.94,3.97-2.21,0-3.85-11.97-1.21-11.97-8.85,0-3.5,2.82-6.41,8.68-6.41,2.59,0,5.24.62,7.15,1.82l-1.47,3.62c-1.91-1.09-3.88-1.62-5.71-1.62-2.82,0-3.91,1.06-3.91,2.35,0,3.79,11.97,1.18,11.97,8.74,0,3.44-2.85,6.38-8.74,6.38-3.27,0-6.56-.97-8.38-2.38Z"/>
          <path d="M186.57,156.86c0-6.12,4.77-10.65,11.27-10.65s11.26,4.5,11.26,10.65-4.79,10.65-11.26,10.65-11.27-4.53-11.27-10.65ZM204.28,156.86c0-3.91-2.77-6.59-6.44-6.59s-6.44,2.68-6.44,6.59,2.77,6.59,6.44,6.59,6.44-2.68,6.44-6.59Z"/>
        </g>
      </g>
      <g>
        <path d="M177.79,194.77h-8.83l-1.83,4.16h-2.45l7.53-16.62h2.35l7.55,16.62h-2.49l-1.83-4.16ZM176.95,192.87l-3.59-8.14-3.59,8.14h7.17Z"/>
        <path d="M184.57,182.31h2.37v16.62h-2.37v-16.62Z"/>
      </g>
    </g>
  </g>
</svg>