<?xml version="1.0" encoding="UTF-8"?>
<svg id="Layer_2" data-name="Layer 2" xmlns="http://www.w3.org/2000/svg" viewBox="0 0 354 327">
  <defs>
    <style>
      .cls-1 {
        fill: #fec20e;
      }

      .cls-2 {
        fill: #f9f9fa;
      }

      .cls-3 {
        fill: #f7901e;
      }
    </style>
  </defs>
  <g id="Layer_1-2" data-name="Layer 1">
    <g>
      <rect class="cls-2" width="354" height="327"/>
      <g>
        <g>
          <circle class="cls-3" cx="78.04" cy="163.5" r="10.05"/>
          <path class="cls-1" d="M79.82,147.85c0,.98-.8,1.78-1.78,1.78s-1.78-.8-1.78-1.78v-10.2c0-.98.8-1.78,1.78-1.78s1.78.8,1.78,1.78v10.2Z"/>
          <path class="cls-1" d="M79.82,189.35c0,.98-.8,1.78-1.78,1.78s-1.78-.8-1.78-1.78v-10.2c0-.98.8-1.78,1.78-1.78s1.78.8,1.78,1.78v10.2Z"/>
          <path class="cls-1" d="M90.36,153.7c-.7.7-1.82.7-2.52,0s-.7-1.82,0-2.52l7.21-7.21c.7-.7,1.82-.7,2.52,0,.7.7.7,1.82,0,2.52l-7.21,7.21Z"/>
          <path class="cls-1" d="M61.02,183.04c-.7.7-1.82.7-2.52,0-.7-.7-.7-1.82,0-2.52l7.21-7.21c.7-.7,1.82-.7,2.52,0s.7,1.82,0,2.52l-7.21,7.21Z"/>
          <path class="cls-1" d="M87.84,175.82c-.7-.7-.7-1.82,0-2.52s1.82-.7,2.52,0l7.21,7.21c.7.7.7,1.82,0,2.52-.7.7-1.82.7-2.52,0l-7.21-7.21Z"/>
          <path class="cls-1" d="M58.5,146.48c-.7-.7-.7-1.82,0-2.52.7-.7,1.82-.7,2.52,0l7.21,7.21c.7.7.7,1.82,0,2.52s-1.82.7-2.52,0l-7.21-7.21Z"/>
          <path class="cls-1" d="M93.69,165.28c-.98,0-1.78-.8-1.78-1.78s.8-1.78,1.78-1.78h10.2c.98,0,1.78.8,1.78,1.78s-.8,1.78-1.78,1.78h-10.2Z"/>
          <path class="cls-1" d="M52.19,165.28c-.98,0-1.78-.8-1.78-1.78s.8-1.78,1.78-1.78h10.2c.98,0,1.78.8,1.78,1.78s-.8,1.78-1.78,1.78h-10.2Z"/>
        </g>
        <g>
          <path class="cls-3" d="M121.79,178.19c-1.81-.34-3.29-.8-4.43-1.38v-5.77c1.52.75,3.1,1.31,4.73,1.68,1.64.37,3.2.56,4.69.56,1.66,0,2.93-.29,3.79-.86.86-.57,1.29-1.38,1.29-2.41,0-.75-.22-1.38-.65-1.89-.43-.52-1.05-.98-1.87-1.4-.82-.42-2.07-.97-3.77-1.66-2.81-1.15-4.85-2.43-6.11-3.85-1.26-1.42-1.89-3.18-1.89-5.27,0-1.69.46-3.19,1.38-4.5.92-1.31,2.21-2.32,3.87-3.03,1.66-.72,3.59-1.08,5.77-1.08,1.78,0,3.36.14,4.73.43,1.38.29,2.73.73,4.05,1.33v5.6c-2.53-1.26-5.05-1.89-7.58-1.89-1.61,0-2.87.28-3.79.84-.92.56-1.38,1.36-1.38,2.39,0,.75.22,1.36.65,1.85.43.49,1.03.92,1.81,1.29.77.37,2.04.92,3.79,1.64,2.04.86,3.63,1.69,4.78,2.47,1.15.79,1.99,1.72,2.54,2.8.54,1.08.82,2.4.82,3.98,0,2.73-.98,4.85-2.95,6.37-1.97,1.52-4.9,2.28-8.8,2.28-1.84,0-3.66-.17-5.47-.52Z"/>
          <path class="cls-3" d="M143.91,176.41c-1.41-1.53-2.11-3.58-2.11-6.13v-12.87h6.5v12.18c0,2.7,1.25,4.05,3.74,4.05,1.09,0,2.11-.26,3.06-.77.95-.52,1.74-1.29,2.37-2.32v-13.13h6.5v20.66h-6.28v-2.5c-.92,1.06-2.03,1.85-3.34,2.37-1.31.52-2.68.77-4.11.77-2.81,0-4.92-.77-6.33-2.3Z"/>
          <path class="cls-3" d="M168.48,157.4h6.28v2.54c.95-1.06,2.07-1.86,3.38-2.39,1.31-.53,2.68-.8,4.11-.8,2.81,0,4.91.75,6.31,2.26,1.39,1.51,2.09,3.54,2.09,6.09v12.96h-6.5v-12.22c0-2.67-1.23-4-3.7-4-1.09,0-2.11.27-3.06.8-.95.53-1.75,1.31-2.41,2.35v13.08h-6.5v-20.66Z"/>
          <path class="cls-3" d="M198.46,178.21c-1.76-.33-3.15-.8-4.15-1.4v-5.08c1.15.69,2.52,1.25,4.13,1.68,1.61.43,3.1.65,4.48.65,1.18,0,2.04-.1,2.58-.3.54-.2.82-.57.82-1.12,0-.43-.16-.78-.47-1.05-.32-.27-.8-.52-1.44-.73-.65-.22-1.71-.54-3.21-.97-1.75-.52-3.12-1.04-4.11-1.57-.99-.53-1.74-1.2-2.24-2-.5-.8-.75-1.84-.75-3.1,0-2.15.85-3.77,2.56-4.84,1.71-1.08,4.02-1.61,6.95-1.61,1.43,0,2.92.15,4.45.45,1.53.3,2.72.7,3.55,1.18v4.95c-.83-.54-1.92-.99-3.25-1.33-1.33-.34-2.63-.52-3.9-.52-1.18,0-2.09.11-2.73.34-.65.23-.97.66-.97,1.29,0,.55.31.96.93,1.25.62.29,1.77.65,3.46,1.08l.86.22c1.81.49,3.21,1.03,4.22,1.61,1,.59,1.71,1.29,2.13,2.11.42.82.62,1.84.62,3.08,0,1.89-.82,3.41-2.45,4.54-1.64,1.13-4,1.7-7.1,1.7-1.55,0-3.21-.17-4.97-.49Z"/>
          <path class="cls-3" d="M216.65,146.26h6.5v13.51c.98-1,2.08-1.76,3.31-2.26,1.23-.5,2.55-.75,3.96-.75,2.81,0,4.91.75,6.31,2.26,1.39,1.51,2.09,3.54,2.09,6.09v12.96h-6.5v-12.22c0-2.67-1.23-4-3.7-4-1.09,0-2.11.27-3.06.8-.95.53-1.75,1.31-2.41,2.35v13.08h-6.5v-31.81Z"/>
          <path class="cls-3" d="M244.15,153.23c-.69-.66-1.03-1.49-1.03-2.5s.34-1.8,1.03-2.47c.69-.67,1.53-1.01,2.54-1.01s1.85.34,2.54,1.01c.69.67,1.03,1.5,1.03,2.47s-.34,1.84-1.03,2.5c-.69.66-1.54.99-2.54.99s-1.85-.33-2.54-.99ZM243.42,157.4h6.54v20.66h-6.54v-20.66Z"/>
          <path class="cls-3" d="M254.74,157.4h6.28v2.54c.95-1.06,2.07-1.86,3.38-2.39,1.31-.53,2.68-.8,4.11-.8,2.81,0,4.91.75,6.31,2.26,1.39,1.51,2.09,3.54,2.09,6.09v12.96h-6.5v-12.22c0-2.67-1.23-4-3.7-4-1.09,0-2.11.27-3.06.8-.95.53-1.75,1.31-2.41,2.35v13.08h-6.5v-20.66Z"/>
          <path class="cls-3" d="M283.75,175.85c-2.27-1.91-3.4-4.58-3.4-8.03s1.01-6.11,3.03-8.09c2.02-1.98,4.91-2.97,8.67-2.97,2.47,0,4.56.46,6.28,1.38,1.72.92,3.03,2.19,3.92,3.81.89,1.62,1.33,3.45,1.33,5.49v2.63h-17.04c.46,2.64,2.93,3.96,7.4,3.96,1.32,0,2.68-.11,4.09-.34,1.41-.23,2.63-.54,3.66-.95v4.56c-1,.43-2.3.77-3.87,1.03-1.58.26-3.16.39-4.73.39-3.96,0-7.07-.95-9.34-2.86ZM297.43,165.84c-.09-1.38-.6-2.45-1.55-3.21-.95-.76-2.25-1.14-3.92-1.14s-2.93.39-3.87,1.16c-.95.77-1.46,1.84-1.55,3.19h10.89Z"/>
        </g>
      </g>
    </g>
  </g>
</svg>