<?xml version="1.0" encoding="UTF-8"?>
<svg id="Layer_2" data-name="Layer 2" xmlns="http://www.w3.org/2000/svg" viewBox="0 0 354 327">
  <defs>
    <style>
      .cls-1 {
        fill: #992b46;
      }

      .cls-2 {
        fill: #296b9d;
      }

      .cls-3 {
        fill: #d83d47;
      }

      .cls-4 {
        fill: #f9f9fa;
      }

      .cls-5 {
        fill: #eda248;
      }

      .cls-6 {
        fill: #231f20;
      }

      .cls-7 {
        fill: #71b855;
      }

      .cls-8 {
        fill: #bb903f;
      }

      .cls-9 {
        fill: #d0336c;
      }

      .cls-10 {
        fill: #d9ab4f;
      }

      .cls-11 {
        fill: #f4c549;
      }

      .cls-12 {
        fill: #ba3639;
      }

      .cls-13 {
        fill: #59bee4;
      }

      .cls-14 {
        fill: #61a251;
      }

      .cls-15 {
        fill: #fff;
      }

      .cls-16 {
        fill: #e57340;
      }

      .cls-17 {
        fill: #df513a;
      }

      .cls-18 {
        fill: #4594ce;
      }

      .cls-19 {
        fill: #204969;
      }

      .cls-20 {
        fill: #51804d;
      }
    </style>
  </defs>
  <g id="Layer_1-2" data-name="Layer 1">
    <g>
      <rect class="cls-4" width="354" height="327"/>
      <g>
        <path class="cls-15" d="M214.7,163.5c-.05,0-.11,0-.16,0"/>
        <g>
          <path class="cls-6" d="M140.47,153.86l-2.45,2.84c-1.72-1.4-3.4-2.03-5.36-2.03-2.1,0-3.54.91-3.54,2.63s.91,2.38,4.87,3.61c4.38,1.4,7.19,3.23,7.19,7.71s-3.51,7.57-9.39,7.57c-4.03,0-6.98-1.44-8.97-3.4l2.63-2.91c1.79,1.51,3.72,2.42,6.21,2.42s4.17-1.19,4.17-3.33c0-1.93-.95-2.77-4.63-3.89-5.26-1.65-7.36-3.75-7.36-7.43,0-4.14,3.58-6.84,8.48-6.84,3.61,0,6.06,1.09,8.17,3.05Z"/>
          <path class="cls-6" d="M163.58,163.39c0,9.78-5.96,12.24-11.92,12.24h-6.94v-24.26h6.35c6.42,0,12.52,2,12.52,12.02ZM149.87,155.16v16.69h2.1c3.54,0,6.24-1.65,6.24-8.45s-2.84-8.24-6.35-8.24h-2Z"/>
          <path class="cls-6" d="M185.56,153.72l-2.7,2.8c-1.65-1.26-3.01-1.89-5.01-1.89-3.44,0-6.17,2.56-6.17,8.87s1.82,8.83,5.4,8.83c1.3,0,2.52-.28,3.61-.88v-5.92h-3.4l-.53-3.75h8.94v11.95c-2.45,1.51-5.43,2.45-8.52,2.45-7.15,0-10.9-4.38-10.9-12.73s5.08-12.66,11.36-12.66c3.47,0,5.89,1.19,7.92,2.91Z"/>
          <path class="cls-6" d="M203.51,171.74h8.24l-.56,3.89h-12.66v-19.88h4.98v15.99Z"/>
          <path class="cls-6" d="M227.24,159.26h-7.43v4.49h6.49v3.47h-6.49v4.87h7.92v3.54h-12.9v-19.88h12.9l-.49,3.51Z"/>
          <path class="cls-6" d="M248.49,165.57c0,8.03-5.08,10.06-10.45,10.06h-6.31v-19.88h5.85c5.61,0,10.9,1.65,10.9,9.82ZM236.71,159.29v12.76h1.68c2.98,0,4.98-1.33,4.98-6.49s-2.14-6.28-5.08-6.28h-1.58Z"/>
          <path class="cls-6" d="M268.29,157.75l-2.63,2.7c-1.33-1.05-2.49-1.58-4.21-1.58-2.91,0-5.12,2.07-5.12,6.8,0,5.15,1.47,6.87,4.35,6.87,1.09,0,2.03-.21,2.91-.63v-4.31h-2.73l-.49-3.47h7.99v9.85c-2.1,1.37-4.84,2.14-7.61,2.14-6.35,0-9.57-3.65-9.57-10.48s4.45-10.34,10.03-10.34c3.05,0,5.33,1.05,7.08,2.45Z"/>
          <path class="cls-6" d="M285.09,159.26h-7.43v4.49h6.49v3.47h-6.49v4.87h7.92v3.54h-12.9v-19.88h12.9l-.49,3.51Z"/>
          <path class="cls-6" d="M296.52,168.13h-1.96v7.5h-4.98v-19.88h6.87c5.75,0,8.66,2.03,8.66,6.03,0,2.63-1.26,4.35-4,5.5l5.33,8.34h-5.61l-4.31-7.5ZM294.55,164.73h2.1c2.17,0,3.37-.84,3.37-2.87,0-1.82-1.16-2.66-3.54-2.66h-1.93v5.54Z"/>
        </g>
        <g>
          <rect class="cls-12" x="56.98" y="136.81" width="3.14" height="53.39"/>
          <g>
            <rect class="cls-3" x="47.56" y="136.81" width="3.14" height="53.39"/>
            <rect class="cls-10" x="50.7" y="136.81" width="3.14" height="53.39"/>
            <rect class="cls-14" x="53.84" y="136.81" width="3.14" height="53.39"/>
            <rect class="cls-17" x="60.12" y="136.81" width="3.14" height="53.39"/>
            <rect class="cls-13" x="63.26" y="136.81" width="3.14" height="53.39"/>
            <rect class="cls-11" x="66.4" y="136.81" width="3.14" height="53.39"/>
            <rect class="cls-1" x="69.55" y="136.81" width="3.14" height="53.39"/>
            <rect class="cls-16" x="72.69" y="136.81" width="3.14" height="53.39"/>
            <rect class="cls-9" x="75.83" y="136.81" width="3.14" height="53.39"/>
            <rect class="cls-5" x="78.97" y="136.81" width="3.14" height="53.39"/>
            <rect class="cls-8" x="82.11" y="136.81" width="3.14" height="53.39"/>
            <rect class="cls-20" x="85.25" y="136.81" width="3.14" height="53.39"/>
            <rect class="cls-18" x="88.39" y="136.81" width="3.14" height="53.39"/>
            <rect class="cls-7" x="91.53" y="136.81" width="3.14" height="53.39"/>
            <rect class="cls-2" x="94.67" y="136.81" width="3.14" height="53.39"/>
            <rect class="cls-19" x="97.81" y="136.81" width="3.14" height="53.39"/>
          </g>
        </g>
      </g>
    </g>
  </g>
</svg>