<?xml version="1.0" encoding="UTF-8"?>
<svg id="Layer_2" data-name="Layer 2" xmlns="http://www.w3.org/2000/svg" xmlns:xlink="http://www.w3.org/1999/xlink" viewBox="0 0 354 327">
  <defs>
    <style>
      .cls-1 {
        fill: #010101;
      }

      .cls-2 {
        fill: #f9f9fa;
      }

      .cls-3 {
        fill: #231f20;
      }

      .cls-4 {
        fill: #fff;
      }

      .cls-5 {
        fill: none;
        stroke: #000;
        stroke-miterlimit: 10;
        stroke-width: 1.11px;
      }

      .cls-6 {
        clip-path: url(#clippath);
      }
    </style>
    <clipPath id="clippath">
      <path class="cls-5" d="M74.05,147.49c-5.28.01-10.54.18-15.79.47-1.67.09-3.53.07-5.17.27-2.24.27-3.71,1.99-3.71,4.21,0,2.11,0,4.23,0,6.34v10.81c0,1.2,0,2.4,0,3.6,0,1.64-.09,3.45,1.3,4.6,1.14.94,2.78,1.01,4.19,1.12,6.31.49,12.77.65,19.18.6,6.41.04,12.88-.11,19.18-.6,1.26-.1,2.66-.16,3.77-.83,1.16-.7,1.72-2.05,1.74-3.36.03-1.71-.01-3.42-.01-5.13,0-3.6,0-7.2,0-10.81,0-2.11,0-4.23,0-6.34,0-2.22-1.47-3.94-3.71-4.21-1.65-.2-3.5-.18-5.17-.27-5.26-.29-10.52-.45-15.79-.47Z"/>
    </clipPath>
  </defs>
  <g id="Layer_1-2" data-name="Layer 1">
    <g>
      <rect class="cls-2" width="354" height="327"/>
      <g>
        <g>
          <path class="cls-1" d="M105.32,151.09h9.04c2.79,0,5.22.56,7.29,1.68,2.07,1.12,3.66,2.69,4.78,4.71,1.12,2.02,1.68,4.35,1.68,6.99s-.56,4.97-1.68,6.99c-1.12,2.02-2.72,3.59-4.78,4.71-2.07,1.12-4.5,1.68-7.29,1.68h-9.04v-26.76ZM114.14,173.06c2.89,0,5.1-.77,6.62-2.3,1.52-1.53,2.28-3.63,2.28-6.3s-.76-4.76-2.28-6.3c-1.52-1.53-3.72-2.3-6.62-2.3h-3.77v17.19h3.77Z"/>
          <path class="cls-1" d="M131.86,176.67c-1.3-1.18-1.94-2.73-1.94-4.65,0-1.27.34-2.39,1.01-3.36.67-.97,1.59-1.72,2.77-2.24,1.17-.52,2.47-.78,3.89-.78,1.97,0,3.65.29,5.05.86v-.82c0-1.05-.39-1.89-1.18-2.54-.79-.65-1.84-.97-3.16-.97-.9,0-1.76.2-2.6.62-.84.41-1.53.95-2.07,1.63l-3.14-2.47c.92-1.2,2.08-2.12,3.48-2.77s2.92-.97,4.56-.97c2.92,0,5.13.67,6.65,2.02s2.28,3.31,2.28,5.9v11.74h-4.82v-1.94h-.3c-.57.75-1.33,1.36-2.26,1.83-.93.47-2.01.71-3.23.71-2.02,0-3.68-.59-4.97-1.78ZM141.37,173.27c.83-.91,1.25-1.97,1.25-3.2-1.27-.6-2.6-.9-4-.9-2.54,0-3.81.95-3.81,2.84,0,.77.27,1.4.82,1.89.55.49,1.33.73,2.35.73,1.42,0,2.55-.45,3.38-1.36Z"/>
          <path class="cls-1" d="M152.17,177.02c-1.43-.95-2.44-2.18-3.01-3.7l4.37-1.91c.4.9.97,1.58,1.7,2.04.73.46,1.59.69,2.56.69.9,0,1.64-.14,2.24-.43.6-.29.9-.75.9-1.4s-.27-1.09-.82-1.4c-.55-.31-1.37-.59-2.47-.84l-2.24-.49c-1.55-.37-2.83-1.05-3.85-2.04-1.02-.98-1.53-2.21-1.53-3.68,0-1.1.33-2.08.99-2.95.66-.87,1.56-1.54,2.69-2.02,1.13-.47,2.39-.71,3.76-.71,3.94,0,6.56,1.38,7.89,4.15l-4.19,1.83c-.75-1.35-1.94-2.02-3.59-2.02-.85,0-1.52.16-2.02.47-.5.31-.75.7-.75,1.18,0,.9.85,1.57,2.54,2.02l2.8.67c1.89.47,3.32,1.2,4.28,2.17.96.97,1.44,2.17,1.44,3.59,0,1.22-.36,2.3-1.06,3.23-.71.93-1.68,1.66-2.92,2.19-1.23.52-2.6.78-4.09.78-2.32,0-4.19-.47-5.63-1.42Z"/>
          <path class="cls-1" d="M168.18,151.09h4.9v6.76l-.3,3.33h.3c.55-.9,1.35-1.62,2.39-2.17,1.05-.55,2.18-.82,3.4-.82,2.32,0,4.09.69,5.33,2.07,1.23,1.38,1.85,3.3,1.85,5.74v11.85h-4.9v-11.25c0-1.22-.33-2.17-.99-2.84-.66-.67-1.54-1.01-2.63-1.01-1.3,0-2.36.52-3.2,1.57-.83,1.05-1.25,2.33-1.25,3.85v9.68h-4.9v-26.76Z"/>
          <path class="cls-1" d="M191.88,176.5c-1.77-1.3-2.99-3.11-3.66-5.46l3.96-1.61c.4,1.47,1.1,2.67,2.11,3.61,1.01.93,2.22,1.4,3.64,1.4,1.32,0,2.44-.34,3.36-1.03.92-.68,1.38-1.63,1.38-2.82,0-1.1-.41-2-1.21-2.71-.81-.71-2.22-1.43-4.24-2.15l-1.68-.6c-1.79-.62-3.3-1.52-4.52-2.69-1.22-1.17-1.83-2.72-1.83-4.63,0-1.32.36-2.54,1.08-3.66.72-1.12,1.72-2.01,3.01-2.67,1.28-.66,2.73-.99,4.35-.99,2.34,0,4.21.57,5.61,1.7,1.39,1.13,2.33,2.41,2.8,3.83l-3.77,1.61c-.27-.85-.8-1.59-1.57-2.24-.77-.65-1.77-.97-2.99-.97s-2.25.31-3.08.93c-.83.62-1.25,1.42-1.25,2.39s.37,1.68,1.12,2.28c.75.6,1.92,1.17,3.51,1.72l1.68.56c2.29.8,4.07,1.84,5.33,3.12,1.26,1.28,1.89,3,1.89,5.14,0,1.74-.45,3.21-1.35,4.39-.9,1.18-2.04,2.06-3.42,2.63-1.38.57-2.81.86-4.28.86-2.22,0-4.21-.65-5.98-1.94Z"/>
          <path class="cls-1" d="M214.26,177.73c-.75-.27-1.36-.63-1.83-1.08-1.07-1.07-1.61-2.53-1.61-4.37v-9.87h-3.33v-3.62h3.33v-5.38h4.11v5.38h4.63v3.62h-4.63v8.97c0,1.02.2,1.74.6,2.17.37.5,1.02.75,1.94.75.42,0,.8-.06,1.12-.17.32-.11.67-.29,1.05-.54v4c-.82.37-1.82.56-2.99.56-.85,0-1.64-.14-2.39-.41Z"/>
          <path class="cls-1" d="M222.26,158.78h3.92v2.8h.19c.42-.97,1.16-1.78,2.2-2.41,1.05-.63,2.15-.95,3.33-.95.92,0,1.69.13,2.32.37v4.26c-1.1-.4-2.08-.6-2.95-.6-.95,0-1.79.25-2.52.75-.74.5-1.31,1.17-1.74,2-.42.84-.64,1.75-.64,2.75v10.09h-4.11v-19.06Z"/>
          <path class="cls-1" d="M239.81,177.13c-1.48-.87-2.64-2.07-3.48-3.61-.83-1.53-1.25-3.26-1.25-5.18,0-1.82.4-3.51,1.21-5.06.81-1.56,1.94-2.8,3.38-3.72,1.44-.92,3.09-1.38,4.93-1.38s3.58.42,4.99,1.27c1.41.85,2.48,2.01,3.21,3.48.73,1.47,1.1,3.13,1.1,4.97,0,.35-.04.78-.11,1.31h-14.61c.15,1.77.78,3.13,1.89,4.09,1.11.96,2.4,1.44,3.87,1.44,1.17,0,2.19-.27,3.05-.8.86-.54,1.55-1.26,2.07-2.19l3.48,1.64c-.9,1.57-2.07,2.8-3.51,3.7-1.45.9-3.18,1.35-5.19,1.35-1.87,0-3.54-.44-5.03-1.31ZM249.73,166.07c-.05-.67-.26-1.34-.64-2-.37-.66-.94-1.21-1.7-1.66-.76-.45-1.69-.67-2.78-.67-1.32,0-2.44.39-3.34,1.18-.91.78-1.54,1.84-1.89,3.16h10.35Z"/>
          <path class="cls-1" d="M258.92,177.64c-1.07-.54-1.91-1.29-2.5-2.28-.6-.98-.9-2.1-.9-3.34,0-1.97.74-3.52,2.22-4.67,1.48-1.15,3.36-1.72,5.62-1.72,1.12,0,2.13.11,3.03.32.9.21,1.61.44,2.13.69v-.97c0-1.17-.44-2.12-1.31-2.86-.87-.74-1.99-1.1-3.36-1.1-.97,0-1.89.21-2.75.63s-1.55,1.01-2.07,1.76l-2.88-2.21c.85-1.17,1.94-2.08,3.29-2.73,1.35-.65,2.84-.97,4.48-.97,2.77,0,4.9.68,6.39,2.04,1.5,1.36,2.24,3.27,2.24,5.74v11.89h-4.04v-2.28h-.19c-.55.82-1.32,1.51-2.32,2.06-1,.55-2.14.82-3.44.82-1.37,0-2.59-.27-3.66-.8ZM265.99,174.33c.8-.47,1.42-1.11,1.87-1.91.45-.8.67-1.66.67-2.58-.57-.32-1.24-.59-2-.78-.76-.2-1.55-.3-2.37-.3-1.55,0-2.68.31-3.4.92-.72.61-1.08,1.4-1.08,2.37,0,.87.34,1.59,1.01,2.15.67.56,1.54.84,2.62.84,1,0,1.89-.24,2.69-.71Z"/>
          <path class="cls-1" d="M275.82,158.78h3.92v2.5h.19c.57-.92,1.38-1.67,2.43-2.24,1.05-.57,2.17-.86,3.36-.86,1.37,0,2.57.32,3.59.95,1.02.63,1.76,1.48,2.2,2.52.65-1.05,1.51-1.89,2.6-2.52,1.08-.64,2.36-.95,3.83-.95,2.19,0,3.86.67,4.99,2,1.13,1.33,1.7,3.15,1.7,5.44v12.22h-4.11v-11.51c0-2.89-1.23-4.34-3.7-4.34-1.32,0-2.4.54-3.25,1.61s-1.27,2.39-1.27,3.96v10.28h-4.11v-11.51c0-2.89-1.27-4.34-3.81-4.34-1.3,0-2.36.54-3.2,1.61-.83,1.07-1.25,2.39-1.25,3.96v10.28h-4.11v-19.06Z"/>
        </g>
        <g>
          <g class="cls-6">
            <path class="cls-3" d="M74.05,147.49c-5.28.01-10.54.18-15.79.47-1.67.09-3.53.07-5.17.27-2.24.27-3.71,1.99-3.71,4.21,0,2.11,0,4.23,0,6.34v10.81c0,1.2,0,2.4,0,3.6,0,1.64-.09,3.45,1.3,4.6,1.14.94,2.78,1.01,4.19,1.12,6.31.49,12.77.65,19.18.6,6.41.04,12.88-.11,19.18-.6,1.26-.1,2.66-.16,3.77-.83,1.16-.7,1.72-2.05,1.74-3.36.03-1.71-.01-3.42-.01-5.13,0-3.6,0-7.2,0-10.81,0-2.11,0-4.23,0-6.34,0-2.22-1.47-3.94-3.71-4.21-1.65-.2-3.5-.18-5.17-.27-5.26-.29-10.52-.45-15.79-.47Z"/>
            <g>
              <path d="M87.7,147.65c-.51-.06-1.03-.04-1.55-.07-5.52-.24-11.06-.36-16.6-.26-4.45.08-8.9.33-13.34.52-1.61.07-3.66-.07-5.08.76-1.27.74-1.98,2.07-2.05,3.53v22.27c.06,1.08.17,2.15.85,3.03s1.91,1.34,3.02,1.45c3.46-1.42,7.12-2.51,10.32-4.49,1.5-.93,4.1-2.78,4.02-4.76-.08-1.83-2.66-3.65-4.04-4.64-3.4-2.45-12.28-7.43-6.58-12.14,4.13-3.41,11.49-4.05,16.67-4.44,4.19-.31,8.41-.55,12.59-.72.55-.02,1.11,0,1.67-.03.04,0,.12.02.11-.03ZM71.17,179.87h7.97c2.49-2.48,5.45-5.35,5.24-9.18-.28-4.99-6.76-8.28-10.47-10.63-2.33-1.47-7.4-4.43-3.47-7.25,2.84-2.03,8.63-2.98,12.1-3.52,3.65-.57,7.34-.88,11-1.34,0-.05-.12-.06-.15-.06-.43,0-.93.06-1.37.09-6.67.38-13.47.56-20.01,2.1-2.83.67-11.14,2.74-7.49,7.06,1.02,1.2,2.6,2.25,3.91,3.13,4.41,2.96,11.7,6.36,8.72,12.96-1.01,2.23-2.92,4.09-4.77,5.63-.35.29-.87.62-1.17.91-.03.03-.06.04-.05.1ZM91.88,179.18c1.07-.1,2.18-.11,3.24-.27,2.25-.33,3.67-1.43,3.9-3.79v-22.96c-.17-2.73-1.97-4.06-4.58-4.22-.56-.03-.98.15-1.52.27-3.69.85-7.48,1.44-11.12,2.44-1.49.41-4.34,1.23-5.34,2.42-1.57,1.88,1.34,3.25,2.65,4,4.96,2.83,11.29,5.38,13.76,10.93,1.39,3.13,1.14,6.58-.23,9.66-.23.52-.51,1-.76,1.51Z"/>
              <path class="cls-4" d="M87.7,147.65c0,.06-.07.03-.11.03-.55.02-1.11,0-1.67.03-4.18.17-8.4.4-12.59.72-5.18.39-12.54,1.02-16.67,4.44-5.69,4.7,3.18,9.69,6.58,12.14,1.38.99,3.96,2.81,4.04,4.64.08,1.98-2.52,3.83-4.02,4.76-3.2,1.98-6.86,3.07-10.32,4.49-1.11-.11-2.32-.54-3.02-1.45s-.79-1.95-.85-3.03v-22.27c.07-1.46.77-2.79,2.05-3.53,1.43-.83,3.47-.68,5.08-.76,4.44-.2,8.89-.44,13.34-.52,5.54-.1,11.08.02,16.6.26.52.02,1.04,0,1.55.07Z"/>
              <g>
                <path class="cls-4" d="M91.88,179.18c.24-.51.53-.99.76-1.51,1.37-3.09,1.62-6.53.23-9.66-2.47-5.55-8.8-8.1-13.76-10.93-1.31-.75-4.22-2.12-2.65-4,1-1.19,3.85-2.01,5.34-2.42,3.65-1.01,7.43-1.6,11.12-2.44.54-.12.96-.31,1.52-.27,2.61.16,4.41,1.49,4.58,4.22v22.96c-.23,2.36-1.65,3.46-3.9,3.79-1.06.16-2.17.17-3.24.27Z"/>
                <path class="cls-4" d="M71.17,179.87c-.01-.06.02-.07.05-.1.3-.3.82-.63,1.17-.91,1.86-1.54,3.77-3.4,4.77-5.63,2.98-6.59-4.31-9.99-8.72-12.96-1.31-.88-2.9-1.93-3.91-3.13-3.66-4.32,4.65-6.39,7.49-7.06,6.54-1.54,13.34-1.72,20.01-2.1.44-.03.94-.08,1.37-.09.03,0,.15.01.15.06-3.67.46-7.35.77-11,1.34-3.47.54-9.26,1.49-12.1,3.52-3.93,2.82,1.15,5.78,3.47,7.25,3.71,2.35,10.19,5.64,10.47,10.63.21,3.83-2.75,6.7-5.24,9.18h-7.97Z"/>
              </g>
            </g>
          </g>
          <path class="cls-5" d="M74.05,147.49c-5.28.01-10.54.18-15.79.47-1.67.09-3.53.07-5.17.27-2.24.27-3.71,1.99-3.71,4.21,0,2.11,0,4.23,0,6.34v10.81c0,1.2,0,2.4,0,3.6,0,1.64-.09,3.45,1.3,4.6,1.14.94,2.78,1.01,4.19,1.12,6.31.49,12.77.65,19.18.6,6.41.04,12.88-.11,19.18-.6,1.26-.1,2.66-.16,3.77-.83,1.16-.7,1.72-2.05,1.74-3.36.03-1.71-.01-3.42-.01-5.13,0-3.6,0-7.2,0-10.81,0-2.11,0-4.23,0-6.34,0-2.22-1.47-3.94-3.71-4.21-1.65-.2-3.5-.18-5.17-.27-5.26-.29-10.52-.45-15.79-.47Z"/>
        </g>
      </g>
    </g>
  </g>
</svg>