<?xml version="1.0" encoding="UTF-8"?>
<svg id="Layer_2" data-name="Layer 2" xmlns="http://www.w3.org/2000/svg" viewBox="0 0 354 327">
  <defs>
    <style>
      .cls-1 {
        fill: #010101;
      }

      .cls-2 {
        fill: #f9f9fa;
      }
    </style>
  </defs>
  <g id="Layer_1-2" data-name="Layer 1">
    <g>
      <rect class="cls-2" width="354" height="327"/>
      <g>
        <path class="cls-1" d="M89.61,176.22c-2.18,0-4.41-.39-6.67-1.17s-4.34-1.98-6.21-3.58l5.01-6.03c1.26.95,2.61,1.73,4.06,2.32,1.45.6,2.92.89,4.42.89,1.33,0,2.27-.19,2.84-.56.56-.37.84-.83.84-1.38,0-.65-.19-1.16-.56-1.53s-.92-.72-1.64-1.02c-.71-.31-1.58-.66-2.61-1.07l-4.14-1.74c-1.26-.48-2.43-1.13-3.5-1.97s-1.93-1.86-2.55-3.07c-.63-1.21-.95-2.61-.95-4.22,0-1.91.53-3.64,1.59-5.19,1.06-1.55,2.54-2.79,4.45-3.73,1.91-.94,4.12-1.41,6.64-1.41,1.98,0,3.96.37,5.95,1.1,1.99.73,3.79,1.85,5.39,3.35l-4.4,5.52c-1.19-.79-2.33-1.38-3.42-1.79s-2.44-.61-4.04-.61c-.95,0-1.74.18-2.35.54-.61.36-.92.93-.92,1.71,0,.51.21.94.61,1.28.41.34,1.01.66,1.79.97s1.72.66,2.81,1.07l3.83,1.59c1.5.55,2.77,1.23,3.81,2.07,1.04.84,1.83,1.83,2.38,2.99.55,1.16.82,2.51.82,4.04,0,1.87-.51,3.62-1.53,5.24-1.02,1.62-2.52,2.92-4.5,3.91-1.98.99-4.39,1.48-7.26,1.48Z"/>
        <path class="cls-1" d="M120.48,176.22c-2.69,0-5.12-.53-7.28-1.58s-3.88-2.58-5.14-4.57c-1.26-1.99-1.89-4.4-1.89-7.23s.64-5.19,1.92-7.18c1.28-1.99,2.94-3.53,4.98-4.6,2.04-1.07,4.21-1.61,6.49-1.61,2.69,0,4.94.55,6.75,1.66s3.16,2.6,4.06,4.47c.9,1.88,1.35,3.95,1.35,6.24,0,.75-.04,1.47-.13,2.17-.09.7-.16,1.2-.23,1.51h-18.55v-5.72h12.47l-1.23,1.53c0-1.7-.34-3-1.02-3.88-.68-.88-1.74-1.33-3.17-1.33-1.12,0-2.07.24-2.84.71-.77.48-1.36,1.22-1.76,2.22-.41,1-.61,2.27-.61,3.81s.26,2.9.79,3.88c.53.99,1.31,1.71,2.35,2.17,1.04.46,2.34.69,3.91.69,1.02,0,2.02-.13,2.99-.38.97-.26,2.02-.64,3.14-1.15l2.86,5.21c-1.53.95-3.22,1.69-5.06,2.2-1.84.51-3.56.77-5.16.77Z"/>
        <path class="cls-1" d="M149.61,176.22c-2.69,0-5.12-.53-7.28-1.58s-3.88-2.58-5.14-4.57c-1.26-1.99-1.89-4.4-1.89-7.23s.64-5.19,1.92-7.18c1.28-1.99,2.94-3.53,4.98-4.6,2.04-1.07,4.21-1.61,6.49-1.61,2.69,0,4.94.55,6.75,1.66s3.16,2.6,4.06,4.47c.9,1.88,1.35,3.95,1.35,6.24,0,.75-.04,1.47-.13,2.17-.09.7-.16,1.2-.23,1.51h-18.55v-5.72h12.47l-1.23,1.53c0-1.7-.34-3-1.02-3.88-.68-.88-1.74-1.33-3.17-1.33-1.12,0-2.07.24-2.84.71-.77.48-1.36,1.22-1.76,2.22-.41,1-.61,2.27-.61,3.81s.26,2.9.79,3.88c.53.99,1.31,1.71,2.35,2.17,1.04.46,2.34.69,3.91.69,1.02,0,2.02-.13,2.99-.38.97-.26,2.02-.64,3.14-1.15l2.86,5.21c-1.53.95-3.22,1.69-5.06,2.2-1.84.51-3.56.77-5.16.77Z"/>
        <path class="cls-1" d="M165.14,175.61v-25.55h7.15l.61,3.07h.2c1.02-.99,2.23-1.85,3.63-2.58,1.4-.73,3.03-1.1,4.9-1.1,2.83,0,4.89.94,6.18,2.84,1.29,1.89,1.94,4.42,1.94,7.59v15.74h-8.79v-14.62c0-1.43-.21-2.47-.64-3.12-.43-.64-1.2-.97-2.33-.97-.82,0-1.53.17-2.15.51-.61.34-1.26.82-1.94,1.43v16.76h-8.79Z"/>
        <path class="cls-1" d="M202.04,176.22c-1.77,0-3.27-.36-4.5-1.1-1.23-.73-2.16-1.69-2.81-2.89-.65-1.19-.97-2.49-.97-3.89,0-2.86,1.23-5.05,3.7-6.57,2.47-1.51,6.62-2.43,12.44-2.73-.1-.61-.36-1.12-.77-1.51-.41-.39-.96-.68-1.66-.87s-1.52-.28-2.48-.28c-.72,0-1.45.08-2.2.23s-1.54.39-2.38.72-1.76.72-2.79,1.2l-3.07-5.72c1.29-.72,2.61-1.33,3.94-1.84s2.67-.89,4.04-1.15,2.76-.38,4.19-.38c2.42,0,4.52.42,6.31,1.25,1.79.84,3.18,2.13,4.17,3.88.99,1.76,1.48,4.03,1.48,6.82v14.21h-7.15l-.61-2.66h-.2c-1.26.92-2.62,1.69-4.09,2.32-1.46.63-3,.94-4.6.94ZM204.9,169.48c1.02,0,1.94-.2,2.76-.59s1.57-.84,2.25-1.36v-3.27c-2.08.07-3.68.26-4.8.56-1.12.31-1.9.71-2.32,1.2-.43.5-.64,1.03-.64,1.61,0,.37.1.71.31,1,.2.29.51.5.92.64s.92.2,1.53.2Z"/>
        <path class="cls-1" d="M223.91,175.61v-25.55h7.21l.66,5.42h.2c1.23-2.11,2.72-3.65,4.47-4.6,1.75-.95,3.59-1.43,5.49-1.43,1.19,0,2.12.09,2.79.28.66.19,1.36.43,2.07.74l-1.74,7.36c-.75-.24-1.45-.42-2.09-.54-.65-.12-1.43-.18-2.35-.18-1.46,0-2.91.43-4.34,1.3-1.43.87-2.62,2.38-3.58,4.52v12.67h-8.79Z"/>
        <path class="cls-1" d="M255.24,185.22c-.79,0-1.52-.05-2.2-.15-.68-.1-1.31-.22-1.89-.36l1.53-6.64c.34.1.66.18.97.23.31.05.6.08.87.08,1.36,0,2.41-.24,3.14-.72.73-.48,1.27-1.09,1.61-1.84l.41-1.12-10.73-24.63h8.69l3.58,9.81c.44,1.23.85,2.48,1.23,3.76.37,1.28.73,2.61,1.07,4.01h.2c.31-1.3.66-2.6,1.05-3.91s.78-2.6,1.15-3.86l3.07-9.81h8.28l-9.61,25.14c-.88,2.28-1.86,4.17-2.94,5.65-1.07,1.48-2.36,2.58-3.86,3.3-1.5.72-3.37,1.07-5.62,1.07Z"/>
      </g>
    </g>
  </g>
</svg>