<?xml version="1.0" encoding="UTF-8"?>
<svg id="Layer_2" data-name="Layer 2" xmlns="http://www.w3.org/2000/svg" viewBox="0 0 354 327">
  <defs>
    <style>
      .cls-1 {
        fill: #31afe4;
      }

      .cls-2 {
        fill: #f9f9fa;
      }

      .cls-3 {
        fill: #231f20;
      }

      .cls-4 {
        fill: #7ac143;
        stroke: #7ac143;
        stroke-miterlimit: 10;
        stroke-width: 1.91px;
      }

      .cls-5 {
        fill: #fdb614;
      }
    </style>
  </defs>
  <g id="Layer_1-2" data-name="Layer 1">
    <g>
      <rect class="cls-2" width="354" height="327"/>
      <g>
        <g>
          <g>
            <path class="cls-3" d="M181.83,157.52c-.87,1.05-1.89,1.84-3.06,2.39-1.18.55-2.49.82-3.95.82-1.31,0-2.52-.24-3.64-.71-1.12-.47-2.09-1.12-2.91-1.94-.82-.82-1.46-1.79-1.94-2.91-.47-1.12-.71-2.32-.71-3.62s.24-2.5.71-3.62c.47-1.12,1.12-2.09,1.94-2.91.82-.82,1.79-1.46,2.91-1.94,1.12-.47,2.33-.71,3.64-.71,1.41,0,2.64.25,3.71.74,1.07.49,2.02,1.2,2.86,2.13l-2.33,2.26c-.52-.6-1.12-1.09-1.8-1.45-.68-.36-1.48-.54-2.41-.54-.82,0-1.59.14-2.3.43-.72.29-1.34.69-1.88,1.21-.53.52-.95,1.16-1.26,1.9-.31.74-.47,1.57-.47,2.49s.16,1.74.47,2.49c.31.74.73,1.38,1.26,1.9.53.52,1.16.93,1.88,1.21.72.29,1.49.43,2.3.43.98,0,1.85-.2,2.61-.6.76-.4,1.43-.97,2.02-1.7l2.35,2.23Z"/>
            <path class="cls-3" d="M185.63,146.71c-.28,0-.54-.05-.8-.16-.25-.11-.47-.25-.66-.44-.19-.19-.34-.4-.44-.65-.11-.25-.16-.51-.16-.81s.05-.56.16-.81c.11-.25.25-.46.44-.65.19-.19.41-.33.66-.44.25-.11.52-.16.8-.16.57,0,1.06.2,1.47.6.41.4.61.89.61,1.46s-.2,1.06-.61,1.46c-.41.4-.9.6-1.47.6ZM184.04,160.34v-12.01h3.21v12.01h-3.21Z"/>
            <path class="cls-3" d="M190.19,148.32h3.02v1.67h.2c.15-.29.34-.56.59-.81.25-.25.52-.46.82-.64.3-.18.63-.33.98-.44.35-.11.7-.17,1.04-.17.43,0,.79.05,1.09.14s.56.21.77.35l-.86,2.87c-.2-.1-.41-.18-.65-.23-.24-.06-.53-.09-.87-.09-.44,0-.84.09-1.2.26s-.67.41-.92.73-.45.68-.59,1.1c-.14.42-.21.88-.21,1.37v5.92h-3.21v-12.01Z"/>
            <path class="cls-3" d="M210.84,157.27c-.52,1.01-1.25,1.84-2.19,2.49-.94.65-2.11.97-3.52.97-.93,0-1.79-.16-2.56-.48-.78-.32-1.45-.76-2.01-1.34-.56-.57-1.01-1.25-1.32-2.02-.32-.78-.48-1.63-.48-2.56s.16-1.79.48-2.57.76-1.46,1.32-2.02c.56-.56,1.23-1.01,2.01-1.32.78-.32,1.63-.48,2.56-.48,1.39,0,2.56.32,3.51.96.95.64,1.64,1.46,2.08,2.48l-2.94,1.23c-.28-.56-.63-.98-1.07-1.26-.43-.29-.98-.43-1.63-.43-.43,0-.83.08-1.2.25-.38.16-.71.39-.99.69-.29.29-.51.65-.67,1.08-.16.43-.25.9-.25,1.42s.08,1,.25,1.42c.16.43.39.78.67,1.08.29.29.62.52.99.69.38.16.78.25,1.2.25.67,0,1.24-.15,1.7-.45.47-.3.84-.74,1.12-1.31l2.94,1.27Z"/>
            <path class="cls-3" d="M221.11,158.77h-.2c-.38.61-.88,1.08-1.52,1.43-.64.35-1.37.53-2.18.53-1.52,0-2.65-.47-3.4-1.4-.74-.93-1.12-2.17-1.12-3.73v-7.28h3.21v6.89c0,.87.19,1.51.58,1.92.38.42.94.63,1.68.63.44,0,.83-.09,1.16-.28.33-.19.62-.44.86-.76.24-.32.42-.69.54-1.13.12-.43.18-.89.18-1.39v-5.88h3.21v12.01h-3.02v-1.57Z"/>
            <path class="cls-3" d="M226.87,160.34v-17.56h3.21v17.56h-3.21Z"/>
            <path class="cls-3" d="M240.11,159.06h-.2c-.38.46-.83.85-1.36,1.18-.53.33-1.21.49-2.05.49-.62,0-1.21-.1-1.75-.31-.55-.2-1.03-.49-1.43-.85-.41-.36-.73-.79-.96-1.3-.23-.51-.34-1.06-.34-1.67s.12-1.18.37-1.68c.25-.5.59-.93,1.03-1.29.44-.36.96-.63,1.56-.82.6-.19,1.25-.28,1.95-.28.78,0,1.43.06,1.94.18.51.12.92.25,1.25.38v-.37c0-.64-.25-1.16-.76-1.58-.51-.42-1.14-.63-1.89-.63-1.11,0-2.05.47-2.82,1.4l-2.33-1.59c1.28-1.6,3.02-2.4,5.22-2.4,1.86,0,3.29.44,4.27,1.31.98.87,1.47,2.17,1.47,3.89v7.21h-3.16v-1.27ZM240.11,155.46c-.38-.18-.76-.32-1.16-.43-.4-.11-.84-.16-1.31-.16-.77,0-1.36.17-1.78.5-.42.34-.63.75-.63,1.24s.2.88.6,1.18c.4.29.86.44,1.39.44.43,0,.82-.08,1.18-.23.36-.16.67-.36.92-.61.25-.25.45-.55.59-.88.14-.33.21-.68.21-1.04Z"/>
            <path class="cls-3" d="M245.82,148.32h3.02v1.67h.2c.15-.29.34-.56.59-.81.25-.25.52-.46.82-.64.3-.18.63-.33.98-.44.35-.11.7-.17,1.04-.17.42,0,.79.05,1.09.14.3.09.56.21.77.35l-.86,2.87c-.2-.1-.41-.18-.65-.23-.24-.06-.53-.09-.87-.09-.44,0-.84.09-1.2.26-.36.17-.67.41-.92.73-.25.31-.45.68-.59,1.1-.14.42-.21.88-.21,1.37v5.92h-3.21v-12.01Z"/>
            <path class="cls-3" d="M257.59,146.71c-.28,0-.54-.05-.8-.16-.25-.11-.47-.25-.66-.44-.19-.19-.34-.4-.44-.65-.11-.25-.16-.51-.16-.81s.05-.56.16-.81c.11-.25.25-.46.44-.65.19-.19.41-.33.66-.44.25-.11.52-.16.8-.16.57,0,1.06.2,1.47.6.41.4.61.89.61,1.46s-.2,1.06-.61,1.46c-.41.4-.9.6-1.47.6ZM256,160.34v-12.01h3.21v12.01h-3.21Z"/>
            <path class="cls-3" d="M263.35,151.07h-2.11v-2.75h2.11v-3.68h3.21v3.68h2.94v2.75h-2.94v4.8c0,.29.03.55.09.8.06.24.17.45.33.62.23.27.56.4.98.4.28,0,.5-.03.66-.09.16-.06.32-.13.47-.23l.91,2.82c-.38.18-.78.31-1.21.4-.43.09-.91.13-1.43.13-.6,0-1.15-.1-1.63-.29-.48-.19-.89-.45-1.21-.79-.77-.75-1.15-1.82-1.15-3.2v-5.38Z"/>
            <path class="cls-3" d="M275.76,159.75l-5.05-11.43h3.65l3.04,7.28h.17l2.92-7.28h3.58l-7.53,17.31h-3.46l2.67-5.88Z"/>
          </g>
          <g>
            <path class="cls-3" d="M169.47,184.22h-2.26v-12.01h2.16v1.67h.1c.34-.59.87-1.08,1.58-1.47s1.42-.59,2.12-.59c.88,0,1.66.2,2.33.61.67.41,1.16.97,1.47,1.69,1-1.54,2.38-2.3,4.14-2.3,1.39,0,2.46.43,3.21,1.28.75.85,1.13,2.06,1.13,3.63v7.5h-2.26v-7.16c0-1.13-.2-1.94-.61-2.44-.41-.5-1.1-.75-2.06-.75-.87,0-1.59.37-2.18,1.1-.59.74-.88,1.6-.88,2.6v6.64h-2.26v-7.16c0-1.13-.2-1.94-.61-2.44-.41-.5-1.1-.75-2.06-.75-.87,0-1.59.37-2.18,1.1-.59.74-.88,1.6-.88,2.6v6.64Z"/>
            <path class="cls-3" d="M193.5,184.61c-1.77,0-3.22-.6-4.36-1.81-1.14-1.21-1.72-2.74-1.72-4.58s.56-3.36,1.67-4.57c1.11-1.22,2.53-1.83,4.27-1.83s3.2.58,4.25,1.73c1.05,1.15,1.58,2.77,1.58,4.84l-.02.25h-9.44c.03,1.18.42,2.13,1.18,2.84.75.72,1.65,1.08,2.7,1.08,1.44,0,2.57-.72,3.38-2.16l2.01.98c-.54,1.01-1.29,1.81-2.24,2.38s-2.04.86-3.25.86ZM189.89,176.76h6.89c-.07-.83-.4-1.52-1.02-2.07-.61-.55-1.43-.82-2.46-.82-.85,0-1.58.26-2.19.78-.61.52-1.02,1.23-1.21,2.11Z"/>
            <path class="cls-3" d="M205.63,184.41c-.98,0-1.79-.3-2.44-.91-.65-.6-.98-1.45-.99-2.53v-6.72h-2.11v-2.06h2.11v-3.68h2.26v3.68h2.94v2.06h-2.94v5.98c0,.8.16,1.34.47,1.63.31.29.66.43,1.05.43.18,0,.36-.02.53-.06s.33-.09.48-.16l.71,2.01c-.59.21-1.27.32-2.06.32Z"/>
            <path class="cls-3" d="M211.81,184.22h-2.26v-12.01h2.16v1.96h.1c.23-.64.7-1.18,1.41-1.63.71-.45,1.41-.67,2.1-.67s1.21.1,1.67.29l-.69,2.18c-.28-.11-.72-.17-1.32-.17-.85,0-1.59.34-2.22,1.03-.63.69-.94,1.49-.94,2.4v6.62Z"/>
            <path class="cls-3" d="M221.37,168.06c0,.44-.16.82-.47,1.13-.31.31-.69.47-1.13.47s-.82-.16-1.13-.47c-.31-.31-.47-.69-.47-1.13s.16-.82.47-1.13c.31-.31.69-.47,1.13-.47s.82.16,1.13.47c.31.31.47.69.47,1.13ZM220.91,172.2v12.01h-2.26v-12.01h2.26Z"/>
            <path class="cls-3" d="M229.22,184.61c-1.78,0-3.26-.6-4.44-1.81-1.16-1.24-1.74-2.77-1.74-4.58s.58-3.38,1.74-4.59c1.18-1.21,2.66-1.81,4.44-1.81,1.23,0,2.3.31,3.21.92s1.6,1.46,2.06,2.54l-2.06.86c-.64-1.5-1.76-2.26-3.36-2.26-1.03,0-1.92.42-2.67,1.25-.74.83-1.1,1.86-1.1,3.09s.37,2.26,1.1,3.09c.75.83,1.64,1.25,2.67,1.25,1.65,0,2.81-.75,3.48-2.26l2.01.86c-.44,1.08-1.13,1.92-2.07,2.54-.94.61-2.03.92-3.27.92Z"/>
            <path class="cls-3" d="M245.72,180.88c0,1.05-.46,1.93-1.37,2.65-.92.72-2.07,1.08-3.46,1.08-1.21,0-2.27-.31-3.19-.94s-1.57-1.46-1.96-2.49l2.01-.86c.29.72.72,1.28,1.29,1.68.56.4,1.18.6,1.85.6.72,0,1.32-.16,1.8-.47.48-.31.72-.68.72-1.1,0-.77-.59-1.33-1.77-1.69l-2.06-.51c-2.34-.59-3.51-1.72-3.51-3.38,0-1.09.45-1.97,1.34-2.64.89-.66,2.03-.99,3.42-.99,1.06,0,2.02.25,2.88.76.86.51,1.46,1.19,1.8,2.03l-2.01.83c-.23-.51-.6-.9-1.12-1.19-.51-.29-1.09-.43-1.73-.43-.59,0-1.12.15-1.58.44-.47.29-.7.65-.7,1.08,0,.69.65,1.18,1.94,1.47l1.81.47c2.39.59,3.58,1.79,3.58,3.6Z"/>
          </g>
        </g>
        <g>
          <g>
            <path class="cls-1" d="M92.27,134.11c4.96-4.87,13.5-8.62,23.37-9.03,8.32-.35,16.04,1.88,22.99,6.56,1.8,1.21,2.29,2.81,1.33,4.24-.99,1.48-2.59,1.64-4.41.45-11.52-7.58-25.65-7.51-36.98.16-11.2,7.59-16.55,22.34-12.79,35.3,4.52,15.6,17.98,25.24,34.21,24.29,7.17-.42,13.53-3.08,18.94-7.89.52-.46,1.07-.88,1.61-1.31,1.65-1.32,2.94-1.3,4.14.07,1.11,1.26.95,2.53-.52,4.02-6.09,6.14-13.52,9.6-22.03,10.57-11.01,1.25-20.94-1.6-29.33-8.89-12.18-10.59-16.19-23.95-12.42-39.56,1.57-6.51,5-12.12,11.89-18.97Z"/>
            <path class="cls-4" d="M99.29,142.24c3.61-3.55,9.84-6.28,17.03-6.58,6.06-.25,11.69,1.37,16.75,4.78,1.31.88,1.67,2.05.97,3.09-.72,1.08-1.89,1.2-3.21.32-8.4-5.52-18.69-5.48-26.95.12-8.16,5.53-12.06,16.28-9.32,25.72,3.29,11.37,13.1,18.39,24.93,17.7,5.23-.31,9.86-2.25,13.8-5.75.38-.33.78-.64,1.17-.95,1.2-.96,2.14-.94,3.01.05.81.92.7,1.84-.38,2.93-4.43,4.48-9.85,7-16.05,7.7-8.02.91-15.26-1.16-21.37-6.48-8.88-7.72-11.8-17.45-9.05-28.83,1.15-4.74,3.64-8.83,8.66-13.82Z"/>
          </g>
          <path class="cls-5" d="M83.8,129.92c15.21-15.7,40.55-18.37,59.12-6.1,2.6,1.72,5.11,3.55,7.31,5.78,1.57,1.58,1.73,3.24.45,4.55-1.28,1.32-2.96,1.28-4.58-.31-2.66-2.62-5.63-4.8-8.87-6.63-14.11-7.98-32.32-6.72-45.18,3.13-18.13,13.9-21.63,39.86-7.81,57.98,10.89,14.27,28.71,20.05,45.93,14.77,5.89-1.81,11.13-4.85,15.59-9.16.36-.34.7-.7,1.08-1.01,1.26-1.02,2.98-.99,4.05.06,1.11,1.09,1.16,2.89.04,4.16-1.85,2.09-4.09,3.75-6.36,5.31-9.63,6.62-20.32,9.36-31.92,8.18-9.07-.92-17.26-4.23-24.4-9.91-10.67-8.49-16.73-19.61-18.1-33.16-1.37-13.62,3.52-27.92,13.64-37.62Z"/>
        </g>
      </g>
    </g>
  </g>
</svg>