<?xml version="1.0" encoding="UTF-8"?>
<svg id="Layer_2" data-name="Layer 2" xmlns="http://www.w3.org/2000/svg" viewBox="0 0 354 327">
  <defs>
    <style>
      .cls-1 {
        fill: #f9f9fa;
      }

      .cls-2 {
        fill: #010101;
        font-family: SourceCodePro-Black, 'Source Code Pro';
        font-size: 48.71px;
        font-weight: 800;
      }
    </style>
  </defs>
  <g id="Layer_1-2" data-name="Layer 1">
    <g>
      <rect class="cls-1" width="354" height="327"/>
      <g>
        <text class="cls-2" transform="translate(71.3 181.57)"><tspan x="0" y="0">tl;</tspan></text>
        <g id="AHjl1B">
          <g>
            <path d="M253.73,135.87c16.15,12.41,15.23,48.38-3.94,57.59-7.06,3.39-14.61,2.15-20.53-2.81-14.61-12.24-14.66-41.16-.65-53.9,7.32-6.65,17.3-6.89,25.12-.88ZM250.31,139.53c-.18-.14-.25-.44-.48-.6-10.99-7.54-21.47,1.88-25.01,12.3.62.29,1.22-.6,1.75-.89,14.4-7.97,23.85,13.44,14.29,24.06-4.14,4.59-11.03,5.03-15.8,1.15.78,3.45,3.04,7.16,5.5,9.71,10.97,11.41,23.12,3.19,27.75-9.17,4.35-11.62,2.34-28.84-8-36.56ZM234.09,152.14c-1.69-1.73-5.45.4-4.05,3.21s5.72,1.04,4.85-2.16c-.06-.21-.43-.24-.57-.44-.13-.19-.12-.51-.22-.61Z"/>
            <path d="M203.4,137.29c9.04,8.52,11.31,23.81,8.79,35.58-3.03,14.17-15.91,28.54-31.45,20.04-16.76-9.18-18.28-37.54-7.84-52.02,7.57-10.5,20.76-12.77,30.5-3.59ZM202.67,183.12c8.78-11.9,7.92-35.29-4.86-44.19-11.01-7.67-21.43,2.14-25,12.42.79.16,1.04-.59,1.6-.92,14.08-8.29,24.08,12.94,14.82,23.68-4.09,4.74-11.19,5.55-16.06,1.45-.3.3.06.93.18,1.26,4.79,13.79,19.62,19.45,29.32,6.31ZM182.32,152.39c-2.29-2.39-5.77.86-4.11,3.27,2.13,3.09,6.62-.65,4.11-3.27Z"/>
          </g>
        </g>
      </g>
    </g>
  </g>
</svg>