<?xml version="1.0" encoding="UTF-8"?>
<svg id="Layer_2" data-name="Layer 2" xmlns="http://www.w3.org/2000/svg" viewBox="0 0 354 327">
  <defs>
    <style>
      .cls-1 {
        fill: #f9f9fa;
      }

      .cls-2 {
        fill: #17102e;
      }

      .cls-3 {
        fill: #fff;
      }
    </style>
  </defs>
  <g id="Layer_1-2" data-name="Layer 1">
    <g>
      <rect class="cls-1" width="354" height="327"/>
      <g>
        <rect class="cls-2" x="98.31" y="84.81" width="157.39" height="157.39"/>
        <g>
          <path class="cls-3" d="M128.77,175.99c-2.02-1.26-3.61-3-4.79-5.22-1.17-2.22-1.76-4.73-1.76-7.54s.59-5.33,1.76-7.54c1.17-2.22,2.77-3.96,4.79-5.22,2.02-1.26,4.27-1.89,6.76-1.89,1.95,0,3.69.43,5.24,1.3,1.55.87,2.72,1.93,3.51,3.19h.27l-.27-3.89v-10.87h5.95v38.71h-5.68v-3.57h-.27c-.79,1.23-1.97,2.27-3.51,3.14-1.55.86-3.3,1.3-5.24,1.3-2.49,0-4.74-.63-6.76-1.89ZM140.42,171.29c1.24-.76,2.24-1.84,3-3.24.76-1.41,1.14-3.01,1.14-4.81s-.38-3.4-1.14-4.78c-.76-1.39-1.76-2.46-3-3.22s-2.59-1.13-4.03-1.13-2.79.38-4.06,1.13c-1.26.76-2.27,1.83-3.03,3.22s-1.14,2.98-1.14,4.78.38,3.41,1.14,4.81,1.77,2.49,3.03,3.24c1.26.76,2.61,1.13,4.06,1.13s2.78-.38,4.03-1.13Z"/>
          <path class="cls-3" d="M156.94,149.44h5.68v3.62h.27c.79-1.26,1.96-2.32,3.51-3.19,1.55-.87,3.3-1.3,5.24-1.3,2.49,0,4.74.63,6.76,1.89,2.02,1.26,3.61,3,4.79,5.22,1.17,2.22,1.76,4.73,1.76,7.54s-.59,5.33-1.76,7.54c-1.17,2.22-2.77,3.96-4.79,5.22-2.02,1.26-4.27,1.89-6.76,1.89-1.95,0-3.7-.43-5.24-1.3-1.55-.87-2.72-1.91-3.51-3.14h-.27l.27,3.84v11.41h-5.95v-39.25ZM174.84,171.29c1.26-.76,2.27-1.84,3.03-3.24.76-1.41,1.14-3.01,1.14-4.81s-.38-3.4-1.14-4.78c-.76-1.39-1.77-2.46-3.03-3.22-1.26-.76-2.61-1.13-4.06-1.13s-2.78.38-4.03,1.13c-1.24.76-2.24,1.83-3,3.22-.76,1.39-1.14,2.98-1.14,4.78s.38,3.41,1.14,4.81c.76,1.41,1.76,2.49,3,3.24,1.24.76,2.59,1.13,4.03,1.13s2.79-.38,4.06-1.13Z"/>
          <path class="cls-3" d="M190.08,149.44h5.68v3.62h.27c.83-1.33,2-2.41,3.51-3.24,1.51-.83,3.14-1.24,4.87-1.24,1.98,0,3.71.46,5.19,1.38,1.48.92,2.54,2.14,3.19,3.65.94-1.51,2.19-2.73,3.76-3.65,1.57-.92,3.42-1.38,5.54-1.38,3.17,0,5.58.97,7.22,2.89,1.64,1.93,2.46,4.55,2.46,7.87v17.68h-5.95v-16.65c0-4.18-1.78-6.27-5.35-6.27-1.91,0-3.48.77-4.7,2.32-1.23,1.55-1.84,3.46-1.84,5.73v14.87h-5.95v-16.65c0-4.18-1.84-6.27-5.51-6.27-1.87,0-3.42.77-4.62,2.32-1.21,1.55-1.81,3.46-1.81,5.73v14.87h-5.95v-27.58Z"/>
        </g>
      </g>
    </g>
  </g>
</svg>