<?xml version="1.0" encoding="UTF-8"?>
<svg id="Layer_2" data-name="Layer 2" xmlns="http://www.w3.org/2000/svg" viewBox="0 0 354 327">
  <defs>
    <style>
      .cls-1 {
        fill: #e91d25;
      }

      .cls-2 {
        fill: #fff;
      }
    </style>
  </defs>
  <g id="Layer_1-2" data-name="Layer 1">
    <g>
      <rect class="cls-1" width="354" height="327"/>
      <g id="bcCDs1.tif">
        <g>
          <path class="cls-2" d="M193.12,224.99h-1.81c-11.05-.83-17.71-12.82-12.11-22.59,5.77-10.06,20.55-9.99,26.18.17,5.39,9.74-1.22,21.67-12.26,22.41ZM191.29,200.45c-10.33,1.06-9.62,19.79,1.56,19.01,10.79-.75,10.09-20.21-1.56-19.01Z"/>
          <path class="cls-2" d="M133.64,224.99h-1.7c-11.01-.82-17.7-12.58-12.26-22.41,5.4-9.75,19.46-10.32,25.64-1.03,6.42,9.66-.04,22.67-11.52,23.34l-.17.1ZM131.81,200.45c-9.76,1-9.72,18.33.4,19.01,11.91.8,11.87-20.27-.4-19.01Z"/>
          <path class="cls-2" d="M174.37,102.04c19.75-.53,43.8,4.78,57.33,20.18,13.88,15.8,9.37,34.16-6.34,46.32-25.42,19.67-72.92,19.53-97.83-1-14.91-12.29-18.46-30.15-5.11-45.32,12.45-14.15,33.71-19.69,51.96-20.18ZM173.2,107.25c-8.27.28-25.3,2.48-30.89,9.12-5.96,7.08,6.12,12.01,11.23,13.57,2.32.7,6.23,1.8,8.58,1.96.13,0,.25.04.36-.04.99-5.67,2.31-11.43,5.08-16.52,4.99-9.16,12.4-10.66,18.26-1.2,2.14,3.45,3.62,7.75,4.59,11.69.47,1.91.67,3.94,1.12,5.79.03.12.02.21.17.26.25.08,3.36-.55,3.89-.66,5.06-1.05,14.17-3.7,16.94-8.38,3.63-6.14-5.66-10.43-10.13-11.99-6.95-2.42-14.47-3.23-21.78-3.65l-7.42.04ZM186.1,132.65c-.66-3.59-1.53-7.38-3.28-10.6-4.11-7.57-9.27-5.38-12.31,1.46-1.29,2.9-1.96,6.03-2.5,9.15.69.07,1.39.16,2.08.21,3.51.26,7.02.23,10.53.1,1.83-.07,3.67-.08,5.49-.32ZM130.55,124.09c-.05-.55,0-1.24,0-1.81,0-.02.2-.14.05-.16h-.16c-.5.81-1.14,1.52-1.69,2.31-6.54,9.41-7.39,20.48-1.63,30.53,7.01,12.25,21.67,19.48,35.11,22.13,3.31.65,6.66,1.04,10.02,1.31-5.39-4.91-7.85-12.57-9.21-19.57-.74-3.81-1.09-7.67-1.33-11.54v-5.37c-6.13-.94-12.25-2.4-17.94-4.88-5.1-2.22-12.64-6.81-13.23-12.94ZM223.56,122.22v1.86c0,3.43-3.86,7.41-6.46,9.29-6.99,5.07-16.32,7.21-24.71,8.65.11,7.71-.59,15.58-2.83,22.97-1.5,4.94-3.74,9.98-7.71,13.4,6.57-.34,13.23-1.64,19.42-3.83,11.88-4.2,24.33-12.82,28.28-25.35,3-9.51.46-19.58-5.99-27ZM186.74,142.65l-7.6.43-7.88-.11-3.88-.32c.15,5.55.86,11.35,3.04,16.49,3,7.09,8.37,9.54,12.56,1.6,2.81-5.34,3.56-12.13,3.78-18.09Z"/>
          <path class="cls-2" d="M231.32,224.14l11.54-28.41,7.81.03,11.4,28.39h-6.86l-2.4-6.27-12.07-.02-2.55,6.28h-6.86ZM250.9,212.87l-4.2-11.17-4.2,11.17h8.41Z"/>
          <polygon class="cls-2" points="155.56 195.74 162.53 207.86 169.5 195.74 177.05 195.74 165.67 213.66 165.67 224.14 159.39 224.14 159.39 213.66 148 195.74 155.56 195.74"/>
          <polygon class="cls-2" points="233.13 195.74 233.13 201 232.97 201.16 224.09 201.16 224.09 224.14 217.7 224.14 217.7 201.16 208.82 201.16 208.66 201 208.66 195.74 233.13 195.74"/>
          <polygon class="cls-2" points="116.29 195.74 116.29 201.16 107.35 201.16 107.35 223.98 107.19 224.14 100.97 224.14 100.97 201.16 91.92 201.16 91.92 195.74 116.29 195.74"/>
        </g>
      </g>
    </g>
  </g>
</svg>