<?xml version="1.0" encoding="UTF-8"?>
<svg id="Layer_2" data-name="Layer 2" xmlns="http://www.w3.org/2000/svg" viewBox="0 0 354 327">
  <defs>
    <style>
      .cls-1 {
        fill: #f9f9fa;
      }

      .cls-2 {
        fill: #231f20;
      }
    </style>
  </defs>
  <g id="Layer_1-2" data-name="Layer 1">
    <g>
      <rect class="cls-1" width="354" height="327"/>
      <g>
        <g>
          <path class="cls-2" d="M112.57,149.32h8.32c1.5,0,2.86.31,4.09.94,1.23.63,2.2,1.51,2.9,2.64.7,1.13,1.06,2.43,1.06,3.88s-.35,2.75-1.06,3.9c-.7,1.14-1.67,2.03-2.9,2.66-1.23.63-2.6.94-4.09.94h-3.86v8.68h-4.46v-23.64ZM121.02,160.05c1.1,0,1.96-.32,2.59-.96.63-.64.94-1.41.94-2.31s-.31-1.67-.94-2.29c-.63-.63-1.49-.94-2.59-.94h-3.99v6.5h3.99Z"/>
          <path class="cls-2" d="M132.11,156.12h4.06v2.24h.26c.42-.79,1.07-1.45,1.95-1.96.88-.52,1.85-.78,2.9-.78.77,0,1.47.12,2.11.36v4.32c-.59-.22-1.1-.38-1.5-.48-.41-.1-.84-.15-1.3-.15-1.28,0-2.29.46-3.04,1.39-.75.92-1.12,2.09-1.12,3.5v8.38h-4.32v-16.84Z"/>
          <path class="cls-2" d="M148.62,172.31c-1.37-.78-2.43-1.85-3.19-3.2s-1.14-2.88-1.14-4.57.38-3.19,1.14-4.56,1.82-2.44,3.19-3.22c1.36-.78,2.92-1.17,4.65-1.17s3.26.39,4.62,1.17c1.36.78,2.43,1.85,3.19,3.22s1.14,2.88,1.14,4.56-.38,3.22-1.14,4.57-1.82,2.42-3.19,3.2c-1.37.78-2.91,1.17-4.62,1.17s-3.29-.39-4.65-1.17ZM155.59,168.9c.7-.4,1.27-.97,1.68-1.72.42-.75.63-1.63.63-2.64s-.21-1.86-.63-2.61c-.42-.75-.98-1.32-1.68-1.72-.7-.4-1.47-.59-2.31-.59s-1.61.2-2.31.59c-.7.4-1.27.97-1.7,1.72-.43.75-.64,1.62-.64,2.61s.21,1.87.64,2.62c.43.76,1,1.34,1.7,1.73.7.4,1.47.59,2.31.59s1.61-.2,2.31-.59Z"/>
          <path class="cls-2" d="M168.61,172.35c-1.24-.76-2.22-1.82-2.94-3.17-.72-1.35-1.07-2.9-1.07-4.64s.36-3.26,1.07-4.62c.71-1.36,1.69-2.43,2.94-3.19,1.24-.76,2.62-1.14,4.14-1.14,1.14,0,2.16.25,3.04.74.88.5,1.55,1.11,2.01,1.83h.26l-.26-2.38v-6.47h4.29v23.64h-4.03v-2.01h-.26c-.44.73-1.11,1.33-2,1.82-.89.48-1.91.73-3.05.73-1.52,0-2.9-.38-4.14-1.14ZM175.76,168.86c.7-.42,1.27-1,1.68-1.75.42-.75.63-1.61.63-2.58s-.21-1.83-.63-2.58c-.42-.75-.98-1.33-1.68-1.73-.7-.41-1.46-.61-2.28-.61s-1.54.2-2.25.61c-.7.41-1.27.99-1.68,1.73-.42.75-.63,1.61-.63,2.58s.21,1.83.63,2.58c.42.75.98,1.33,1.68,1.75.7.42,1.45.63,2.25.63s1.57-.21,2.28-.63Z"/>
          <path class="cls-2" d="M187.81,171.6c-1.06-1.25-1.58-3-1.58-5.25v-10.23h4.32v9.71c0,1.14.27,2.04.83,2.69.55.65,1.28.97,2.18.97,1.23,0,2.21-.45,2.94-1.35.73-.9,1.09-2.05,1.09-3.43v-8.58h4.32v16.84h-4.06v-2.11h-.26c-.51.81-1.22,1.46-2.13,1.93-.91.47-1.92.71-3.02.71-2.02,0-3.57-.63-4.62-1.88Z"/>
          <path class="cls-2" d="M209.33,172.35c-1.34-.76-2.39-1.82-3.15-3.19-.76-1.36-1.14-2.9-1.14-4.62s.38-3.25,1.14-4.61,1.81-2.42,3.15-3.19c1.34-.77,2.86-1.16,4.56-1.16,1.87,0,3.48.4,4.82,1.21,1.34.8,2.31,1.94,2.9,3.42l-3.96,1.65c-.7-1.5-1.96-2.25-3.76-2.25-1.32,0-2.4.45-3.25,1.35-.85.9-1.27,2.09-1.27,3.57s.42,2.7,1.27,3.6c.85.9,1.93,1.35,3.25,1.35,1.83,0,3.15-.79,3.96-2.38l3.93,1.72c-.73,1.48-1.76,2.62-3.1,3.43-1.34.81-2.94,1.22-4.79,1.22-1.69,0-3.21-.38-4.56-1.14Z"/>
          <path class="cls-2" d="M229.73,172.84c-.7-.25-1.28-.6-1.72-1.04-1.03-.99-1.55-2.4-1.55-4.23v-7.76h-2.94v-3.7h2.94v-4.75h4.32v4.75h4.13v3.7h-4.13v6.97c0,.86.19,1.47.56,1.85.31.35.84.53,1.58.53.42,0,.76-.05,1.04-.17.27-.11.63-.3,1.07-.56v4.23c-.95.37-1.95.56-3,.56-.84,0-1.61-.13-2.31-.38Z"/>
          <path class="cls-2" d="M243.66,149.32h2.77v20.96h10.37v2.67h-13.14v-23.64Z"/>
          <path class="cls-2" d="M260.46,149.32h2.77v23.64h-2.77v-23.64Z"/>
          <path class="cls-2" d="M268.52,149.32h4.06l7.53,19.38h.13l7.53-19.38h4.06v23.64h-2.77v-15.02l.13-4.49h-.13l-7.72,19.51h-2.31l-7.72-19.51h-.13l.13,4.49v15.02h-2.77v-23.64Z"/>
        </g>
        <g id="ekRhGA.tif">
          <g>
            <polygon points="95.66 147.92 95.66 160.41 85.46 165.56 85.46 152.92 95.66 147.92"/>
            <polygon points="83.01 154.3 83.01 166.78 72.81 171.93 72.81 159.29 83.01 154.3"/>
            <path d="M82.38,151.32c.05.25-.03.17-.14.24-.33.21-.87.47-1.24.67-3.21,1.74-6.48,3.38-9.73,5.04-.27.02-1.41-.63-1.75-.79-3.18-1.59-6.3-3.34-9.45-5l11.12-5.55,11.19,5.4Z"/>
            <polygon points="69.73 159.29 69.73 171.93 59.53 166.78 59.53 154.3 69.73 159.29"/>
            <polygon points="69.73 174.91 69.73 187.55 59.53 182.4 59.53 169.81 69.73 174.91"/>
            <polygon points="85.46 181.18 85.46 168.53 95.66 163.44 95.66 176.02 85.46 181.18"/>
            <polygon points="72.81 187.55 72.81 174.91 83.01 169.81 83.01 182.4 72.81 187.55"/>
            <path d="M73.88,144.73l.14-.24,10.24-5.05,11.19,5.13-10.36,5.47c-3.77-1.66-7.44-3.62-11.2-5.32Z"/>
          </g>
        </g>
      </g>
    </g>
  </g>
</svg>