<?xml version="1.0" encoding="UTF-8"?>
<svg id="Layer_2" data-name="Layer 2" xmlns="http://www.w3.org/2000/svg" viewBox="0 0 354 327">
  <defs>
    <style>
      .cls-1 {
        fill: #f9f9fa;
      }

      .cls-2 {
        fill: none;
        stroke: #000;
        stroke-miterlimit: 10;
        stroke-width: 7.52px;
      }
    </style>
  </defs>
  <g id="Layer_1-2" data-name="Layer 1">
    <g>
      <rect class="cls-1" width="354" height="327"/>
      <g>
        <g>
          <g>
            <path class="cls-2" d="M222.91,118.61h11.27c6.89,0,12.52,5.63,12.52,12.52v11.27"/>
            <path class="cls-2" d="M107.29,142.41v-11.27c0-6.89,5.63-12.52,12.52-12.52h11.27"/>
          </g>
          <g>
            <path class="cls-2" d="M131.09,188.56h-11.27c-6.89,0-12.52-5.63-12.52-12.52v-11.27"/>
            <path class="cls-2" d="M246.71,164.77v11.27c0,6.89-5.63,12.52-12.52,12.52h-11.27"/>
          </g>
          <g>
            <path d="M164.83,142.05l-11.29,26.09h-5.96l-11.25-26.09h6.52l7.94,18.63,8.05-18.63h6Z"/>
            <path d="M164.94,165.56l2.05-4.55c2.2,1.6,5.48,2.72,8.61,2.72,3.58,0,5.03-1.19,5.03-2.79,0-4.88-15.17-1.53-15.17-11.22,0-4.43,3.58-8.12,10.99-8.12,3.28,0,6.63.78,9.06,2.31l-1.86,4.58c-2.42-1.38-4.92-2.05-7.23-2.05-3.58,0-4.96,1.34-4.96,2.98,0,4.81,15.17,1.49,15.17,11.07,0,4.36-3.62,8.09-11.07,8.09-4.14,0-8.31-1.23-10.62-3.02Z"/>
            <path d="M189.13,155.09c0-7.75,6.04-13.49,14.27-13.49s14.27,5.7,14.27,13.49-6.07,13.49-14.27,13.49-14.27-5.74-14.27-13.49ZM211.57,155.09c0-4.96-3.5-8.35-8.16-8.35s-8.16,3.39-8.16,8.35,3.5,8.35,8.16,8.35,8.16-3.39,8.16-8.35Z"/>
          </g>
        </g>
        <g>
          <path d="M178,203.12h-11.19l-2.32,5.27h-3.1l9.54-21.06h2.98l9.57,21.06h-3.16l-2.32-5.27ZM176.94,200.71l-4.54-10.32-4.54,10.32h9.09Z"/>
          <path d="M186.6,187.33h3.01v21.06h-3.01v-21.06Z"/>
        </g>
      </g>
    </g>
  </g>
</svg>