<?xml version="1.0" encoding="UTF-8"?>
<svg id="Layer_2" data-name="Layer 2" xmlns="http://www.w3.org/2000/svg" viewBox="0 0 354 327">
  <defs>
    <style>
      .cls-1 {
        fill: #010101;
      }

      .cls-2 {
        fill: #f9f9fa;
      }
    </style>
  </defs>
  <g id="Layer_1-2" data-name="Layer 1">
    <g>
      <rect class="cls-2" width="354" height="327"/>
      <g>
        <g>
          <path class="cls-1" d="M127.69,152.89h8.29c1.4,0,2.7.31,3.89.94,1.19.62,2.14,1.49,2.84,2.61.7,1.11,1.05,2.37,1.05,3.78s-.35,2.66-1.05,3.78c-.7,1.11-1.65,1.98-2.84,2.61-1.19.62-2.49.94-3.89.94h-4.55v9.29h-3.74v-23.93ZM136.05,163.99c.82,0,1.54-.18,2.14-.55.6-.37,1.06-.84,1.37-1.42.31-.58.47-1.18.47-1.8s-.16-1.23-.47-1.81c-.31-.58-.77-1.05-1.37-1.4-.6-.36-1.31-.53-2.14-.53h-4.61v7.52h4.61Z"/>
          <path class="cls-1" d="M147.14,152.89h3.68v6.52l-.17,2.61h.17c.49-.8,1.22-1.46,2.19-1.99.97-.52,2.01-.78,3.13-.78,2.07,0,3.65.61,4.75,1.82,1.09,1.22,1.64,2.87,1.64,4.96v10.8h-3.68v-10.29c0-1.29-.34-2.26-1.02-2.91-.68-.65-1.57-.97-2.66-.97-.82,0-1.57.23-2.22.7-.66.47-1.18,1.09-1.55,1.86-.38.77-.57,1.59-.57,2.46v9.16h-3.68v-23.93Z"/>
          <path class="cls-1" d="M170.07,176.17c-1.36-.79-2.42-1.88-3.18-3.26-.76-1.38-1.14-2.92-1.14-4.61s.38-3.23,1.14-4.61c.76-1.38,1.82-2.47,3.18-3.26,1.36-.79,2.9-1.19,4.61-1.19s3.25.4,4.61,1.2c1.36.8,2.42,1.89,3.18,3.28.76,1.38,1.14,2.91,1.14,4.58s-.38,3.23-1.14,4.61c-.76,1.38-1.82,2.47-3.18,3.26-1.36.79-2.9,1.19-4.61,1.19s-3.25-.4-4.61-1.19ZM177.29,173.3c.8-.46,1.44-1.11,1.92-1.97.48-.86.72-1.87.72-3.02s-.24-2.16-.72-3.01c-.48-.85-1.12-1.5-1.92-1.96-.8-.46-1.67-.68-2.61-.68s-1.8.23-2.61.68c-.8.46-1.44,1.11-1.92,1.96-.48.85-.72,1.85-.72,3.01s.24,2.17.72,3.02c.48.86,1.12,1.52,1.92,1.97.8.46,1.67.69,2.61.69s1.81-.23,2.61-.69Z"/>
          <path class="cls-1" d="M191.33,176.73c-.67-.25-1.22-.57-1.64-.97-.96-.96-1.44-2.26-1.44-3.91v-8.82h-2.97v-3.24h2.97v-4.81h3.68v4.81h4.14v3.24h-4.14v8.02c0,.91.18,1.56.53,1.94.33.45.91.67,1.74.67.38,0,.71-.05,1-.15.29-.1.6-.26.94-.49v3.58c-.74.33-1.63.5-2.67.5-.76,0-1.47-.12-2.14-.37Z"/>
          <path class="cls-1" d="M202.29,176.17c-1.36-.79-2.42-1.88-3.18-3.26-.76-1.38-1.14-2.92-1.14-4.61s.38-3.23,1.14-4.61c.76-1.38,1.82-2.47,3.18-3.26,1.36-.79,2.9-1.19,4.61-1.19s3.25.4,4.61,1.2c1.36.8,2.42,1.89,3.18,3.28.76,1.38,1.14,2.91,1.14,4.58s-.38,3.23-1.14,4.61c-.76,1.38-1.82,2.47-3.18,3.26-1.36.79-2.9,1.19-4.61,1.19s-3.25-.4-4.61-1.19ZM209.51,173.3c.8-.46,1.44-1.11,1.92-1.97.48-.86.72-1.87.72-3.02s-.24-2.16-.72-3.01c-.48-.85-1.12-1.5-1.92-1.96-.8-.46-1.67-.68-2.61-.68s-1.8.23-2.61.68c-.8.46-1.44,1.11-1.92,1.96-.48.85-.72,1.85-.72,3.01s.24,2.17.72,3.02c.48.86,1.12,1.52,1.92,1.97.8.46,1.67.69,2.61.69s1.81-.23,2.61-.69Z"/>
          <path class="cls-1" d="M224.66,175.72c-1.89-1.09-3.38-2.59-4.46-4.5-1.08-1.91-1.62-4.03-1.62-6.37s.54-4.46,1.62-6.37c1.08-1.91,2.57-3.4,4.46-4.5,1.89-1.09,4-1.64,6.32-1.64,1.78,0,3.41.34,4.9,1.02,1.48.68,2.77,1.64,3.86,2.89l-2.04,1.97c-.91-1.09-1.91-1.89-2.99-2.41s-2.32-.77-3.73-.77c-1.74,0-3.33.41-4.78,1.22-1.45.81-2.6,1.96-3.46,3.44-.86,1.48-1.29,3.19-1.29,5.13s.43,3.65,1.29,5.13c.86,1.48,2.01,2.63,3.46,3.44,1.45.81,3.04,1.22,4.78,1.22,2.9,0,5.36-1.19,7.39-3.58l2.07,2.01c-1.11,1.32-2.49,2.36-4.11,3.13-1.63.77-3.41,1.15-5.35,1.15-2.32,0-4.42-.55-6.32-1.64Z"/>
          <path class="cls-1" d="M243.61,152.89h2.84v7.05l-.13,2.34h.13c.47-.87,1.21-1.59,2.22-2.17s2.12-.87,3.33-.87c2.07,0,3.65.61,4.75,1.82,1.09,1.22,1.64,2.83,1.64,4.83v10.93h-2.84v-10.5c0-1.54-.39-2.67-1.17-3.41s-1.79-1.1-3.04-1.1c-.89,0-1.71.27-2.46.8-.75.53-1.34,1.23-1.77,2.07s-.65,1.73-.65,2.64v9.49h-2.84v-23.93Z"/>
          <path class="cls-1" d="M264.4,176.63c-.98-.49-1.74-1.16-2.27-2.02-.53-.86-.8-1.83-.8-2.92,0-1.8.68-3.21,2.04-4.23,1.36-1.01,3.08-1.52,5.15-1.52,1.02,0,1.98.11,2.86.33.88.22,1.56.48,2.02.77v-1.04c0-1.27-.45-2.29-1.34-3.06-.89-.77-2.02-1.15-3.38-1.15-.96,0-1.84.21-2.64.62s-1.44.99-1.91,1.72l-2.14-1.6c.67-1.02,1.59-1.83,2.76-2.41,1.17-.58,2.47-.87,3.89-.87,2.32,0,4.14.61,5.46,1.82,1.33,1.22,1.99,2.87,1.99,4.96v10.8h-2.71v-2.44h-.13c-.49.82-1.23,1.53-2.21,2.11-.98.58-2.08.87-3.31.87s-2.36-.25-3.34-.74ZM270.68,174.12c.82-.49,1.48-1.15,1.97-1.97.49-.82.74-1.73.74-2.71-.53-.36-1.19-.65-1.97-.87-.78-.22-1.6-.33-2.47-.33-1.56,0-2.74.32-3.53.97-.79.65-1.19,1.48-1.19,2.51,0,.94.36,1.69,1.07,2.27.71.58,1.62.87,2.71.87.96,0,1.85-.24,2.67-.74Z"/>
          <path class="cls-1" d="M284.34,176.76c-.59-.22-1.09-.52-1.49-.9-.45-.42-.78-.91-1-1.47-.22-.56-.33-1.24-.33-2.04v-9.99h-2.97v-2.57h2.97v-4.81h2.84v4.81h4.15v2.57h-4.15v9.29c0,.94.18,1.63.54,2.07.42.49,1.04.74,1.84.74.65,0,1.27-.19,1.87-.57v2.77c-.33.16-.67.27-1.02.33s-.78.1-1.32.1c-.69,0-1.33-.11-1.92-.33Z"/>
        </g>
        <g>
          <path class="cls-1" d="M108.36,156.01h4.13c1.79,0,3.24,1.57,3.24,3.5v10.02s0,3.96,0,3.96c0,1.93-1.45,3.49-3.24,3.49h-2.59c-.22,0-.43.13-.55.33s-.13.46-.03.68l1.64,3.53-7.21-4.45c-.1-.06-.21-.09-.32-.09h-12.96c-1.79,0-3.24-1.57-3.24-3.49h-1.3c0,2.7,2.03,4.89,4.54,4.89h12.79s8.92,5.5,8.92,5.5c.1.06.21.09.32.09.16,0,.32-.07.45-.19.21-.21.26-.55.13-.82l-2.12-4.58h1.54c2.5,0,4.54-2.19,4.54-4.89v-13.98c0-2.7-2.03-4.89-4.54-4.89h-4.15s.02,1.4.02,1.4Z"/>
          <g>
            <path class="cls-1" d="M102.8,143.03h-31.01c-3.52,0-6.38,2.86-6.38,6.38v18.24c0,3.52,2.86,6.38,6.38,6.38h2.17l-2.99,5.98c-.18.36-.1.8.19,1.07.17.16.4.25.63.25.16,0,.31-.04.45-.12l12.56-7.18h18c3.52,0,6.38-2.86,6.38-6.38v-18.24c0-3.52-2.86-6.38-6.38-6.38ZM107.35,167.65c0,2.51-2.05,4.56-4.56,4.56h-18.24c-.16,0-.31.04-.45.12l-10.15,5.8,2.3-4.6c.14-.28.13-.62-.04-.89s-.46-.43-.78-.43h-3.65c-2.51,0-4.56-2.05-4.56-4.56v-18.24c0-2.51,2.05-4.56,4.56-4.56h0s31.01,0,31.01,0c2.51,0,4.56,2.05,4.56,4.56v18.24ZM107.35,163.63v4.02c0,2.51-2.05,4.56-4.56,4.56h-18.24c-.16,0-.31.04-.45.12l-10.15,5.8,2.3-4.6c.14-.28.13-.62-.04-.89s-.46-.43-.78-.43h-3.65c-2.51,0-4.56-2.05-4.56-4.56v-2.84l14.07-12.46,9.36,6.5,4.87-3.87,11.82,8.64Z"/>
            <circle class="cls-1" cx="100.57" cy="150.55" r="3.12"/>
          </g>
        </g>
      </g>
    </g>
  </g>
</svg>