<?xml version="1.0" encoding="UTF-8"?>
<svg id="Layer_2" data-name="Layer 2" xmlns="http://www.w3.org/2000/svg" viewBox="0 0 354 327">
  <defs>
    <style>
      .cls-1 {
        fill: #010101;
      }

      .cls-2 {
        fill: #f9f9fa;
      }

      .cls-3 {
        fill: #00a651;
      }

      .cls-4 {
        fill: #fff;
        stroke: #000;
        stroke-miterlimit: 10;
      }
    </style>
  </defs>
  <g id="Layer_1-2" data-name="Layer 1">
    <rect class="cls-2" width="354" height="327"/>
    <g>
      <rect class="cls-3" x="101.47" y="151.27" width="168.9" height="52.44"/>
      <g>
        <rect class="cls-4" x="93.63" y="143.29" width="168.9" height="52.44"/>
        <g>
          <polygon class="cls-1" points="245.78 168.62 240.56 168.62 238.31 164.89 238.22 164.89 235.95 168.62 230.97 168.62 235.54 162.32 231.42 156.74 236.69 156.74 238.58 159.89 238.67 159.89 240.56 156.74 245.51 156.74 241.32 162.44 245.78 168.62"/>
          <polygon class="cls-1" points="111.92 163.36 111.92 181.95 127.43 181.95 127.43 177.2 117.89 177.2 117.89 163.36 111.92 163.36"/>
          <polygon class="cls-1" points="130.22 163.36 130.22 181.95 146.48 181.95 146.48 177.49 136.19 177.49 136.19 174.66 144.83 174.66 144.83 170.39 136.19 170.39 136.19 167.82 146.29 167.82 146.29 163.36 130.22 163.36"/>
          <path class="cls-1" d="M167.25,172.66c0,6.2-3.25,9.29-9.75,9.29h-8.05v-18.59h8.05c6.5,0,9.75,3.1,9.75,9.29M155.42,177.49h1.97c2.5,0,3.76-1.34,3.76-4.03v-1.62c0-2.68-1.25-4.03-3.76-4.03h-1.97v9.67Z"/>
          <path class="cls-1" d="M179.27,163.04c1.78,0,3.39.27,4.81.81"/>
          <path class="cls-1" d="M184.08,163.85c1.42.54,2.55,1.34,3.39,2.39.84,1.05,1.26,2.34,1.26,3.85h-5.7c0-.77-.34-1.4-1.03-1.88-.68-.48-1.51-.72-2.49-.72-1.4,0-2.47.37-3.19,1.12-.72.75-1.08,1.81-1.08,3.17v1.73c0,1.37.36,2.43,1.08,3.17.72.75,1.78,1.12,3.19,1.12.97,0,1.8-.23,2.49-.69.68-.46,1.03-1.05,1.03-1.77h-4.21v-3.78h9.91v10.37h-3.08l-.6-1.84c-1.69,1.44-3.91,2.16-6.65,2.16-3.08,0-5.39-.81-6.94-2.42-1.55-1.61-2.32-4.01-2.32-7.2s.88-5.54,2.63-7.17c1.76-1.63,4.26-2.44,7.5-2.44"/>
          <polygon class="cls-1" points="191.87 163.36 207.95 163.36 207.95 167.82 197.85 167.82 197.85 170.39 206.49 170.39 206.49 174.66 197.85 174.66 197.85 177.49 208.14 177.49 208.14 181.95 191.87 181.95 191.87 163.36"/>
          <path class="cls-1" d="M227.83,172.14c-.61.92-1.5,1.59-2.67,2.03l4.13,7.78h-6.7l-3.3-6.78h-2.21v6.78h-5.97v-18.59h11.37c1.33,0,2.47.26,3.42.77.95.51,1.66,1.21,2.13,2.08.48.87.72,1.82.72,2.85,0,1.13-.31,2.16-.92,3.08M222.18,168.09c-.32-.32-.72-.49-1.19-.49h-3.92v3.43h3.92c.47,0,.87-.17,1.19-.5.32-.33.49-.74.49-1.23s-.16-.89-.49-1.22"/>
        </g>
      </g>
    </g>
  </g>
</svg>