<?xml version="1.0" encoding="UTF-8"?>
<svg id="Layer_2" data-name="Layer 2" xmlns="http://www.w3.org/2000/svg" viewBox="0 0 354 327">
  <defs>
    <style>
      .cls-1 {
        fill: #992b46;
      }

      .cls-2 {
        fill: #296b9d;
      }

      .cls-3 {
        fill: #d83d47;
      }

      .cls-4 {
        fill: #f9f9fa;
      }

      .cls-5 {
        fill: #eda248;
      }

      .cls-6 {
        fill: #231f20;
      }

      .cls-7 {
        fill: #71b855;
      }

      .cls-8 {
        fill: #bb903f;
      }

      .cls-9 {
        fill: #d0336c;
      }

      .cls-10 {
        fill: #d9ab4f;
      }

      .cls-11 {
        fill: #f4c549;
      }

      .cls-12 {
        fill: #ba3639;
      }

      .cls-13 {
        fill: #59bee4;
      }

      .cls-14 {
        fill: #61a251;
      }

      .cls-15 {
        fill: #fff;
      }

      .cls-16 {
        fill: #e57340;
      }

      .cls-17 {
        fill: #df513a;
      }

      .cls-18 {
        fill: #4594ce;
      }

      .cls-19 {
        fill: #204969;
      }

      .cls-20 {
        fill: #51804d;
      }
    </style>
  </defs>
  <g id="Layer_1-2" data-name="Layer 1">
    <rect class="cls-4" width="354" height="327"/>
    <g>
      <path class="cls-15" d="M208.06,163.5s-.09,0-.13,0"/>
      <g>
        <path class="cls-6" d="M146.91,155.56l-2.02,2.34c-1.42-1.16-2.8-1.68-4.42-1.68-1.73,0-2.92.75-2.92,2.17s.75,1.96,4.01,2.98c3.61,1.16,5.92,2.66,5.92,6.35s-2.89,6.24-7.74,6.24c-3.32,0-5.75-1.18-7.39-2.8l2.17-2.4c1.47,1.24,3.06,1.99,5.11,1.99s3.44-.98,3.44-2.74c0-1.59-.78-2.28-3.81-3.21-4.33-1.36-6.07-3.09-6.07-6.12,0-3.41,2.95-5.63,6.99-5.63,2.97,0,5,.9,6.73,2.51Z"/>
        <path class="cls-6" d="M165.94,163.41c0,8.06-4.91,10.08-9.82,10.08h-5.72v-19.99h5.23c5.29,0,10.31,1.65,10.31,9.91ZM154.65,156.63v13.75h1.73c2.92,0,5.14-1.36,5.14-6.96s-2.34-6.79-5.23-6.79h-1.65Z"/>
        <path class="cls-6" d="M184.05,155.44l-2.22,2.31c-1.36-1.04-2.48-1.56-4.13-1.56-2.83,0-5.08,2.11-5.08,7.31s1.5,7.28,4.45,7.28c1.07,0,2.08-.23,2.98-.72v-4.88h-2.8l-.43-3.09h7.37v9.85c-2.02,1.24-4.48,2.02-7.02,2.02-5.89,0-8.98-3.61-8.98-10.49s4.19-10.43,9.36-10.43c2.86,0,4.85.98,6.53,2.4Z"/>
        <path class="cls-6" d="M198.84,170.29h6.79l-.46,3.21h-10.43v-16.38h4.1v13.17Z"/>
        <path class="cls-6" d="M218.39,160h-6.12v3.7h5.34v2.86h-5.34v4.01h6.53v2.92h-10.63v-16.38h10.63l-.4,2.89Z"/>
        <path class="cls-6" d="M235.9,165.2c0,6.61-4.19,8.29-8.61,8.29h-5.2v-16.38h4.82c4.62,0,8.98,1.36,8.98,8.09ZM226.19,160.03v10.51h1.39c2.46,0,4.1-1.1,4.1-5.34s-1.76-5.17-4.19-5.17h-1.3Z"/>
        <path class="cls-6" d="M252.22,158.76l-2.17,2.22c-1.1-.87-2.05-1.3-3.47-1.3-2.4,0-4.22,1.7-4.22,5.6,0,4.25,1.21,5.66,3.58,5.66.9,0,1.68-.17,2.4-.52v-3.55h-2.25l-.4-2.86h6.59v8.12c-1.73,1.13-3.99,1.76-6.27,1.76-5.23,0-7.89-3-7.89-8.64s3.67-8.52,8.26-8.52c2.51,0,4.39.87,5.83,2.02Z"/>
        <path class="cls-6" d="M266.05,160h-6.12v3.7h5.34v2.86h-5.34v4.01h6.53v2.92h-10.63v-16.38h10.63l-.4,2.89Z"/>
        <path class="cls-6" d="M275.47,167.31h-1.62v6.18h-4.1v-16.38h5.66c4.74,0,7.13,1.68,7.13,4.97,0,2.17-1.04,3.58-3.29,4.53l4.39,6.87h-4.62l-3.55-6.18ZM273.85,164.51h1.73c1.79,0,2.77-.69,2.77-2.37,0-1.5-.95-2.2-2.92-2.2h-1.59v4.56Z"/>
      </g>
      <g>
        <rect class="cls-12" x="78.12" y="141.51" width="2.59" height="43.99"/>
        <g>
          <rect class="cls-3" x="70.36" y="141.51" width="2.59" height="43.99"/>
          <rect class="cls-10" x="72.94" y="141.51" width="2.59" height="43.99"/>
          <rect class="cls-14" x="75.53" y="141.51" width="2.59" height="43.99"/>
          <rect class="cls-17" x="80.7" y="141.51" width="2.59" height="43.99"/>
          <rect class="cls-13" x="83.29" y="141.51" width="2.59" height="43.99"/>
          <rect class="cls-11" x="85.88" y="141.51" width="2.59" height="43.99"/>
          <rect class="cls-1" x="88.47" y="141.51" width="2.59" height="43.99"/>
          <rect class="cls-16" x="91.05" y="141.51" width="2.59" height="43.99"/>
          <rect class="cls-9" x="93.64" y="141.51" width="2.59" height="43.99"/>
          <rect class="cls-5" x="96.23" y="141.51" width="2.59" height="43.99"/>
          <rect class="cls-8" x="98.82" y="141.51" width="2.59" height="43.99"/>
          <rect class="cls-20" x="101.4" y="141.51" width="2.59" height="43.99"/>
          <rect class="cls-18" x="103.99" y="141.51" width="2.59" height="43.99"/>
          <rect class="cls-7" x="106.58" y="141.51" width="2.59" height="43.99"/>
          <rect class="cls-2" x="109.17" y="141.51" width="2.59" height="43.99"/>
          <rect class="cls-19" x="111.75" y="141.51" width="2.59" height="43.99"/>
        </g>
      </g>
    </g>
  </g>
</svg>