<?xml version="1.0" encoding="UTF-8"?>
<svg id="Layer_2" data-name="Layer 2" xmlns="http://www.w3.org/2000/svg" viewBox="0 0 354 327">
  <defs>
    <style>
      .cls-1 {
        fill: #010101;
      }

      .cls-2 {
        fill: #f9f9fa;
      }
    </style>
  </defs>
  <g id="Layer_1-2" data-name="Layer 1">
    <rect class="cls-2" width="354" height="327"/>
    <g>
      <g>
        <path class="cls-1" d="M129.79,153.35h7.94c1.34,0,2.59.3,3.73.9,1.14.6,2.05,1.43,2.72,2.5.67,1.07,1.01,2.27,1.01,3.62s-.34,2.55-1.01,3.62c-.67,1.07-1.58,1.9-2.72,2.5-1.14.6-2.38.9-3.73.9h-4.35v8.9h-3.58v-22.91ZM137.79,163.97c.79,0,1.47-.18,2.05-.53.58-.35,1.01-.81,1.31-1.36.3-.55.45-1.13.45-1.73s-.15-1.17-.45-1.73c-.3-.55-.74-1-1.31-1.34-.58-.34-1.26-.51-2.05-.51h-4.42v7.2h4.42Z"/>
        <path class="cls-1" d="M148.42,153.35h3.52v6.24l-.16,2.5h.16c.47-.77,1.17-1.4,2.1-1.9.93-.5,1.93-.75,2.99-.75,1.98,0,3.5.58,4.54,1.74,1.04,1.16,1.57,2.75,1.57,4.75v10.34h-3.52v-9.86c0-1.24-.33-2.17-.98-2.78-.65-.62-1.5-.93-2.54-.93-.79,0-1.5.22-2.13.67-.63.45-1.13,1.04-1.49,1.78-.36.74-.54,1.52-.54,2.35v8.77h-3.52v-22.91Z"/>
        <path class="cls-1" d="M170.37,175.63c-1.3-.76-2.32-1.8-3.04-3.12-.73-1.32-1.09-2.79-1.09-4.42s.36-3.09,1.09-4.42c.72-1.32,1.74-2.36,3.04-3.12,1.3-.76,2.77-1.14,4.42-1.14s3.11.38,4.42,1.15c1.3.77,2.31,1.81,3.04,3.14.72,1.32,1.09,2.78,1.09,4.38s-.36,3.09-1.09,4.42c-.73,1.32-1.74,2.36-3.04,3.12-1.3.76-2.77,1.14-4.42,1.14s-3.12-.38-4.42-1.14ZM177.28,172.88c.77-.44,1.38-1.07,1.84-1.89.46-.82.69-1.79.69-2.9s-.23-2.07-.69-2.88c-.46-.81-1.07-1.43-1.84-1.87-.77-.44-1.6-.66-2.5-.66s-1.73.22-2.5.66c-.77.44-1.38,1.06-1.84,1.87-.46.81-.69,1.77-.69,2.88s.23,2.07.69,2.9c.46.82,1.07,1.45,1.84,1.89.77.44,1.6.66,2.5.66s1.73-.22,2.5-.66Z"/>
        <path class="cls-1" d="M190.72,176.16c-.64-.23-1.16-.54-1.57-.93-.92-.92-1.38-2.17-1.38-3.74v-8.45h-2.85v-3.1h2.85v-4.61h3.52v4.61h3.97v3.1h-3.97v7.68c0,.87.17,1.49.51,1.86.32.43.87.64,1.66.64.36,0,.68-.05.96-.14.28-.1.58-.25.9-.46v3.42c-.7.32-1.56.48-2.56.48-.73,0-1.41-.12-2.05-.35Z"/>
        <path class="cls-1" d="M201.22,175.63c-1.3-.76-2.32-1.8-3.04-3.12-.73-1.32-1.09-2.79-1.09-4.42s.36-3.09,1.09-4.42c.72-1.32,1.74-2.36,3.04-3.12,1.3-.76,2.77-1.14,4.42-1.14s3.11.38,4.42,1.15c1.3.77,2.31,1.81,3.04,3.14.72,1.32,1.09,2.78,1.09,4.38s-.36,3.09-1.09,4.42c-.73,1.32-1.74,2.36-3.04,3.12-1.3.76-2.77,1.14-4.42,1.14s-3.12-.38-4.42-1.14ZM208.13,172.88c.77-.44,1.38-1.07,1.84-1.89.46-.82.69-1.79.69-2.9s-.23-2.07-.69-2.88c-.46-.81-1.07-1.43-1.84-1.87-.77-.44-1.6-.66-2.5-.66s-1.73.22-2.5.66c-.77.44-1.38,1.06-1.84,1.87-.46.81-.69,1.77-.69,2.88s.23,2.07.69,2.9c.46.82,1.07,1.45,1.84,1.89.77.44,1.6.66,2.5.66s1.73-.22,2.5-.66Z"/>
        <path class="cls-1" d="M222.62,175.2c-1.81-1.04-3.24-2.48-4.27-4.3-1.03-1.82-1.55-3.86-1.55-6.1s.52-4.27,1.55-6.1c1.03-1.82,2.46-3.26,4.27-4.3,1.81-1.04,3.83-1.57,6.05-1.57,1.71,0,3.27.33,4.69.98,1.42.65,2.65,1.57,3.7,2.77l-1.95,1.89c-.87-1.04-1.83-1.81-2.86-2.3s-2.22-.74-3.57-.74c-1.66,0-3.19.39-4.58,1.17-1.39.78-2.49,1.88-3.31,3.3-.82,1.42-1.23,3.06-1.23,4.91s.41,3.49,1.23,4.91c.82,1.42,1.92,2.52,3.31,3.3,1.39.78,2.91,1.17,4.58,1.17,2.77,0,5.13-1.14,7.07-3.42l1.98,1.92c-1.07,1.26-2.38,2.26-3.94,2.99-1.56.74-3.26,1.1-5.12,1.1-2.22,0-4.23-.52-6.05-1.57Z"/>
        <path class="cls-1" d="M240.77,153.35h2.72v6.75l-.13,2.24h.13c.45-.83,1.16-1.53,2.13-2.08.97-.55,2.03-.83,3.18-.83,1.98,0,3.5.58,4.54,1.74,1.04,1.16,1.57,2.7,1.57,4.62v10.46h-2.72v-10.05c0-1.47-.37-2.56-1.12-3.26-.75-.7-1.72-1.06-2.91-1.06-.85,0-1.64.26-2.35.77-.72.51-1.28,1.17-1.7,1.98s-.62,1.65-.62,2.53v9.09h-2.72v-22.91Z"/>
        <path class="cls-1" d="M260.67,176.07c-.94-.47-1.66-1.11-2.18-1.94-.51-.82-.77-1.75-.77-2.8,0-1.73.65-3.08,1.95-4.05s2.94-1.46,4.93-1.46c.98,0,1.89.11,2.74.32.84.21,1.49.46,1.94.74v-.99c0-1.22-.43-2.19-1.28-2.93-.85-.74-1.93-1.1-3.23-1.1-.92,0-1.76.2-2.53.59s-1.38.94-1.82,1.65l-2.05-1.54c.64-.98,1.52-1.75,2.64-2.3,1.12-.55,2.36-.83,3.73-.83,2.22,0,3.96.58,5.23,1.74,1.27,1.16,1.9,2.75,1.9,4.75v10.34h-2.59v-2.34h-.13c-.47.79-1.17,1.46-2.11,2.02-.94.55-1.99.83-3.17.83s-2.26-.23-3.2-.7ZM266.68,173.67c.79-.47,1.42-1.1,1.89-1.89.47-.79.7-1.65.7-2.59-.51-.34-1.14-.62-1.89-.83-.75-.21-1.54-.32-2.37-.32-1.49,0-2.62.31-3.38.93-.76.62-1.14,1.42-1.14,2.4,0,.9.34,1.62,1.02,2.18.68.55,1.55.83,2.59.83.92,0,1.77-.23,2.56-.7Z"/>
        <path class="cls-1" d="M279.76,176.19c-.57-.21-1.04-.5-1.42-.86-.43-.4-.75-.87-.96-1.41-.21-.53-.32-1.18-.32-1.95v-9.57h-2.85v-2.46h2.85v-4.61h2.72v4.61h3.97v2.46h-3.97v8.9c0,.9.17,1.56.51,1.98.41.47.99.7,1.76.7.62,0,1.22-.18,1.79-.54v2.66c-.32.15-.65.26-.98.32s-.75.1-1.26.1c-.66,0-1.27-.11-1.84-.32Z"/>
      </g>
      <g>
        <path class="cls-1" d="M111.29,156.33h3.96c1.71,0,3.1,1.5,3.1,3.35v9.6s0,3.79,0,3.79c0,1.84-1.39,3.35-3.1,3.35h-2.48c-.21,0-.41.12-.53.32s-.12.44-.03.65l1.57,3.38-6.91-4.26c-.09-.06-.2-.09-.31-.09h-12.41c-1.71,0-3.1-1.5-3.1-3.35h-1.24c0,2.58,1.95,4.69,4.34,4.69h12.24s8.54,5.26,8.54,5.26c.1.06.2.09.31.09.16,0,.31-.06.43-.18.2-.2.25-.52.13-.79l-2.03-4.38h1.48c2.39,0,4.34-2.1,4.34-4.68v-13.38c0-2.58-1.95-4.68-4.34-4.68h-3.97s.02,1.34.02,1.34Z"/>
        <g>
          <path class="cls-1" d="M105.96,143.9h-29.69c-3.37,0-6.11,2.74-6.11,6.11v17.46c0,3.37,2.74,6.11,6.11,6.11h2.08l-2.86,5.72c-.17.34-.1.76.18,1.03.17.16.38.24.6.24.15,0,.3-.04.43-.12l12.02-6.87h17.23c3.37,0,6.11-2.74,6.11-6.11v-17.46c0-3.37-2.74-6.11-6.11-6.11ZM110.33,167.48c0,2.41-1.96,4.37-4.37,4.37h-17.46c-.15,0-.3.04-.43.12l-9.72,5.55,2.2-4.41c.14-.27.12-.59-.04-.85s-.44-.41-.74-.41h-3.49c-2.41,0-4.37-1.96-4.37-4.37v-17.46c0-2.41,1.96-4.37,4.37-4.37h0s29.68,0,29.68,0c2.41,0,4.37,1.96,4.37,4.37v17.46ZM110.33,163.62v3.85c0,2.41-1.96,4.37-4.37,4.37h-17.46c-.15,0-.3.04-.43.12l-9.72,5.55,2.2-4.41c.14-.27.12-.59-.04-.85s-.44-.41-.74-.41h-3.49c-2.41,0-4.37-1.96-4.37-4.37v-2.72l13.47-11.93,8.96,6.22,4.67-3.7,11.32,8.27Z"/>
          <circle class="cls-1" cx="103.83" cy="151.1" r="2.99"/>
        </g>
      </g>
    </g>
  </g>
</svg>