<?xml version="1.0" encoding="UTF-8"?>
<svg id="Layer_2" data-name="Layer 2" xmlns="http://www.w3.org/2000/svg" viewBox="0 0 354 327">
  <defs>
    <style>
      .cls-1 {
        fill: #f9f9fa;
      }

      .cls-2 {
        fill: #22479e;
      }

      .cls-3 {
        fill: #20449c;
      }
    </style>
  </defs>
  <g id="Layer_1-2" data-name="Layer 1">
    <g>
      <rect class="cls-1" width="354" height="327"/>
      <g>
        <g>
          <path class="cls-2" d="M236.75,154.72c1.88-2.45,5.75-5.99,9.07-4.11,4.69,2.66-1.49,12.33.69,15.44,1.31,1.86,3.37-1.1,3.94-2.26,1.73-3.48,1.85-14.56,7.8-13.56.87.15,2.66,1.09,2.59,2.11-.02.34-.86,1.98-1.05,2.54-.85,2.54-2.71,8.69-2,11.11.43,1.47,2.04-.1,2.56-.77,2.54-3.27,1.53-7.92,4.64-11.65,4.57-5.48,14.69-4.08,12.29,4.47-.96,3.41-3.67,5.27-6.87,6.33-.54.18-1.26.21-1.71.41-.53.23.59,1.12.88,1.31,3.79,2.53,7.5-.43,9.04-3.93.64-1.46.21-2.72,2.59-2.16.75.18,1.93,1.24,2.07,2.01.28,1.46-1.98,5.24-2.98,6.4-4.34,5.04-12.35,5.46-16.61.16-2.79,3.63-8.57,5.41-11.24.65-1.66,1.45-3.53,2.91-5.87,2.94-4.73.07-6.45-3.3-6.27-7.59.1-2.29,1-4.96.98-7.16-.03-3.19-1.94-1.22-2.9.19-2.09,3.09-3.42,7.55-3.94,11.21-.27,1.89.33,3.89-2.37,4-1.68.07-3.34-.83-3.9-2.45-4.67,3.55-12.6,2.28-15.18-3.23-2.02-4.32-.35-11.62,3.3-14.7,5.03-4.25,13.31-2.12,11.14,5.61-1.12,4-4.91,6.12-8.78,6.77.31.91,1.43,1.57,2.31,1.84,4.17,1.26,7.27-1.98,8.19-5.75.91-3.72,1.07-12.62,7.29-11.21,2.41.54.23,3.61.28,5.02ZM218.03,160.75c1.91.14,5.37-2.15,4.36-4.28-.28-.58-.92-.97-1.55-.83-1.87.41-2.52,3.52-2.81,5.11ZM267.85,160.75c1.91.14,5.37-2.15,4.36-4.28-.28-.58-.92-.97-1.55-.83-1.87.41-2.52,3.52-2.81,5.11Z"/>
          <path class="cls-2" d="M200.61,173.3c-4.51,1.45-9.31-.79-11.43-4.94-6.23-12.23,5.97-33.85,20.94-29.27,1.53.47,4.1,2.32,4.58,3.89.46,1.52-1.32,3.69-2.45,4.57-1.76,1.36-1.4.31-2.17-.92-2.73-4.37-7.92-2.85-10.86.43-3.31,3.69-6.92,14.1-3.49,18.33,2.83,3.5,7.05.36,8.26-2.97.47-1.3.35-2.59.74-3.66.76-2.11,5.86-2.13,6.15.28.24,2.06-.61,6.55-1.09,8.69-1.65,7.4-6.5,17.69-15.43,17.64-4.36-.03-9.01-3.78-7.14-8.45.78-1.96,1.9-.55,3.06-.03,4.13,1.86,8.08.11,10.34-3.59Z"/>
          <path class="cls-2" d="M260.17,141.08c4.64-.26,4.42,4.02,1.09,5.99-5.48,3.24-8.06-5.6-1.09-5.99Z"/>
        </g>
        <g>
          <path class="cls-3" d="M106.36,119.28c2.92,3.86,3.83,8.11,8.5,10.66,1.91,1.04,5.18,1.53,6.96.03.12-.1.52-.59.55-.6.14-.06.21.18.25.29.55,2.06-1.12,4.59-2.79,5.68-3.04,1.99-7.34,1.74-10.54.28-1.3-.59-2.28-1.41-3.46-2.15-.11-.07-.47-.29-.57-.31-.1-.03-.11.07-.08.1,0,0,.11.02.17.08,1.98,2.08,3.25,3.63,4.18,6.44s.9,5.99.55,8.94c.62.14,1.09.62,1.4,1.16.54.97.63,2.4.53,3.48-.02.17-.11.35-.11.5,0,.42,1.19,1.12,1.42,1.51,3.66,2.98,8.5,4.53,11.36,8.47,4.78,6.58,1.85,14.58-4.2,19.04-4.88,3.6-11.38,4.53-17.28,4.98-2.92.22-8.7.17-11.09,1.77-1.91,1.28-.77,2.43.93,2.9,3.28.9,8.88.05,11.51,2.4,1.28,1.15,1.14,2.77.19,4.08-1.99,2.74-6.77,3.1-9.82,3.81-.94.22-3.08.77-3.27,1.89-.34,2.05,2.31,2.43,2.01,4.87-.12,1-1.33,2.23-2.23,2.61-.3.13-1.06.29-.84-.23.56-.49,1.51-1.19,1.59-1.99.25-2.47-3.09-2.71-3.3-5.06-.33-3.71,5.39-4.34,7.91-5.13.98-.31,2.83-.96,1.79-2.27-1.04-1.3-4.83-1.28-6.43-1.43-3.26-.31-10.83-.84-9.96-5.79.6-3.4,5.14-5.16,8.05-6.02,3.62-1.06,7.34-1.62,10.89-2.96,2.04-.77,4.05-1.77,5.72-3.19,0-.1-.79-.51-.93-.61-2.72-1.96-2.94-4.93-3.3-8.02l-.11-3.68c-.11-.11-.17.14-.25.24-1.83,2.33-3.9,4.37-6.29,6.13-2.68,1.97-6.45,4.44-9.78,2.51-.03.74.04,1.49,0,2.23-.12,2.36-1.1,3.24-2.92,4.5-3.21,2.23-9.21,4.95-9.51,9.4-.26,3.9,2.79,6.1,6.1,7.26.19.07,1.21.21.82.61-.06.07-.42.13-.52.13-2.99.26-5.81-.77-7.78-3.05-3.7-4.27-.71-9.45,3.28-12.11,2.47-1.65,5.57-2.58,7.86-4.45,1.47-1.2,1.2-2.63,1.23-4.38-.15-.64.06-1.68-.41-2.17-.59-.61-1.15-1.05-1.73-1.72-1.31-1.5-2.45-3.12-3.3-4.93-.2-.04-.24.18-.38.3-1.22,1.12-3.11.95-4.21-.25-1.91-2.08-1.19-5.81,1.35-7.02-.17-.5-.4-.97-.57-1.46-.62-1.82-1.4-5.02-.56-6.81.28-.6.79-.87,1.41-1.02l-.6-3.19c-.55-4.28.23-7.76,2.77-11.23,2.11-2.89,5.73-5.09,9.2-5.92.24-.06,1.17-.15,1.29-.3.04-.05.34-.99.39-1.15.17-.53.33-1.1.45-1.64.14-.61.06-1.01.39-1.59.06-.11.18-.18.22-.27.2-.38-.08-1.74-.11-2.25-.27-5.79,4.29-8.5,9.61-7.31,2.57.58,4.84,2.28,6.4,4.34ZM98.26,126.78c0-.53.22-1.03-.25-1.43-.59-.51-2.31-1.04-3.08-1.1-.63-.05-1.86.15-2.5.3-.52.12-1.09.27-1.25.84-.08.28-.07.61-.07.89.18,0,.31-.1.48-.15,1.73-.44,4.01-.32,5.7.26.13.04.92.43.96.39ZM102.43,131.34l-.97-1.58c-.63-1.25-.9-2.78-1.55-4-.08-.15-.2-.37-.33-.47.1.9-.05,1.81,0,2.72l.2,2c.08.26.44.24.66.33.69.28,1.33.67,2,.99ZM98.26,129.53c0-.52.03-.8-.48-1.03-1.66-.76-4.73-1-6.5-.59-.12.03-.54.15-.61.22-.16.16-.06.49-.22.66-.04.15,1.1-.03,1.18-.03,1.27-.04,2.67-.01,3.94.18.9.14,1.78.42,2.68.59ZM106.36,151.1c-.72.85-1.08,1.9-1.78,2.75-.07.08-.48.55-.53.57-.1.06-.36.12-.44,0s0-2.1-.02-2.45c-.08-1.14-.34-2.29-.49-3.42-.4-3.04-.46-5.84-2.37-8.4-3.01-4.04-7.77-3.31-11.58-.92-.14.09-.81.54-.88.55-.15.01-.78-.6-.96-.73-3.16-2.34-6.09-1.93-8.17,1.44-1.1,1.78-1.76,3.9-1.71,6.01,1.58-1.47,3.62-1.06,5.42-.29,1.41.61,2.83,1.33,3.45,2.82.95,2.27.96,4.93-.02,7.18-.26.61-1.05,1.61-.68,2.26.16.28,1.37,1.13,1.69,1.17.83.11,1.32-.92,2.41-.76.44.07,1.09.63,1.18-.2.06-.52-.33-.89-.33-1.21,0-.46.67-.06.85.2.56.81.41,2.13-.59,2.48-.72.26-1.09-.46-1.79-.04-.61.36-.93,1.07-1.79,1.01-.44-.03-1.62-.69-2-.97-2.11-1.53-.14-3.39.42-5.13.35-1.09.5-2.47.28-3.59-.17-.82-.35-1.22-1.03-1.72-1.28-.93-4.34-2.45-5.91-2.34-.75.05-1.57.5-1.57,1.35,0,.43.18,1.53.32,1.94.06.17.31.27.48.27.6.01,1.67-.94,2.45-1.12,1.5-.34,3.7.31,4.51,1.66.16.28.47.92.19,1.17-.5.44-1.29-.74-1.4-.61.23,1.67-2.11,2.18-2.83.77-.25-.49-.2-.95-.14-1.48-.04-.04-.82.24-.93.31-.33.19-.62.7-.99.77s-.76-.16-1.1-.25c-.39,3.14-.31,6.35.66,9.37,1,3.1,3.43,7.29,5.82,9.52,3.96,3.68,9.19.92,12.72-1.9,3-2.39,4.92-4.95,6.09-8.64.11-.35.22-1.5.72-1.47s.31.82.37,1.11c.09.42.51.66.92.59-.42-1.07.67-2,1.54-1.13l.22.47s.03-.1.06-.13c1.46-1.32,2.64-3.29,3.17-5.19.35-1.27.78-4.06-.58-4.84-1.29-.74-2.52.19-3.34,1.16ZM76.15,151.03c-.38.07-.46.86-.48,1.17-.08,1.17.14,2.6.46,3.73.03.11.29.92.34.92.08,0,.08-.18.08-.24.04-.53-.03-1.11,0-1.65.04-.98.55-2.9.03-3.7-.09-.14-.25-.25-.42-.22ZM75.97,164.74c.37.37.76.54,1.3.46.48-.07,1-.58.9-1.09-.49-1.11-.8-2.27-1.13-3.43-.11-.37-.72.05-.9.19-1.06.87-1.12,2.91-.16,3.87ZM108.09,160.87c-.33.09-.85.25-.68.66s.39.83.45,1.31c.1.78.01,2.58-.97,2.79-1.7.36-1.98-2.06-1.81-3.24.02-.15.24-.82.21-.86-.01-.02-.4-.13-.43-.11-.02.01-.21.36-.23.41-.75,1.68-.52,4.85,1.69,5.24.6.1,1.33-.36,1.72-.78,1.03-1.13,1.11-3.19.55-4.56-.13-.31-.38-.54-.5-.85ZM120.76,165.52c-.29-.32-.62-.72-.96-.99-.06-.05-.49-.35-.52-.36-.08-.02-.1,0-.08.08.91,1.21,1.76,2.61,2.37,4,.84,1.89,1.2,4,.92,6.06l.06.52c.84-1.76.81-3.95.28-5.8-.4-1.41-1.1-2.45-2.07-3.51ZM104.54,168.27c-.1-.08-.18-.26-.35-.31-.01,2.54-.05,5.77,1.81,7.73.63.66,1.43,1.13,2.2,1.6,1.48-1.04,2.35-2.65,1.56-4.43-.92-2.07-3.58-3.13-5.23-4.58Z"/>
          <path class="cls-3" d="M99.87,146.39c.65.5,1.09,1.04,1.54,1.74.12,1.23-.77.19-1.17-.09-.58-.4-1.36-.76-2.07-.84-1.21-.14-3.62.88-4.73,1.45-.47.24-1.45.98-1.87,1.04-.59.08-1.4-.34-1.25-1.04.18-.86,1.85-1.75,2.6-2.12,2.3-1.14,4.78-1.83,6.97-.14Z"/>
          <path class="cls-3" d="M100.83,150.43c.28.28-.26.87-.49,1.05-.33.26-1.04.54-1.46.58-.62.06-1.15-.56-1.78-.6.27,2.77-3.42,2.72-3.13-.06-.24.13-.52.18-.76.31-.4.21-1.12.89-1.49.99-.62.17-.48-.54-.29-.9,1.08-2.05,4.2-2.58,6.23-1.91.78.26,1.41.85,2.27.67.21-.04.71-.33.91-.14Z"/>
          <path class="cls-3" d="M82.99,163.02c.29-.29,1.08.18,1.38.15.71-.07,1.38-.61,2.15-.55.42.03.6.27.95.37.69.21.9-.16,1.49-.29.56-.12,1.16-.08,1.71.06.96.23,1.41.73,2.5.41.27-.08.89-.45,1.1-.44.25.01.64.31.72.55.18.6-.3.29-.57.37-.16.05-.56.35-.77.44-1.25.58-4.81,1.04-6.2.95-.94-.06-3.39-.67-4.17-1.17-.07-.05-.27-.19-.31-.24-.08-.13-.1-.51,0-.61Z"/>
          <path class="cls-3" d="M109.57,153.92c-.27.27-.46-.13-.54-.34-.11-.29-.24-1.2-.68-1.17-.23.02-.75.63-.76.84,0,.17.42.83.5,1.1.31,1.14-.16,2.23-1.01,2.99-.32.28-1.78,1.38-1.84.4-.02-.41.32-.48.55-.71.36-.34.67-1.05.71-1.55.05-.72-.7-.85-.53-1.74.18-.93,1.61-2.65,2.6-2.74.74-.07,1.08.86,1.13,1.46.02.21-.01,1.33-.12,1.44Z"/>
          <path class="cls-3" d="M91.54,165.77c.74-.12.49.48.18.84-1.52,1.76-5.38,2.15-6.72-.04-.04-.07-.26-.52-.26-.55,0-.05.16-.2.23-.19.12.01.67.35.85.41,1.43.54,3.31.54,4.74-.01.28-.11.74-.41.98-.45Z"/>
        </g>
        <path class="cls-2" d="M170.78,157.97c-1.37-.18-2.69-1.44-3.36-2.58-.91.71-1.72,1.49-2.77,2.01-3.38,1.65-7.95.94-10.27-2.13-.25-.07-.2.2-.38.39-1.97,2.06-4.64,3.25-7.39,1.83-3.91-2.03-1.44-7.9-1.46-11.07,0-.67-.24-1.74-1.1-1.23-1.58.93-3.67,6.54-4.02,8.38-.18.95-.27,3.92-.7,4.47-.59.75-2,.63-2.8.38-2.14-.67-1.72-2.43-1.57-4.24.38-4.71,1.91-16.4,5.29-19.65,1.51-1.46,4.38-1.74,5.18.52-1.27,2.92-2.86,5.73-3.62,8.85,1.6-1.73,3.46-3.63,6.07-3.17,4.45.77.93,8.38,1.02,11.12.07,2.15,1.5,2.42,2.77.83,2.05-2.57,1.32-6.3,3.69-9.22,3.63-4.47,11.82-3.29,9.77,3.58-.79,2.65-2.91,4.09-5.42,4.92-.43.14-1,.17-1.36.32-.44.19.54.93.78,1.09,1.63,1.03,3.9.72,5.32-.54,2.87-2.55,2.02-7.15,4.09-10.38,1.36-2.13,4.17-2.55,5.4-.14-1.08,2.86-2.67,6.86-2.32,9.94.24,2.14,1.95,1.74,2.82.11,1.56-2.95,1.26-6.02,1.57-9.15.12-1.22.82-1.72,2.01-1.86,4.46-.53,3.17,5.14,2.72,7.77-.97,5.76-4.04,16.23-11.63,15.34-2.56-.3-4.31-2.55-3.14-5.06.3-.63,1.05-1.48,1.81-1.01.16.1.33.57.54.78,1.58,1.53,3.86.79,4.71-1.1.03-.39-.14-.06-.19-.06-.62,0-1.48.08-2.07,0ZM157.68,149.05c1.52.11,4.26-1.71,3.46-3.39-.22-.46-.73-.77-1.23-.66-1.48.33-2,2.79-2.22,4.05Z"/>
      </g>
    </g>
  </g>
</svg>