<?xml version="1.0" encoding="UTF-8"?>
<svg id="Layer_2" data-name="Layer 2" xmlns="http://www.w3.org/2000/svg" viewBox="0 0 354 327">
  <defs>
    <style>
      .cls-1 {
        fill: #f9f9fa;
      }
    </style>
  </defs>
  <g id="Layer_1-2" data-name="Layer 1">
    <rect class="cls-1" width="354" height="327"/>
    <g>
      <path d="M135.54,124.46l.57-.26c14.15.6,28.99-.85,43.04.17,25.32,1.84,42.51,19.66,38.81,45.73-3.15,22.21-21.99,32.12-42.76,32.76-13.01.4-26.08-.33-39.09,0l-.57-.26v-78.16ZM141.15,197.42c10.9-.23,21.84.31,32.74,0,22.71-.63,40.32-11.65,38.99-36.54-1.17-22-19.27-30.7-38.99-31.25-10.89-.3-21.84.24-32.74,0v67.77Z"/>
      <path d="M147.91,190v-53.34l.57-.26c18.75.75,48.04-5.15,54.95,18.61,5.26,18.08-6.61,33.61-24.93,34.83l-30.58.17ZM153.51,184.23h22.01c14.74-.24,25.34-11.59,21.6-26.55-4.82-19.29-28.16-14.85-43.04-15.34l-.57.26v41.64Z"/>
      <path d="M181.54,153.56v4.53l-3.79,3.96c.6.39,1.27.53,1.92.88,3.61,1.98,4.05,6.74,1.46,9.76-3.13,3.65-10.21,3.35-14.39,2.02-.44-.14-2.17-.69-2.18-1.1l2.3-5.14c1.65.95,7.31,2.47,8.42.52.31-.55.22-1.46-.35-1.81-.13-.08-1.29-.42-1.39-.42h-3.54v-4.37c.82-.99,2.13-1.89,2.89-2.88.13-.17.32-.21.25-.5h-7.58v-5.44h15.99Z"/>
    </g>
  </g>
</svg>