<?xml version="1.0" encoding="UTF-8"?>
<svg id="Layer_2" data-name="Layer 2" xmlns="http://www.w3.org/2000/svg" viewBox="0 0 354 327">
  <defs>
    <style>
      .cls-1 {
        fill: #f9f9fa;
      }
    </style>
  </defs>
  <g id="Layer_1-2" data-name="Layer 1">
    <rect class="cls-1" width="354" height="327"/>
    <g>
      <path d="M164.02,156.8c1.94-2.32,4.4-4.72,7.73-4.11,3.66.66,2.67,5.51,2.16,8.05-.34,1.74-1.82,6.31-.34,7.64,1.59,1.42,3.45-1.85,3.95-3.05.68-1.61.49-3.91,2.92-3.08,3.02,1.03,1.8,3.7.76,5.78-2.04,4.06-6.27,7.66-11.02,5.33-5.09-2.5-1.62-10.26-2-14.3-.26-2.83-2.5.37-3.05,1.25-2.48,4.03-3.5,8.61-3.87,13.29-1.22,1.92-4.73,1.11-5.66-.76-2.75,1.87-6.78,1.49-8.59-1.47-1.03.79-1.89,1.66-3.13,2.14-3.19,1.24-6.14-.14-7.91-2.88-.74.52-1.31,1.22-2.05,1.74-5.38,3.76-13.85,1.88-15.51-4.9-.86-3.51.38-8.76,2.72-11.54,4.26-5.05,13.86-4.27,12.12,3.78-.9,4.16-4.7,6.65-8.75,7.13-.29.28,1.24,1.48,1.51,1.61,1.99.98,4.54.6,6.22-.82,2.97-2.51,2.59-6.52,4.23-9.75,2.35-4.62,7.7-6.86,12.15-3.54,1.22-1.09,2.4-1.8,4.09-1.27.84.26,1.57.9,1.61,1.83.03.69-.49,1.2-.75,1.8-1.32,3.02-2.64,6.46-2.31,9.82.19,1.94,1.36,2.98,2.95,1.35,2.4-2.46,2.5-6.79,3.1-10.01.72-3.87,2.71-13.51,7.44-14.25,1.39-.22,3.74.44,3.82,2.09-1.68,3.62-3.53,7.2-4.55,11.09ZM123.91,163.05c1.72-.18,4.31-1.42,4.42-3.36.06-1.11-.6-1.96-1.78-1.77-1.58.25-2.57,3.77-2.64,5.14ZM146.58,158.54c-5.09-3.36-7.53,6.48-5.65,9.37,1.32,2.03,3.27-.03,3.93-1.51,1.06-2.39,1.1-5.33,1.71-7.86Z"/>
      <path d="M219.11,157.41l1.94-4.86c2.13-4.59,6.54-12.34,12.56-11.52,2.22.3,3.62,2.34,3.25,4.53-.26,1.54-1.24.86-2.21.98-2.09.25-4.71,3.55-5.81,5.22-3.37,5.08-5.02,11.03-6.36,16.92-.54,2.35-.84,5.39-1.49,7.57-.61,2.04-4.11,2.94-5.37,1.12-.67-.97-1.16-4.97-1.38-6.34-.75-4.68-1.29-9.4-1.76-14.11l-2.31,5.84c-2.71,6.25-8.19,15.62-16.15,14.98-2.87-.23-4.69-2.4-4.2-5.3.3-1.76,1.75-.48,2.87-.35,6.41.75,10.43-8.14,12.5-12.98,1.92-4.48,3.46-9.12,5.21-13.67.04-.19.02-.2-.17-.17-.98.13-3.44,1.25-4.4,1.73-3.12,1.56-8.64,5.51-7.87,9.55.19,1.02,2.21,2.48.32,2.88-2.17.47-5.44-.96-6.61-2.85-2.71-4.36,2.24-9.45,5.68-11.68,4.35-2.83,11.38-4.61,16.57-4.29,1.96.12,3.65.68,3.85,2.9l1.36,13.89Z"/>
      <path d="M107.47,171.13c-2.42,2.79-7.22,5.6-10.71,3.04-4.6-3.37-2.9-13.27-1.84-18.09.72-3.24,1.75-6.41,2.74-9.58-.29-.27-4.13,2.16-4.65,2.52-2.65,1.89-8.02,7.11-6.21,10.71.48.96,2.71,2,.09,2.66-3.94.99-8.08-1.6-7.76-5.91.64-8.59,14.68-15.19,22.27-15.25,1.55-.01,3.9.48,3.59,2.49-.26,1.73-1.29,4.26-1.78,6.07-1.11,4.14-2.61,9.32-2.86,13.56-.11,2.01-.26,5.29,2.63,4.83,2.07-.33,4.49-4.78,5.33-6.56,1.54-3.28,2.15-6.2,3.14-9.6.99-3.4,3.13-10.32,7.96-8.19.68.3,1.89,1.11,1.77,1.98-.05.34-1.25,2.33-1.51,2.91-4.75,10.67-3.15,32.58-16.56,37.12-4.85,1.64-12.08-.13-11.34-6.42.08-.66.54-2.09,1.39-2.03.28.02,2.07,1.18,2.65,1.41,5.91,2.31,9.96-2.61,11.65-7.65Z"/>
      <path d="M256.52,156.8c1.94-2.32,4.4-4.72,7.73-4.11,5.06.92,1.44,9.41,1.22,12.5-.13,1.8.3,4.9,2.7,2.94,1.63-1.33,1.89-3.34,2.6-5.12.77-1.93,3.66-.49,4.06,1.03.28,1.07-.66,3.06-1.16,4.06-1.97,3.88-5.45,6.96-10.09,5.59-5.71-1.68-3.12-9.02-2.89-13.03.25-4.38-1.6-2.7-3.05-.35-2.48,4.03-3.5,8.61-3.87,13.29-1.21,1.92-4.73,1.11-5.66-.76-2.75,1.87-6.78,1.49-8.59-1.47-1.03.79-1.89,1.66-3.13,2.14-4.25,1.66-7.97-1.35-8.89-5.45-1.79-7.93,4.55-19.56,13.62-13.72.55-.33.88-.82,1.49-1.09,1.43-.64,3.89-.39,4.16,1.45.14.91-.38,1.26-.71,2-1.22,2.8-3.3,8.16-1.96,11.07.89,1.94,2.46.41,3.24-.73,1.87-2.74,1.88-6.01,2.46-9.18.72-3.85,2.76-13.8,7.64-14.3,1.25-.13,3.83.64,3.6,2.24-1.75,3.55-3.5,7.13-4.53,10.97ZM239.08,158.54c-5.09-3.36-7.53,6.48-5.65,9.37,1.32,2.03,3.27-.03,3.93-1.51,1.06-2.39,1.1-5.33,1.71-7.86Z"/>
    </g>
  </g>
</svg>