<?xml version="1.0" encoding="UTF-8"?>
<svg id="Layer_2" data-name="Layer 2" xmlns="http://www.w3.org/2000/svg" viewBox="0 0 354 327">
  <defs>
    <style>
      .cls-1 {
        fill: #f9f9fa;
      }

      .cls-2 {
        fill: #231f20;
      }
    </style>
  </defs>
  <g id="Layer_1-2" data-name="Layer 1">
    <g>
      <rect class="cls-1" width="354" height="327"/>
      <g>
        <g>
          <path class="cls-2" d="M120.73,151.12h7.27c1.31,0,2.5.27,3.58.82,1.08.55,1.92,1.32,2.54,2.31.61.99.92,2.12.92,3.39s-.31,2.4-.92,3.4c-.62,1-1.46,1.77-2.54,2.32-1.08.55-2.27.82-3.58.82h-3.37v7.58h-3.89v-20.64ZM128.11,160.49c.96,0,1.71-.28,2.26-.84.55-.56.82-1.23.82-2.02s-.27-1.46-.82-2-1.3-.82-2.26-.82h-3.49v5.68h3.49Z"/>
          <path class="cls-2" d="M137.8,157.06h3.55v1.96h.23c.37-.69.93-1.26,1.7-1.72.77-.45,1.61-.68,2.54-.68.67,0,1.29.11,1.84.32v3.78c-.52-.19-.96-.33-1.31-.42-.36-.09-.74-.13-1.14-.13-1.12,0-2,.4-2.65,1.21-.65.81-.98,1.83-.98,3.06v7.32h-3.78v-14.7Z"/>
          <path class="cls-2" d="M152.21,171.2c-1.19-.68-2.12-1.61-2.78-2.8-.66-1.18-.99-2.51-.99-3.99s.33-2.79.99-3.98c.66-1.19,1.59-2.13,2.78-2.81,1.19-.68,2.55-1.02,4.07-1.02s2.84.34,4.04,1.02c1.19.68,2.12,1.62,2.78,2.81.66,1.19,1,2.52,1,3.98s-.33,2.81-1,3.99c-.66,1.18-1.59,2.11-2.78,2.8-1.19.68-2.54,1.02-4.04,1.02s-2.87-.34-4.07-1.02ZM158.3,168.21c.61-.35,1.1-.85,1.47-1.5.37-.65.55-1.42.55-2.31s-.18-1.62-.55-2.28c-.37-.65-.86-1.15-1.47-1.5-.62-.35-1.29-.52-2.02-.52s-1.4.17-2.02.52c-.62.35-1.11.85-1.49,1.5-.38.65-.56,1.41-.56,2.28s.19,1.63.56,2.29.87,1.17,1.49,1.51c.61.35,1.29.52,2.02.52s1.4-.17,2.02-.52Z"/>
          <path class="cls-2" d="M169.67,171.23c-1.09-.66-1.94-1.59-2.57-2.77-.62-1.18-.94-2.53-.94-4.05s.31-2.84.94-4.04c.62-1.19,1.48-2.12,2.57-2.78s2.29-.99,3.62-.99c1,0,1.88.22,2.65.65s1.36.97,1.76,1.6h.23l-.23-2.08v-5.65h3.75v20.64h-3.52v-1.76h-.23c-.38.63-.97,1.16-1.74,1.59s-1.67.63-2.67.63c-1.33,0-2.53-.33-3.62-.99ZM175.91,168.18c.61-.37,1.1-.87,1.47-1.53.37-.65.55-1.4.55-2.25s-.18-1.6-.55-2.25-.86-1.16-1.47-1.51c-.62-.36-1.28-.53-1.99-.53s-1.35.18-1.96.53-1.11.86-1.47,1.51-.55,1.4-.55,2.25.18,1.6.55,2.25c.37.65.86,1.16,1.47,1.53s1.27.55,1.96.55,1.37-.18,1.99-.55Z"/>
          <path class="cls-2" d="M186.44,170.58c-.92-1.1-1.38-2.62-1.38-4.58v-8.94h3.78v8.48c0,1,.24,1.78.72,2.35.48.57,1.11.85,1.9.85,1.08,0,1.93-.39,2.57-1.18.63-.79.95-1.79.95-3v-7.5h3.78v14.7h-3.55v-1.84h-.23c-.44.71-1.06,1.27-1.86,1.69s-1.68.62-2.64.62c-1.77,0-3.11-.55-4.04-1.64Z"/>
          <path class="cls-2" d="M205.24,171.23c-1.17-.66-2.09-1.59-2.75-2.78s-.99-2.54-.99-4.04.33-2.84.99-4.02c.66-1.18,1.58-2.11,2.75-2.78,1.17-.67,2.5-1.01,3.98-1.01,1.63,0,3.04.35,4.21,1.05,1.17.7,2.02,1.7,2.54,2.98l-3.46,1.44c-.62-1.31-1.71-1.96-3.29-1.96-1.15,0-2.1.39-2.84,1.18-.74.79-1.11,1.83-1.11,3.11s.37,2.35,1.11,3.14c.74.79,1.69,1.18,2.84,1.18,1.6,0,2.75-.69,3.46-2.08l3.43,1.5c-.63,1.29-1.54,2.29-2.71,3-1.17.71-2.57,1.07-4.18,1.07-1.48,0-2.81-.33-3.98-.99Z"/>
          <path class="cls-2" d="M223.05,171.66c-.62-.22-1.12-.52-1.5-.91-.9-.87-1.36-2.09-1.36-3.69v-6.78h-2.57v-3.23h2.57v-4.15h3.78v4.15h3.6v3.23h-3.6v6.08c0,.75.16,1.29.49,1.61.27.31.73.46,1.38.46.36,0,.67-.05.91-.14.24-.1.55-.26.94-.49v3.69c-.83.33-1.7.49-2.62.49-.73,0-1.4-.11-2.02-.33Z"/>
          <path class="cls-2" d="M235.22,151.12h2.42v18.31h9.05v2.33h-11.47v-20.64Z"/>
          <path class="cls-2" d="M249.89,151.12h2.42v20.64h-2.42v-20.64Z"/>
          <path class="cls-2" d="M256.93,151.12h3.55l6.57,16.92h.12l6.57-16.92h3.55v20.64h-2.42v-13.12l.12-3.92h-.12l-6.75,17.04h-2.02l-6.75-17.04h-.12l.12,3.92v13.12h-2.42v-20.64Z"/>
        </g>
        <g id="ekRhGA.tif">
          <g>
            <polygon points="105.96 149.9 105.96 160.8 97.05 165.3 97.05 154.26 105.96 149.9"/>
            <polygon points="94.92 155.46 94.92 166.37 86.01 170.87 86.01 159.82 94.92 155.46"/>
            <path d="M94.36,152.87c.05.22-.03.15-.12.21-.28.18-.76.41-1.08.58-2.81,1.52-5.66,2.95-8.5,4.4-.24.02-1.23-.55-1.53-.69-2.78-1.39-5.5-2.91-8.25-4.36l9.71-4.85,9.77,4.71Z"/>
            <polygon points="83.32 159.82 83.32 170.87 74.41 166.37 74.41 155.46 83.32 159.82"/>
            <polygon points="83.32 173.46 83.32 184.51 74.41 180.01 74.41 169.01 83.32 173.46"/>
            <polygon points="97.05 178.94 97.05 167.9 105.96 163.44 105.96 174.44 97.05 178.94"/>
            <polygon points="86.01 184.51 86.01 173.46 94.92 169.01 94.92 180.01 86.01 184.51"/>
            <path d="M86.94,147.11l.12-.21,8.94-4.41,9.77,4.48-9.05,4.78c-3.29-1.45-6.5-3.16-9.78-4.64Z"/>
          </g>
        </g>
      </g>
    </g>
  </g>
</svg>