<?xml version="1.0" encoding="UTF-8"?>
<svg id="Layer_2" data-name="Layer 2" xmlns="http://www.w3.org/2000/svg" viewBox="0 0 354 327">
  <defs>
    <style>
      .cls-1 {
        fill: #f9f9fa;
      }

      .cls-2 {
        fill: #22479e;
      }

      .cls-3 {
        fill: #20449c;
      }
    </style>
  </defs>
  <g id="Layer_1-2" data-name="Layer 1">
    <rect class="cls-1" width="354" height="327"/>
    <g>
      <g>
        <path class="cls-2" d="M232.21,155.39c1.74-2.27,5.32-5.53,8.38-3.8,4.33,2.46-1.37,11.39.64,14.27,1.21,1.72,3.11-1.02,3.64-2.09,1.6-3.21,1.71-13.45,7.2-12.53.81.14,2.46,1.01,2.4,1.95-.02.31-.8,1.83-.97,2.35-.78,2.35-2.5,8.03-1.85,10.27.4,1.36,1.89-.09,2.37-.71,2.35-3.03,1.41-7.32,4.29-10.77,4.22-5.06,13.57-3.77,11.35,4.13-.88,3.15-3.39,4.87-6.35,5.84-.5.16-1.16.19-1.58.38-.49.21.54,1.03.82,1.21,3.5,2.34,6.93-.4,8.35-3.63.59-1.35.19-2.51,2.39-2,.69.16,1.78,1.15,1.91,1.85.26,1.35-1.82,4.84-2.75,5.91-4.01,4.65-11.41,5.04-15.35.15-2.58,3.35-7.92,5-10.38.6-1.54,1.34-3.26,2.69-5.42,2.72-4.37.06-5.96-3.05-5.79-7.01.09-2.12.92-4.58.91-6.62-.02-2.95-1.79-1.13-2.68.18-1.93,2.85-3.16,6.97-3.64,10.36-.25,1.75.3,3.59-2.19,3.69-1.55.06-3.08-.77-3.6-2.26-4.32,3.28-11.64,2.11-14.02-2.98-1.87-3.99-.32-10.74,3.05-13.58,4.65-3.92,12.3-1.96,10.29,5.18-1.04,3.7-4.54,5.65-8.12,6.26.28.84,1.32,1.45,2.14,1.7,3.85,1.16,6.72-1.83,7.57-5.31.84-3.44.99-11.66,6.73-10.36,2.22.5.21,3.34.26,4.64ZM214.91,160.96c1.77.13,4.96-1.99,4.03-3.95-.26-.54-.85-.89-1.43-.76-1.73.38-2.33,3.25-2.59,4.72ZM260.95,160.96c1.77.13,4.96-1.99,4.03-3.95-.26-.54-.85-.89-1.43-.76-1.73.38-2.33,3.25-2.59,4.72Z"/>
        <path class="cls-2" d="M198.81,172.56c-4.17,1.34-8.61-.73-10.56-4.57-5.76-11.31,5.52-31.28,19.35-27.05,1.42.43,3.79,2.14,4.23,3.6.42,1.4-1.22,3.41-2.27,4.22-1.62,1.26-1.29.28-2-.85-2.52-4.04-7.32-2.63-10.03.4-3.06,3.41-6.39,13.03-3.23,16.94,2.61,3.23,6.51.33,7.63-2.75.44-1.2.32-2.4.68-3.38.7-1.95,5.42-1.97,5.68.26.23,1.9-.57,6.06-1.01,8.03-1.53,6.84-6.01,16.35-14.26,16.3-4.03-.02-8.32-3.49-6.6-7.81.73-1.81,1.75-.51,2.83-.03,3.82,1.72,7.47.1,9.56-3.31Z"/>
        <path class="cls-2" d="M253.85,142.78c4.28-.24,4.09,3.71,1.01,5.53-5.06,2.99-7.44-5.18-1.01-5.53Z"/>
      </g>
      <g>
        <path class="cls-3" d="M111.73,122.64c2.7,3.57,3.54,7.49,7.85,9.85,1.76.96,4.78,1.41,6.43.03.11-.09.48-.54.51-.56.13-.06.2.17.23.27.51,1.9-1.03,4.24-2.58,5.25-2.8,1.84-6.78,1.61-9.74.25-1.2-.55-2.11-1.3-3.2-1.98-.1-.06-.44-.27-.52-.29-.09-.02-.1.06-.07.1,0,0,.1.02.15.07,1.83,1.92,3.01,3.36,3.86,5.95s.83,5.54.51,8.26c.58.13,1.01.57,1.29,1.07.5.9.59,2.21.49,3.22-.01.15-.1.32-.1.46,0,.39,1.1,1.03,1.31,1.4,3.38,2.75,7.86,4.19,10.5,7.83,4.41,6.08,1.71,13.47-3.89,17.6-4.51,3.33-10.51,4.19-15.97,4.6-2.7.2-8.04.16-10.25,1.64-1.77,1.18-.72,2.25.86,2.68,3.03.83,8.2.04,10.63,2.22,1.18,1.06,1.06,2.56.18,3.77-1.83,2.53-6.26,2.86-9.07,3.52-.87.21-2.85.71-3.02,1.75-.32,1.89,2.13,2.25,1.86,4.5-.11.92-1.23,2.06-2.06,2.41-.27.12-.98.27-.77-.22.52-.45,1.39-1.1,1.47-1.84.23-2.28-2.86-2.51-3.05-4.67-.3-3.43,4.98-4.01,7.31-4.74.9-.28,2.62-.89,1.66-2.09-.96-1.2-4.46-1.18-5.94-1.33-3.02-.29-10.01-.77-9.21-5.35.55-3.14,4.75-4.77,7.44-5.56,3.34-.98,6.78-1.5,10.07-2.73,1.89-.71,3.74-1.64,5.28-2.95,0-.09-.73-.47-.86-.56-2.52-1.81-2.71-4.56-3.05-7.41l-.1-3.4c-.1-.1-.16.13-.23.22-1.69,2.15-3.61,4.04-5.81,5.66-2.48,1.82-5.96,4.11-9.04,2.32-.03.68.04,1.38,0,2.06-.11,2.18-1.02,2.99-2.7,4.16-2.96,2.06-8.51,4.57-8.78,8.69-.24,3.61,2.58,5.64,5.64,6.71.17.06,1.12.2.76.56-.06.06-.38.12-.48.12-2.77.24-5.37-.71-7.19-2.82-3.41-3.95-.65-8.73,3.03-11.19,2.28-1.52,5.15-2.39,7.26-4.12,1.35-1.11,1.11-2.43,1.14-4.05-.14-.59.06-1.56-.38-2.01-.54-.56-1.06-.97-1.6-1.59-1.21-1.38-2.26-2.88-3.05-4.56-.18-.04-.23.16-.35.28-1.12,1.03-2.87.88-3.89-.23-1.76-1.92-1.1-5.37,1.25-6.48-.16-.46-.37-.89-.53-1.35-.57-1.68-1.3-4.64-.52-6.29.26-.55.73-.8,1.3-.94l-.56-2.95c-.51-3.96.22-7.17,2.56-10.38,1.95-2.67,5.29-4.71,8.5-5.47.22-.05,1.08-.14,1.19-.28.04-.04.31-.92.36-1.07.15-.49.3-1.01.42-1.51.13-.56.06-.93.36-1.47.06-.1.16-.17.21-.25.18-.36-.08-1.6-.1-2.07-.25-5.35,3.96-7.85,8.88-6.75,2.38.53,4.47,2.1,5.92,4.01ZM104.24,129.57c0-.49.21-.95-.23-1.32-.54-.47-2.13-.96-2.85-1.01-.59-.04-1.72.14-2.31.28-.48.11-1.01.25-1.15.78-.07.25-.07.56-.06.82.16,0,.29-.1.45-.14,1.6-.41,3.71-.3,5.27.24.12.04.85.4.89.36ZM108.1,133.78l-.9-1.46c-.58-1.16-.83-2.57-1.44-3.7-.07-.14-.18-.34-.31-.43.09.83-.05,1.67,0,2.52l.18,1.85c.07.24.41.22.61.3.64.26,1.23.62,1.85.92ZM104.24,132.11c0-.48.03-.73-.45-.95-1.53-.7-4.37-.92-6.01-.55-.11.02-.5.14-.56.2-.15.15-.06.45-.2.61-.03.13,1.02-.02,1.09-.03,1.18-.04,2.47-.01,3.64.17.83.13,1.65.39,2.48.54ZM111.73,152.04c-.67.78-1,1.76-1.65,2.54-.06.08-.44.5-.49.53-.09.05-.34.11-.4,0s0-1.94-.02-2.26c-.07-1.05-.31-2.11-.45-3.16-.37-2.81-.43-5.4-2.19-7.77-2.78-3.73-7.18-3.06-10.7-.85-.13.08-.75.5-.81.51-.13.01-.73-.55-.89-.67-2.92-2.17-5.62-1.78-7.55,1.33-1.02,1.65-1.63,3.61-1.58,5.55,1.46-1.36,3.35-.98,5.01-.26,1.31.56,2.62,1.23,3.19,2.6.88,2.09.88,4.55-.02,6.64-.24.56-.97,1.49-.63,2.08.15.26,1.27,1.04,1.56,1.08.77.1,1.22-.85,2.23-.7.41.06,1,.58,1.09-.19.05-.48-.3-.82-.3-1.11,0-.43.62-.05.79.18.52.75.38,1.97-.54,2.29-.67.24-1-.43-1.66-.03-.56.34-.86.99-1.65.94-.41-.03-1.5-.63-1.85-.89-1.95-1.42-.13-3.13.39-4.74.32-1.01.46-2.28.25-3.32-.15-.76-.33-1.13-.95-1.59-1.18-.86-4.01-2.26-5.46-2.17-.7.05-1.45.46-1.45,1.25,0,.4.17,1.41.29,1.8.05.16.29.25.45.25.55.01,1.55-.87,2.26-1.03,1.39-.32,3.42.29,4.16,1.54.15.25.44.85.18,1.08-.46.41-1.19-.68-1.3-.56.22,1.54-1.95,2.01-2.61.71-.23-.46-.19-.88-.13-1.37-.03-.04-.76.22-.86.28-.31.18-.57.65-.92.71s-.7-.15-1.02-.23c-.36,2.9-.29,5.87.61,8.66.93,2.87,3.17,6.74,5.38,8.79,3.66,3.4,8.49.85,11.76-1.75,2.77-2.21,4.55-4.58,5.63-7.98.1-.32.2-1.39.67-1.36s.29.76.35,1.03c.08.39.48.61.85.54-.39-.99.61-1.85,1.42-1.04l.2.43s.02-.09.06-.12c1.35-1.22,2.44-3.04,2.93-4.79.32-1.18.72-3.75-.53-4.47-1.19-.68-2.32.18-3.09,1.07ZM83.81,151.98c-.35.06-.43.8-.45,1.08-.07,1.08.13,2.4.42,3.44.03.1.27.85.32.85.07,0,.07-.17.08-.23.04-.49-.03-1.03,0-1.53.04-.9.51-2.68.02-3.42-.08-.13-.23-.23-.39-.2ZM83.65,164.64c.34.34.7.5,1.2.42.44-.06.92-.54.83-1-.45-1.02-.74-2.1-1.05-3.17-.1-.34-.67.04-.83.18-.98.8-1.03,2.69-.15,3.58ZM113.33,161.07c-.3.09-.79.23-.63.61s.36.77.42,1.21c.09.72.01,2.39-.9,2.58-1.57.33-1.83-1.9-1.67-2.99.02-.14.22-.76.2-.79-.01-.02-.37-.12-.4-.1-.02.01-.19.33-.21.37-.7,1.55-.48,4.48,1.56,4.84.55.1,1.23-.33,1.59-.73.95-1.05,1.02-2.95.51-4.22-.12-.29-.35-.5-.46-.78ZM125.03,165.37c-.27-.3-.58-.67-.89-.92-.05-.04-.45-.33-.48-.33-.07-.02-.09,0-.07.07.84,1.12,1.63,2.42,2.19,3.7.77,1.74,1.11,3.69.85,5.6l.05.48c.78-1.63.75-3.65.26-5.36-.37-1.3-1.02-2.26-1.91-3.24ZM110.05,167.91c-.09-.08-.17-.24-.32-.29-.01,2.35-.05,5.33,1.67,7.14.58.61,1.32,1.05,2.04,1.48,1.37-.96,2.17-2.44,1.44-4.09-.85-1.91-3.31-2.9-4.83-4.23Z"/>
        <path class="cls-3" d="M105.73,147.69c.6.47,1,.96,1.42,1.6.11,1.14-.71.17-1.09-.08-.54-.37-1.26-.7-1.91-.78-1.12-.13-3.35.81-4.37,1.34-.43.22-1.34.91-1.73.96-.55.08-1.29-.32-1.16-.96.17-.8,1.71-1.62,2.41-1.96,2.12-1.05,4.42-1.69,6.44-.13Z"/>
        <path class="cls-3" d="M106.61,151.43c.26.26-.24.81-.45.97-.31.24-.96.5-1.35.53-.57.06-1.06-.52-1.64-.55.25,2.56-3.16,2.52-2.9-.05-.22.12-.48.17-.7.28-.37.2-1.03.82-1.38.91-.57.15-.44-.5-.27-.83,1-1.89,3.88-2.39,5.75-1.76.72.24,1.3.79,2.1.62.19-.04.66-.31.84-.13Z"/>
        <path class="cls-3" d="M90.13,163.06c.26-.27,1,.17,1.28.14.65-.06,1.27-.56,1.99-.51.39.03.56.25.88.34.64.2.83-.14,1.38-.27.51-.11,1.07-.07,1.58.05.88.21,1.3.67,2.31.38.25-.07.82-.42,1.02-.41.23.01.6.29.66.51.17.55-.28.27-.53.34-.15.04-.52.32-.71.41-1.15.54-4.44.96-5.73.88-.87-.05-3.13-.62-3.85-1.08-.07-.04-.25-.17-.28-.22-.08-.12-.09-.47,0-.57Z"/>
        <path class="cls-3" d="M114.69,154.65c-.25.25-.43-.12-.5-.32-.1-.27-.22-1.11-.62-1.08-.21.02-.7.58-.7.77,0,.16.39.76.46,1.02.29,1.05-.15,2.06-.94,2.77-.29.26-1.65,1.27-1.7.37-.02-.37.29-.45.51-.65.33-.32.62-.97.65-1.43.05-.66-.65-.79-.49-1.61.16-.86,1.49-2.44,2.4-2.53.68-.06,1,.8,1.04,1.35.01.2-.01,1.23-.11,1.33Z"/>
        <path class="cls-3" d="M98.03,165.6c.68-.11.45.44.17.77-1.41,1.62-4.98,1.99-6.21-.04-.04-.06-.24-.48-.24-.51,0-.05.15-.18.21-.18.11.01.62.32.79.38,1.32.5,3.06.49,4.38-.01.26-.1.68-.38.9-.42Z"/>
      </g>
      <path class="cls-2" d="M171.25,158.39c-1.26-.17-2.49-1.33-3.1-2.39-.84.65-1.59,1.38-2.56,1.85-3.12,1.53-7.35.86-9.49-1.97-.23-.07-.18.18-.35.36-1.82,1.9-4.29,3.01-6.83,1.69-3.61-1.87-1.33-7.3-1.35-10.23,0-.62-.22-1.61-1.02-1.14-1.46.86-3.39,6.04-3.72,7.74-.17.87-.25,3.62-.65,4.13-.54.7-1.85.58-2.58.35-1.98-.62-1.59-2.24-1.45-3.92.36-4.35,1.76-15.15,4.89-18.15,1.4-1.35,4.05-1.61,4.78.48-1.17,2.7-2.64,5.29-3.35,8.18,1.48-1.6,3.2-3.35,5.61-2.93,4.12.71.86,7.74.94,10.28.07,1.99,1.38,2.24,2.56.77,1.9-2.38,1.22-5.82,3.41-8.52,3.36-4.13,10.92-3.04,9.03,3.31-.73,2.45-2.69,3.78-5.01,4.54-.39.13-.92.15-1.26.3-.41.18.5.86.72,1.01,1.51.95,3.61.67,4.92-.5,2.65-2.36,1.87-6.61,3.78-9.59,1.26-1.97,3.85-2.36,4.99-.13-1,2.64-2.47,6.34-2.15,9.19.22,1.98,1.8,1.61,2.6.1,1.44-2.73,1.17-5.56,1.45-8.46.11-1.13.76-1.59,1.86-1.72,4.12-.49,2.93,4.75,2.52,7.18-.9,5.33-3.73,14.99-10.75,14.17-2.37-.28-3.98-2.36-2.9-4.67.27-.59.97-1.36,1.67-.93.14.09.3.53.5.72,1.46,1.41,3.56.73,4.35-1.02.03-.36-.13-.06-.18-.06-.58,0-1.37.07-1.91,0ZM159.15,150.15c1.4.11,3.93-1.58,3.19-3.14-.2-.43-.67-.71-1.14-.61-1.37.3-1.84,2.58-2.06,3.74Z"/>
    </g>
  </g>
</svg>