<?xml version="1.0" encoding="UTF-8"?>
<svg id="Layer_2" data-name="Layer 2" xmlns="http://www.w3.org/2000/svg" viewBox="0 0 354 327">
  <defs>
    <style>
      .cls-1 {
        fill: #17102e;
      }

      .cls-2 {
        fill: #fff;
      }
    </style>
  </defs>
  <g id="Layer_1-2" data-name="Layer 1">
    <g>
      <rect class="cls-2" width="354" height="327"/>
      <g>
        <circle class="cls-1" cx="177" cy="163.5" r="67.21"/>
        <g>
          <path class="cls-2" d="M140.9,177.32c-1.91-1.2-3.43-2.85-4.54-4.95-1.11-2.1-1.67-4.49-1.67-7.15s.56-5.05,1.67-7.15c1.11-2.1,2.62-3.75,4.54-4.95,1.91-1.2,4.05-1.79,6.41-1.79,1.85,0,3.5.41,4.97,1.23,1.47.82,2.58,1.83,3.33,3.03h.26l-.26-3.69v-10.31h5.64v36.71h-5.38v-3.38h-.26c-.75,1.16-1.86,2.15-3.33,2.97-1.47.82-3.13,1.23-4.97,1.23-2.36,0-4.5-.6-6.41-1.79ZM151.95,172.86c1.18-.72,2.13-1.74,2.85-3.08s1.08-2.85,1.08-4.56-.36-3.22-1.08-4.54c-.72-1.32-1.67-2.33-2.85-3.05-1.18-.72-2.45-1.08-3.82-1.08s-2.65.36-3.85,1.08c-1.2.72-2.15,1.74-2.87,3.05-.72,1.32-1.08,2.83-1.08,4.54s.36,3.23,1.08,4.56,1.67,2.36,2.87,3.08c1.2.72,2.48,1.08,3.85,1.08s2.64-.36,3.82-1.08Z"/>
          <path class="cls-2" d="M167.62,152.14h5.38v3.44h.26c.75-1.2,1.86-2.2,3.33-3.03,1.47-.82,3.13-1.23,4.97-1.23,2.36,0,4.49.6,6.41,1.79,1.91,1.2,3.43,2.85,4.54,4.95s1.67,4.49,1.67,7.15-.56,5.05-1.67,7.15-2.62,3.75-4.54,4.95c-1.92,1.2-4.05,1.79-6.41,1.79-1.85,0-3.5-.41-4.97-1.23-1.47-.82-2.58-1.81-3.33-2.97h-.26l.26,3.64v10.82h-5.64v-37.23ZM184.59,172.86c1.2-.72,2.15-1.74,2.87-3.08s1.08-2.85,1.08-4.56-.36-3.22-1.08-4.54c-.72-1.32-1.67-2.33-2.87-3.05-1.2-.72-2.48-1.08-3.85-1.08s-2.64.36-3.82,1.08c-1.18.72-2.13,1.74-2.85,3.05-.72,1.32-1.08,2.83-1.08,4.54s.36,3.23,1.08,4.56,1.67,2.36,2.85,3.08c1.18.72,2.45,1.08,3.82,1.08s2.65-.36,3.85-1.08Z"/>
          <path class="cls-2" d="M201.2,177.14c-1.91-1.32-3.26-3-4.05-5.05l5.03-2.2c.62,1.37,1.48,2.41,2.59,3.13,1.11.72,2.38,1.08,3.82,1.08s2.58-.25,3.54-.74c.96-.5,1.44-1.24,1.44-2.23s-.41-1.71-1.23-2.26c-.82-.55-2.09-1.03-3.79-1.44l-3.13-.77c-2.09-.51-3.81-1.42-5.18-2.72-1.37-1.3-2.05-2.94-2.05-4.92,0-1.54.45-2.89,1.36-4.05.91-1.16,2.13-2.06,3.67-2.69,1.54-.63,3.21-.95,5.03-.95,2.43,0,4.56.49,6.41,1.46s3.18,2.38,4,4.23l-4.92,2.15c-.99-2.02-2.8-3.03-5.44-3.03-1.27,0-2.33.26-3.18.77-.86.51-1.28,1.18-1.28,2s.32,1.43.97,1.92c.65.5,1.61.91,2.87,1.26l3.85.97c2.56.65,4.5,1.63,5.82,2.95,1.32,1.32,1.97,2.93,1.97,4.85,0,1.64-.47,3.09-1.41,4.33-.94,1.25-2.23,2.21-3.87,2.9-1.64.68-3.45,1.03-5.44,1.03-3.01,0-5.47-.66-7.38-1.97Z"/>
        </g>
      </g>
    </g>
  </g>
</svg>