<?xml version="1.0" encoding="UTF-8"?>
<svg id="Layer_2" data-name="Layer 2" xmlns="http://www.w3.org/2000/svg" viewBox="0 0 354 327">
  <defs>
    <style>
      .cls-1 {
        fill: #010101;
      }

      .cls-2 {
        fill: #f9f9fa;
      }
    </style>
  </defs>
  <g id="Layer_1-2" data-name="Layer 1">
    <rect class="cls-2" width="354" height="327"/>
    <g>
      <path class="cls-1" d="M120.93,180.4c-1.59-1.73-2.39-4.1-2.39-7.11v-9.87h-3.57v-6.41h3.57v-7.56h9.24v7.56h5.77v6.41h-5.77v8.61c0,1.37.25,2.35.76,2.94.51.59,1.41.89,2.7.89,1.16,0,2.31-.31,3.46-.95v6.88c-.91.42-1.88.73-2.91.92-1.03.19-2.3.29-3.81.29-3.12,0-5.47-.87-7.06-2.6Z"/>
      <path class="cls-1" d="M136.97,157.02h9.24l4.04,14.44,4.04-14.44h7.45l4.04,14.44,4.04-14.44h9.24l-8.45,25.2h-8.3l-4.3-14.17-4.3,14.17h-8.3l-8.45-25.2Z"/>
      <path class="cls-1" d="M183.17,152.29c-.95-.91-1.42-2.07-1.42-3.47s.47-2.51,1.42-3.44c.95-.93,2.12-1.39,3.52-1.39s2.53.46,3.49,1.39c.96.93,1.44,2.07,1.44,3.44s-.48,2.51-1.44,3.44c-.96.93-2.13,1.39-3.49,1.39s-2.57-.45-3.52-1.36ZM182.07,157.02h9.24v25.2h-9.24v-25.2Z"/>
      <path class="cls-1" d="M197.76,152.29c-.95-.91-1.42-2.07-1.42-3.47s.47-2.51,1.42-3.44c.95-.93,2.12-1.39,3.52-1.39s2.53.46,3.49,1.39c.96.93,1.44,2.07,1.44,3.44s-.48,2.51-1.44,3.44c-.96.93-2.13,1.39-3.49,1.39s-2.57-.45-3.52-1.36ZM196.66,157.02h9.24v25.2h-9.24v-25.2Z"/>
      <path class="cls-1" d="M210.94,157.02h8.93v2.78c1.08-1.19,2.4-2.08,3.94-2.68,1.54-.59,3.15-.89,4.83-.89,3.53,0,6.15.92,7.85,2.75,1.7,1.84,2.55,4.33,2.55,7.48v15.75h-9.24v-14.54c0-2.84-1.3-4.25-3.88-4.25-1.19,0-2.28.27-3.26.81-.98.54-1.8,1.37-2.47,2.5v15.49h-9.24v-25.2Z"/>
    </g>
  </g>
</svg>