<?xml version="1.0" encoding="UTF-8"?>
<svg id="Layer_2" data-name="Layer 2" xmlns="http://www.w3.org/2000/svg" viewBox="0 0 354 327">
  <defs>
    <style>
      .cls-1 {
        fill: #f9f9fa;
      }

      .cls-2 {
        fill: #231f20;
      }

      .cls-3 {
        fill: none;
        stroke: #231f20;
        stroke-miterlimit: 10;
        stroke-width: 2.38px;
      }
    </style>
  </defs>
  <g id="Layer_1-2" data-name="Layer 1">
    <g>
      <rect class="cls-1" width="354" height="327"/>
      <g>
        <g>
          <rect class="cls-3" x="64.56" y="131" width="226.02" height="65.33" transform="translate(355.13 327.33) rotate(180)"/>
          <g>
            <rect x="63.42" y="130.67" width="4.02" height="65.66"/>
            <rect x="69.59" y="130.67" width="1.95" height="65.66"/>
            <rect x="73.53" y="130.67" width="6.02" height="65.66"/>
            <rect x="81.56" y="130.67" width="1.95" height="65.66"/>
          </g>
          <g>
            <rect x="286.56" y="130.67" width="4.02" height="65.66" transform="translate(577.14 327) rotate(180)"/>
            <rect x="282.46" y="130.67" width="1.95" height="65.66" transform="translate(566.86 327) rotate(180)"/>
            <rect x="274.46" y="130.67" width="6.02" height="65.66" transform="translate(554.93 327) rotate(180)"/>
            <rect x="270.5" y="130.67" width="1.95" height="65.66" transform="translate(542.94 327) rotate(180)"/>
          </g>
        </g>
        <g>
          <path class="cls-2" d="M106.91,174.26c-1.63-1.2-2.78-2.9-3.44-5.11l4.32-1.7c.34,1.29.92,2.33,1.74,3.1.82.77,1.84,1.16,3.06,1.16,1.02,0,1.89-.25,2.62-.77.73-.51,1.09-1.22,1.09-2.13s-.35-1.65-1.04-2.23c-.69-.58-1.92-1.2-3.69-1.85l-1.5-.54c-1.57-.54-2.9-1.38-4.02-2.5-1.11-1.12-1.67-2.54-1.67-4.24,0-1.27.33-2.43.99-3.47.66-1.04,1.59-1.87,2.79-2.47,1.2-.6,2.56-.9,4.08-.9,2.2,0,3.94.52,5.21,1.55,1.27,1.03,2.14,2.24,2.62,3.62l-4.05,1.7c-.25-.75-.69-1.38-1.31-1.89-.62-.51-1.42-.77-2.4-.77s-1.82.23-2.47.7c-.65.46-.97,1.07-.97,1.82s.31,1.34.92,1.85c.61.51,1.62,1,3.03,1.48l1.53.51c2.11.73,3.73,1.68,4.85,2.88,1.12,1.19,1.68,2.75,1.68,4.68,0,1.59-.41,2.93-1.23,4.03-.82,1.1-1.87,1.92-3.15,2.47-1.28.54-2.6.82-3.96.82-2.13,0-4.02-.6-5.65-1.8Z"/>
          <path class="cls-2" d="M124.64,151.15h4.46v6.16l-.27,3.03h.27c.5-.82,1.23-1.47,2.18-1.97.95-.5,1.98-.75,3.1-.75,2.11,0,3.73.63,4.85,1.89s1.68,3,1.68,5.22v10.79h-4.46v-10.24c0-1.11-.3-1.97-.9-2.59-.6-.61-1.4-.92-2.4-.92-1.18,0-2.15.48-2.91,1.43s-1.14,2.12-1.14,3.5v8.81h-4.46v-24.37Z"/>
          <path class="cls-2" d="M148.63,174.85c-1.41-.8-2.5-1.91-3.28-3.3s-1.17-2.97-1.17-4.71.39-3.29,1.17-4.7c.78-1.41,1.88-2.51,3.28-3.32,1.41-.8,3.01-1.21,4.8-1.21s3.36.4,4.76,1.21c1.41.81,2.5,1.91,3.28,3.32.78,1.41,1.17,2.97,1.17,4.7s-.39,3.32-1.17,4.71-1.88,2.5-3.28,3.3c-1.41.81-3,1.21-4.76,1.21s-3.39-.4-4.8-1.21ZM155.82,171.33c.73-.41,1.3-1,1.74-1.77.43-.77.65-1.68.65-2.72s-.22-1.92-.65-2.69c-.43-.77-1.01-1.36-1.74-1.77-.73-.41-1.52-.61-2.38-.61s-1.66.21-2.38.61c-.73.41-1.31,1-1.75,1.77s-.66,1.67-.66,2.69.22,1.92.66,2.71c.44.78,1.03,1.38,1.75,1.79.73.41,1.52.61,2.38.61s1.66-.2,2.38-.61Z"/>
          <path class="cls-2" d="M165.75,158.16h4.19v2.11h.27c.48-.75,1.17-1.38,2.08-1.89.91-.51,1.95-.77,3.13-.77,1.57,0,2.99.39,4.27,1.17,1.28.78,2.29,1.88,3.01,3.28.73,1.41,1.09,3,1.09,4.76s-.36,3.39-1.09,4.78-1.73,2.48-3.01,3.27c-1.28.78-2.71,1.17-4.27,1.17-1.18,0-2.23-.25-3.15-.75-.92-.5-1.6-1.12-2.06-1.87h-.27l.27,2.45v6.98h-4.46v-24.71ZM176.98,171.3c.73-.43,1.3-1.03,1.74-1.8.43-.77.65-1.66.65-2.65s-.22-1.88-.65-2.65c-.43-.77-1.01-1.37-1.74-1.79-.73-.42-1.51-.63-2.35-.63s-1.59.21-2.31.63c-.73.42-1.3,1.02-1.74,1.79-.43.77-.65,1.66-.65,2.65s.22,1.88.65,2.65c.43.77,1.01,1.37,1.74,1.8.73.43,1.5.65,2.31.65s1.62-.22,2.35-.65Z"/>
          <path class="cls-2" d="M187.77,151.15h8.2c1.36,0,2.62.31,3.78.92,1.16.61,2.08,1.47,2.77,2.57.69,1.1,1.04,2.34,1.04,3.73s-.35,2.63-1.04,3.73c-.69,1.1-1.62,1.96-2.77,2.57-1.16.61-2.42.92-3.78.92h-5.34v9.94h-2.86v-24.37ZM196.04,162.83c.91,0,1.71-.22,2.4-.65.69-.43,1.23-.99,1.62-1.67.39-.68.58-1.4.58-2.14s-.19-1.46-.58-2.14c-.39-.68-.92-1.24-1.62-1.67-.69-.43-1.49-.65-2.4-.65h-5.41v8.92h5.41Z"/>
          <path class="cls-2" d="M207.03,154.35c-.41-.41-.61-.9-.61-1.46s.2-1.05.61-1.45c.41-.4.9-.6,1.46-.6s1.05.2,1.46.6c.41.4.61.88.61,1.45s-.2,1.05-.6,1.46c-.4.41-.89.61-1.48.61s-1.06-.2-1.46-.61ZM207.07,158.16h2.86v17.36h-2.86v-17.36Z"/>
          <path class="cls-2" d="M214.48,151.15h2.89v24.37h-2.89v-24.37Z"/>
          <path class="cls-2" d="M224.9,174.84c-1.36-.82-2.42-1.93-3.18-3.33-.76-1.41-1.14-2.96-1.14-4.66s.38-3.26,1.14-4.66c.76-1.41,1.82-2.52,3.18-3.33,1.36-.82,2.89-1.23,4.59-1.23s3.23.41,4.59,1.23c1.36.82,2.42,1.93,3.18,3.33.76,1.41,1.14,2.96,1.14,4.66s-.38,3.26-1.14,4.66c-.76,1.41-1.82,2.52-3.18,3.33s-2.89,1.23-4.59,1.23-3.23-.41-4.59-1.23ZM232.47,172.64c.92-.53,1.66-1.3,2.21-2.3.56-1,.83-2.17.83-3.5s-.28-2.51-.83-3.51c-.56-1-1.29-1.76-2.21-2.3-.92-.53-1.91-.8-2.98-.8s-2.06.27-2.99.8c-.93.53-1.67,1.3-2.23,2.3-.56,1-.83,2.17-.83,3.51s.28,2.51.83,3.5c.56,1,1.3,1.76,2.23,2.3.93.53,1.93.8,2.99.8s2.06-.27,2.98-.8Z"/>
          <path class="cls-2" d="M245.98,175.45c-.6-.23-1.11-.53-1.51-.92-.45-.43-.79-.93-1.02-1.5-.23-.57-.34-1.26-.34-2.08v-10.17h-3.03v-2.62h3.03v-4.9h2.89v4.9h4.22v2.62h-4.22v9.46c0,.95.18,1.66.54,2.11.43.5,1.05.75,1.87.75.66,0,1.29-.19,1.91-.58v2.83c-.34.16-.69.27-1.04.34-.35.07-.8.1-1.34.1-.7,0-1.36-.11-1.96-.34Z"/>
        </g>
      </g>
    </g>
  </g>
</svg>