<?xml version="1.0" encoding="UTF-8"?>
<svg id="Layer_2" data-name="Layer 2" xmlns="http://www.w3.org/2000/svg" viewBox="0 0 354 327">
  <defs>
    <style>
      .cls-1 {
        fill: #010101;
      }

      .cls-2 {
        fill: #f9f9fa;
      }

      .cls-3 {
        stroke-width: 1.37px;
      }

      .cls-3, .cls-4 {
        fill: none;
        stroke: #010101;
        stroke-miterlimit: 10;
      }

      .cls-4 {
        stroke-width: 7.8px;
      }
    </style>
  </defs>
  <g id="Layer_1-2" data-name="Layer 1">
    <g>
      <rect class="cls-2" width="354" height="327"/>
      <g>
        <g>
          <path class="cls-1" d="M115.96,177.13v-22.17h-8.13v-4.27h21.76v4.27h-8.09v22.17h-5.54Z"/>
          <path class="cls-1" d="M138.46,177.54c-3.64,0-6.31-.88-8.01-2.65-1.7-1.77-2.55-4.26-2.55-7.49s.85-5.73,2.57-7.49c1.71-1.77,4.37-2.65,7.99-2.65s6.32.88,8.03,2.65c1.71,1.77,2.57,4.26,2.57,7.49s-.85,5.73-2.55,7.49c-1.7,1.77-4.38,2.65-8.05,2.65ZM138.46,172.82c1.78,0,3.05-.4,3.82-1.21.77-.81,1.15-2.21,1.15-4.21s-.38-3.4-1.15-4.21c-.77-.81-2.04-1.21-3.82-1.21s-3.01.41-3.78,1.21c-.77.81-1.15,2.21-1.15,4.21s.38,3.4,1.15,4.21c.77.81,2.03,1.21,3.78,1.21Z"/>
          <path class="cls-1" d="M152.91,177.13v-27.68h5.54v15.23l7.27-7.02h6.32l-7.84,7.97,8.29,11.5h-5.87l-5.91-8.58-2.26,2.18v6.41h-5.54Z"/>
          <path class="cls-1" d="M183.55,177.54c-3.37,0-6.04-.84-8.01-2.52-1.97-1.68-2.96-4.24-2.96-7.66,0-3.09.83-5.55,2.48-7.37,1.66-1.82,4.13-2.73,7.41-2.73,3.01,0,5.32.79,6.92,2.36,1.6,1.57,2.4,3.63,2.4,6.18v3.53h-14.08c.3,1.56,1.02,2.63,2.15,3.2s2.74.86,4.83.86c1.04,0,2.1-.09,3.18-.29,1.08-.19,2-.44,2.77-.74v3.94c-.9.41-1.96.72-3.16.92-1.2.2-2.52.31-3.94.31ZM177.72,165.92h9.24v-1.07c0-1.12-.33-2-.99-2.65-.66-.64-1.77-.97-3.33-.97-1.83,0-3.11.37-3.84,1.11-.73.74-1.09,1.93-1.09,3.57Z"/>
          <path class="cls-1" d="M195.66,177.13v-19.46h5.13l.21,1.85c.79-.6,1.8-1.13,3.02-1.58,1.22-.45,2.5-.68,3.84-.68,2.57,0,4.45.6,5.63,1.81,1.18,1.21,1.76,3.07,1.76,5.58v12.48h-5.54v-12.2c0-1.31-.27-2.24-.8-2.79-.53-.55-1.53-.82-2.98-.82-.85,0-1.7.19-2.57.57s-1.58.86-2.16,1.44v13.8h-5.54Z"/>
          <path class="cls-1" d="M231.8,177.54c-8.57,0-12.85-4.5-12.85-13.51,0-4.85,1.08-8.35,3.24-10.51,2.16-2.16,5.36-3.24,9.61-3.24s7.45,1.08,9.61,3.24c2.16,2.16,3.24,5.67,3.24,10.51,0,9.01-4.28,13.51-12.85,13.51ZM231.8,172.82c2.49,0,4.32-.72,5.48-2.15,1.16-1.44,1.75-3.65,1.75-6.63,0-3.31-.58-5.65-1.75-7-1.16-1.36-2.99-2.03-5.48-2.03s-4.32.68-5.48,2.03c-1.16,1.35-1.75,3.69-1.75,7,0,2.98.58,5.19,1.75,6.63,1.16,1.44,2.99,2.15,5.48,2.15Z"/>
          <path class="cls-1" d="M248.51,177.13v-26.44h12.4c2.08,0,3.79.4,5.11,1.19,1.33.79,2.32,1.88,2.98,3.24.66,1.37.99,2.93.99,4.68s-.38,3.35-1.13,4.72c-.75,1.37-1.82,2.43-3.2,3.18-1.38.75-3.02,1.13-4.91,1.13h-6.69v8.29h-5.54ZM254.05,164.45h5.54c1.59,0,2.79-.42,3.59-1.25.81-.84,1.21-1.96,1.21-3.39,0-1.53-.38-2.7-1.15-3.51-.77-.81-1.92-1.21-3.45-1.21h-5.75v9.36Z"/>
          <path class="cls-1" d="M281.27,177.54c-1.7,0-3.28-.12-4.74-.37-1.46-.25-2.73-.6-3.8-1.07v-4.89c1.2.49,2.5.89,3.9,1.19,1.4.3,2.76.45,4.11.45,1.92,0,3.33-.18,4.23-.53.9-.36,1.36-1.16,1.36-2.42,0-.79-.19-1.42-.57-1.89-.38-.47-1.05-.88-1.99-1.25-.95-.37-2.28-.79-4-1.25-2.76-.77-4.71-1.72-5.83-2.87s-1.68-2.74-1.68-4.76c0-2.44.89-4.31,2.67-5.62s4.37-1.97,7.76-1.97c1.59,0,3.06.11,4.43.33,1.37.22,2.48.48,3.33.78v4.89c-2.25-.85-4.59-1.27-7.02-1.27-1.72,0-3.08.18-4.06.55-.99.37-1.48,1.14-1.48,2.32,0,.68.18,1.23.53,1.64.36.41.97.78,1.83,1.11.86.33,2.07.7,3.63,1.11,2.16.57,3.83,1.26,5.01,2.05,1.18.79,1.99,1.7,2.44,2.71.45,1.01.68,2.15.68,3.41,0,2.3-.88,4.15-2.63,5.54-1.75,1.4-4.45,2.09-8.09,2.09Z"/>
        </g>
        <g>
          <circle class="cls-4" cx="80.68" cy="163.5" r="12.67"/>
          <circle class="cls-3" cx="80.68" cy="163.5" r="18.67"/>
        </g>
      </g>
    </g>
  </g>
</svg>