<?xml version="1.0" encoding="UTF-8"?>
<svg id="Layer_2" data-name="Layer 2" xmlns="http://www.w3.org/2000/svg" viewBox="0 0 354 327">
  <defs>
    <style>
      .cls-1 {
        fill: #f9f9fa;
      }

      .cls-2 {
        fill: #231f20;
      }

      .cls-3 {
        fill: none;
        stroke: #231f20;
        stroke-miterlimit: 10;
        stroke-width: 1.89px;
      }
    </style>
  </defs>
  <g id="Layer_1-2" data-name="Layer 1">
    <g>
      <rect class="cls-1" width="354" height="327"/>
      <g>
        <g>
          <rect class="cls-3" x="87.79" y="137.71" width="179.32" height="51.83" transform="translate(354.9 327.26) rotate(180)"/>
          <g>
            <rect x="86.89" y="137.45" width="3.19" height="52.09"/>
            <rect x="91.79" y="137.45" width="1.54" height="52.09"/>
            <rect x="94.9" y="137.45" width="4.77" height="52.09"/>
            <rect x="101.28" y="137.45" width="1.54" height="52.09"/>
          </g>
          <g>
            <rect x="263.93" y="137.45" width="3.19" height="52.09" transform="translate(531.04 327) rotate(180)"/>
            <rect x="260.67" y="137.45" width="1.54" height="52.09" transform="translate(522.88 327) rotate(180)"/>
            <rect x="254.32" y="137.45" width="4.77" height="52.09" transform="translate(513.42 327) rotate(180)"/>
            <rect x="251.18" y="137.45" width="1.54" height="52.09" transform="translate(503.9 327) rotate(180)"/>
          </g>
        </g>
        <g>
          <path class="cls-2" d="M121.39,172.04c-1.3-.95-2.21-2.3-2.73-4.05l3.43-1.35c.27,1.03.73,1.85,1.38,2.46.65.61,1.46.92,2.43.92.81,0,1.5-.2,2.08-.61.58-.4.86-.97.86-1.69s-.27-1.31-.82-1.77-1.53-.95-2.93-1.47l-1.19-.43c-1.24-.43-2.3-1.09-3.19-1.98s-1.32-2.01-1.32-3.36c0-1.01.26-1.93.78-2.75.52-.83,1.26-1.48,2.21-1.96s2.03-.71,3.24-.71c1.75,0,3.12.41,4.13,1.23s1.7,1.78,2.08,2.88l-3.21,1.35c-.2-.59-.54-1.09-1.04-1.5-.5-.41-1.13-.61-1.9-.61s-1.45.18-1.96.55-.77.85-.77,1.44.24,1.07.73,1.47c.49.41,1.29.8,2.4,1.17l1.21.41c1.67.58,2.96,1.34,3.85,2.28.89.95,1.34,2.18,1.34,3.71,0,1.26-.32,2.33-.97,3.2-.65.87-1.48,1.53-2.5,1.96-1.02.43-2.07.65-3.15.65-1.69,0-3.19-.48-4.48-1.43Z"/>
          <path class="cls-2" d="M135.46,153.7h3.54v4.89l-.22,2.4h.22c.4-.65.97-1.17,1.73-1.57.76-.4,1.57-.59,2.46-.59,1.67,0,2.96.5,3.85,1.5.89,1,1.34,2.38,1.34,4.14v8.56h-3.54v-8.13c0-.88-.24-1.57-.71-2.05-.48-.49-1.11-.73-1.9-.73-.94,0-1.71.38-2.31,1.13-.6.76-.91,1.68-.91,2.78v6.99h-3.54v-19.33Z"/>
          <path class="cls-2" d="M154.5,172.51c-1.12-.64-1.98-1.51-2.61-2.62s-.93-2.35-.93-3.74.31-2.61.93-3.73c.62-1.12,1.49-1.99,2.61-2.63s2.38-.96,3.81-.96,2.66.32,3.78.96,1.98,1.52,2.61,2.63c.62,1.12.93,2.36.93,3.73s-.31,2.63-.93,3.74-1.49,1.98-2.61,2.62-2.38.96-3.78.96-2.69-.32-3.81-.96ZM160.19,169.71c.58-.32,1.04-.79,1.38-1.4.34-.61.51-1.33.51-2.16s-.17-1.52-.51-2.13c-.34-.61-.8-1.08-1.38-1.4s-1.21-.49-1.89-.49-1.31.16-1.89.49-1.04.79-1.39,1.4c-.35.61-.53,1.32-.53,2.13s.18,1.53.53,2.15c.35.62.81,1.09,1.39,1.42.58.32,1.21.49,1.89.49s1.31-.16,1.89-.49Z"/>
          <path class="cls-2" d="M168.08,159.27h3.32v1.67h.22c.38-.59.93-1.09,1.65-1.5.72-.4,1.55-.61,2.48-.61,1.24,0,2.37.31,3.39.93,1.02.62,1.81,1.49,2.39,2.61.58,1.12.86,2.38.86,3.78s-.29,2.69-.86,3.79c-.58,1.11-1.37,1.97-2.39,2.59-1.02.62-2.15.93-3.39.93-.94,0-1.77-.2-2.5-.59-.73-.4-1.27-.89-1.63-1.49h-.22l.22,1.94v5.54h-3.54v-19.6ZM176.99,169.69c.58-.34,1.03-.82,1.38-1.43.34-.61.51-1.31.51-2.11s-.17-1.49-.51-2.11c-.34-.61-.8-1.08-1.38-1.42-.58-.33-1.2-.5-1.86-.5s-1.26.17-1.84.5-1.04.81-1.38,1.42c-.34.61-.51,1.31-.51,2.11s.17,1.49.51,2.11c.34.61.8,1.09,1.38,1.43s1.19.51,1.84.51,1.29-.17,1.86-.51Z"/>
          <path class="cls-2" d="M185.55,153.7h6.51c1.08,0,2.08.24,3,.73.92.49,1.65,1.17,2.2,2.04s.82,1.86.82,2.96-.28,2.08-.82,2.96-1.28,1.55-2.2,2.04c-.92.49-1.92.73-3,.73h-4.24v7.88h-2.27v-19.33ZM192.11,162.96c.72,0,1.35-.17,1.9-.51.55-.34.98-.78,1.28-1.32.31-.54.46-1.11.46-1.7s-.15-1.16-.46-1.7c-.31-.54-.73-.98-1.28-1.32-.55-.34-1.18-.51-1.9-.51h-4.29v7.07h4.29Z"/>
          <path class="cls-2" d="M200.83,156.24c-.32-.32-.49-.71-.49-1.16s.16-.83.49-1.15c.32-.31.71-.47,1.16-.47s.84.16,1.16.47c.32.32.49.7.49,1.15s-.16.84-.47,1.16c-.32.32-.71.49-1.17.49s-.84-.16-1.16-.49ZM200.85,159.27h2.27v13.77h-2.27v-13.77Z"/>
          <path class="cls-2" d="M206.74,153.7h2.29v19.33h-2.29v-19.33Z"/>
          <path class="cls-2" d="M215,172.5c-1.08-.65-1.92-1.53-2.52-2.65-.6-1.12-.91-2.35-.91-3.7s.3-2.58.91-3.7c.6-1.12,1.44-2,2.52-2.65,1.08-.65,2.29-.97,3.64-.97s2.57.32,3.65.97c1.08.65,1.92,1.53,2.52,2.65.6,1.12.9,2.35.9,3.7s-.3,2.58-.9,3.7c-.6,1.12-1.44,2-2.52,2.65s-2.29.97-3.65.97-2.56-.32-3.64-.97ZM221.01,170.75c.73-.42,1.31-1.03,1.75-1.82.44-.79.66-1.72.66-2.78s-.22-1.99-.66-2.78c-.44-.79-1.03-1.4-1.75-1.82-.73-.42-1.52-.63-2.36-.63s-1.64.21-2.38.63-1.33,1.03-1.77,1.82-.66,1.72-.66,2.78.22,1.99.66,2.78,1.03,1.4,1.77,1.82,1.53.63,2.38.63,1.63-.21,2.36-.63Z"/>
          <path class="cls-2" d="M231.73,172.98c-.48-.18-.88-.42-1.2-.73-.36-.34-.63-.74-.81-1.19s-.27-1-.27-1.65v-8.07h-2.4v-2.08h2.4v-3.89h2.29v3.89h3.35v2.08h-3.35v7.51c0,.76.14,1.31.43,1.67.34.4.84.59,1.49.59.52,0,1.03-.15,1.51-.46v2.24c-.27.13-.54.22-.82.27-.28.05-.63.08-1.07.08-.56,0-1.08-.09-1.55-.27Z"/>
        </g>
      </g>
    </g>
  </g>
</svg>