<?xml version="1.0" encoding="UTF-8"?>
<svg id="Layer_2" data-name="Layer 2" xmlns="http://www.w3.org/2000/svg" viewBox="0 0 354 327">
  <defs>
    <style>
      .cls-1 {
        fill: #010101;
        font-family: SourceCodePro-Black, 'Source Code Pro';
        font-size: 38.4px;
        font-weight: 800;
      }

      .cls-2 {
        fill: #f9f9fa;
      }
    </style>
  </defs>
  <g id="Layer_1-2" data-name="Layer 1">
    <rect class="cls-2" width="354" height="327"/>
    <g>
      <text class="cls-1" transform="translate(100.63 177.5)"><tspan x="0" y="0">tl;</tspan></text>
      <g id="AHjl1B">
        <g>
          <path d="M244.44,141.47c12.73,9.79,12.01,38.14-3.1,45.4-5.57,2.67-11.52,1.69-16.19-2.22-11.52-9.65-11.56-32.45-.51-42.49,5.77-5.24,13.64-5.43,19.8-.69ZM241.74,144.36c-.14-.11-.19-.35-.38-.47-8.66-5.94-16.93,1.48-19.72,9.7.49.23.96-.47,1.38-.7,11.35-6.28,18.8,10.6,11.27,18.97-3.26,3.62-8.69,3.97-12.46.9.61,2.72,2.4,5.64,4.33,7.65,8.65,9,18.22,2.52,21.87-7.23,3.43-9.16,1.85-22.74-6.3-28.82ZM228.96,154.3c-1.33-1.36-4.29.31-3.19,2.53s4.51.82,3.82-1.7c-.05-.17-.34-.19-.45-.35-.1-.15-.1-.41-.18-.48Z"/>
          <path d="M204.77,142.6c7.13,6.72,8.91,18.77,6.93,28.05-2.39,11.17-12.54,22.5-24.79,15.79-13.22-7.23-14.41-29.59-6.18-41.01,5.97-8.28,16.36-10.07,24.05-2.83ZM204.19,178.72c6.92-9.38,6.24-27.82-3.83-34.84-8.68-6.05-16.89,1.68-19.71,9.79.62.12.82-.47,1.26-.72,11.1-6.53,18.98,10.2,11.68,18.67-3.23,3.74-8.82,4.37-12.66,1.14-.24.23.05.73.14.99,3.78,10.87,15.47,15.33,23.11,4.97ZM188.15,154.49c-1.8-1.88-4.55.68-3.24,2.58,1.68,2.44,5.22-.51,3.24-2.58Z"/>
        </g>
      </g>
    </g>
  </g>
</svg>