<?xml version="1.0" encoding="UTF-8"?>
<svg id="Layer_2" data-name="Layer 2" xmlns="http://www.w3.org/2000/svg" viewBox="0 0 354 327">
  <defs>
    <style>
      .cls-1 {
        fill: #f9f9fa;
      }

      .cls-2 {
        fill: #17102e;
      }

      .cls-3 {
        fill: #fff;
      }
    </style>
  </defs>
  <g id="Layer_1-2" data-name="Layer 1">
    <g>
      <rect class="cls-1" width="354" height="327"/>
      <g>
        <rect class="cls-2" x="122.35" y="108.85" width="109.3" height="109.3"/>
        <g>
          <path class="cls-3" d="M143.51,172.17c-1.4-.88-2.51-2.08-3.32-3.62-.81-1.54-1.22-3.29-1.22-5.24s.41-3.7,1.22-5.24c.81-1.54,1.92-2.75,3.32-3.62,1.4-.88,2.97-1.31,4.69-1.31,1.35,0,2.57.3,3.64.9,1.08.6,1.89,1.34,2.44,2.22h.19l-.19-2.7v-7.55h4.13v26.88h-3.94v-2.48h-.19c-.55.85-1.36,1.58-2.44,2.18-1.08.6-2.29.9-3.64.9-1.73,0-3.29-.44-4.69-1.31ZM151.6,168.91c.86-.53,1.56-1.28,2.08-2.25.53-.98.79-2.09.79-3.34s-.26-2.36-.79-3.32c-.53-.96-1.22-1.71-2.08-2.23s-1.8-.79-2.8-.79-1.94.26-2.82.79c-.88.53-1.58,1.27-2.1,2.23s-.79,2.07-.79,3.32.26,2.37.79,3.34,1.23,1.73,2.1,2.25c.88.53,1.81.79,2.82.79s1.93-.26,2.8-.79Z"/>
          <path class="cls-3" d="M163.07,153.74h3.94v2.52h.19c.55-.88,1.36-1.61,2.44-2.22,1.08-.6,2.29-.9,3.64-.9,1.73,0,3.29.44,4.69,1.31,1.4.88,2.51,2.08,3.32,3.62.81,1.54,1.22,3.29,1.22,5.24s-.41,3.7-1.22,5.24c-.81,1.54-1.92,2.75-3.32,3.62-1.4.88-2.97,1.31-4.69,1.31-1.35,0-2.57-.3-3.64-.9-1.08-.6-1.89-1.33-2.44-2.18h-.19l.19,2.67v7.92h-4.13v-27.26ZM175.5,168.91c.88-.53,1.58-1.28,2.1-2.25.53-.98.79-2.09.79-3.34s-.26-2.36-.79-3.32c-.53-.96-1.23-1.71-2.1-2.23-.88-.53-1.82-.79-2.82-.79s-1.93.26-2.8.79c-.86.53-1.56,1.27-2.08,2.23-.53.96-.79,2.07-.79,3.32s.26,2.37.79,3.34c.53.98,1.22,1.73,2.08,2.25.86.53,1.8.79,2.8.79s1.94-.26,2.82-.79Z"/>
          <path class="cls-3" d="M186.09,153.74h3.94v2.52h.19c.58-.93,1.39-1.68,2.44-2.25,1.05-.58,2.18-.86,3.38-.86,1.38,0,2.58.32,3.6.96,1.03.64,1.76,1.48,2.22,2.53.65-1.05,1.52-1.9,2.61-2.53,1.09-.64,2.37-.96,3.85-.96,2.2,0,3.87.67,5.01,2.01,1.14,1.34,1.71,3.16,1.71,5.46v12.28h-4.13v-11.56c0-2.9-1.24-4.36-3.72-4.36-1.33,0-2.42.54-3.27,1.61-.85,1.08-1.28,2.4-1.28,3.98v10.33h-4.13v-11.56c0-2.9-1.28-4.36-3.83-4.36-1.3,0-2.37.54-3.21,1.61-.84,1.08-1.26,2.4-1.26,3.98v10.33h-4.13v-19.15Z"/>
        </g>
      </g>
    </g>
  </g>
</svg>