<?xml version="1.0" encoding="UTF-8"?>
<svg id="Layer_2" data-name="Layer 2" xmlns="http://www.w3.org/2000/svg" viewBox="0 0 354 327">
  <defs>
    <style>
      .cls-1 {
        fill: #164041;
        stroke: #36a053;
        stroke-linejoin: round;
        stroke-width: 1.87px;
      }

      .cls-2 {
        fill: #f9f9fa;
      }

      .cls-3 {
        fill: #36a053;
      }
    </style>
  </defs>
  <g id="Layer_1-2" data-name="Layer 1">
    <g>
      <rect class="cls-2" width="354" height="327"/>
      <g>
        <rect class="cls-1" x="54.36" y="127.42" width="245.29" height="72.65" rx="10.6" ry="10.6"/>
        <g>
          <path class="cls-3" d="M88.83,176.26v-25.04h12.91c2.05,0,3.74.41,5.07,1.22s2.33,1.92,2.97,3.32c.65,1.4.97,2.96.97,4.67s-.38,3.33-1.13,4.7c-.75,1.37-1.81,2.45-3.19,3.23-1.38.78-2.99,1.17-4.86,1.17h-5.44v6.73h-7.31ZM96.14,163.94h3.77c1.14,0,1.99-.32,2.55-.97.56-.65.84-1.49.84-2.53,0-1.11-.26-2-.78-2.64-.52-.65-1.32-.97-2.41-.97h-3.97v7.12Z"/>
          <path class="cls-3" d="M113.6,176.26v-25.04h13.03c2.05,0,3.73.38,5.04,1.13,1.31.75,2.29,1.8,2.94,3.13.65,1.34.97,2.88.97,4.65s-.42,3.17-1.26,4.45c-.84,1.28-1.96,2.26-3.36,2.94.28.23.53.51.74.84.21.32.44.77.7,1.34l2.88,6.57h-7.62l-2.64-6.03c-.21-.47-.46-.8-.76-.99s-.72-.29-1.26-.29h-2.06v7.31h-7.31ZM120.91,163.36h3.85c1.06,0,1.89-.28,2.47-.84.58-.56.88-1.35.88-2.39,0-2.2-1.04-3.31-3.11-3.31h-4.08v6.53Z"/>
          <path class="cls-3" d="M150.62,176.65c-4.15,0-7.32-1.01-9.51-3.03-2.19-2.02-3.29-5.29-3.29-9.8,0-3.11.49-5.62,1.48-7.52.99-1.91,2.43-3.29,4.34-4.16,1.91-.87,4.23-1.3,6.98-1.3s5.07.43,6.98,1.3c1.91.87,3.35,2.26,4.34,4.16s1.48,4.41,1.48,7.52c0,4.51-1.1,7.78-3.31,9.8-2.2,2.02-5.37,3.03-9.49,3.03ZM150.62,170.43c1.87,0,3.22-.52,4.06-1.57.84-1.05,1.26-2.73,1.26-5.04,0-2.46-.42-4.21-1.26-5.23-.84-1.02-2.2-1.54-4.06-1.54s-3.22.51-4.06,1.54c-.84,1.02-1.26,2.77-1.26,5.23,0,2.31.42,3.99,1.26,5.04.84,1.05,2.2,1.57,4.06,1.57Z"/>
          <path class="cls-3" d="M167.03,176.26v-25.04h11.2c2.57,0,4.76.42,6.57,1.26,1.81.84,3.2,2.19,4.16,4.04.96,1.85,1.44,4.31,1.44,7.37,0,4.3-1.05,7.44-3.15,9.41-2.1,1.97-5.11,2.96-9.02,2.96h-11.2ZM174.34,170.67h2.96c1.22,0,2.24-.17,3.07-.52.83-.35,1.46-1.01,1.91-1.98.44-.97.66-2.39.66-4.26s-.2-3.31-.6-4.34c-.4-1.02-1.02-1.74-1.85-2.14-.83-.4-1.89-.6-3.19-.6h-2.96v13.84Z"/>
          <path class="cls-3" d="M205.68,176.65c-2.33,0-4.39-.38-6.16-1.15s-3.17-1.89-4.18-3.38c-1.01-1.49-1.52-3.32-1.52-5.5v-15.4h7.31v14.62c0,3.06,1.52,4.59,4.55,4.59,1.45,0,2.57-.38,3.34-1.13.78-.75,1.17-1.91,1.17-3.46v-14.62h7.31v15.4c0,2.18-.5,4.01-1.5,5.5-1,1.49-2.39,2.62-4.16,3.38s-3.83,1.15-6.16,1.15Z"/>
          <path class="cls-3" d="M234.88,176.65c-4.54,0-8-1.11-10.38-3.34-2.39-2.23-3.58-5.38-3.58-9.45s1.17-7.42,3.5-9.66c2.33-2.24,5.81-3.36,10.42-3.36,1.55,0,2.94.12,4.16.35,1.22.23,2.38.56,3.5.97v6.38c-2.23-.99-4.61-1.48-7.15-1.48-2.36,0-4.11.54-5.25,1.61-1.14,1.08-1.71,2.81-1.71,5.19s.6,4.01,1.81,5.04c1.2,1.02,2.95,1.54,5.23,1.54,1.24,0,2.46-.12,3.63-.35,1.18-.23,2.35-.6,3.52-1.09v6.42c-1.12.39-2.29.69-3.52.91-1.23.22-2.62.33-4.18.33Z"/>
          <path class="cls-3" d="M246.19,176.26v-25.04h18.98v5.6h-11.67v4.08h10.23v5.68h-10.23v4.08h11.67v5.6h-18.98Z"/>
        </g>
      </g>
    </g>
  </g>
</svg>