<?xml version="1.0" encoding="UTF-8"?>
<svg id="Layer_2" data-name="Layer 2" xmlns="http://www.w3.org/2000/svg" viewBox="0 0 354 327">
  <defs>
    <style>
      .cls-1 {
        fill: #010101;
      }

      .cls-2 {
        fill: #f9f9fa;
      }
    </style>
  </defs>
  <g id="Layer_1-2" data-name="Layer 1">
    <g>
      <rect class="cls-2" width="354" height="327"/>
      <g>
        <g>
          <path class="cls-1" d="M90.1,182.16c-2.66,0-4.79-.46-6.38-1.36-1.59-.91-2.74-2.18-3.46-3.82-.71-1.64-1.07-3.55-1.07-5.72v-7.5h-5.84v-6.23l6.23-.29,1.07-7.31h6.92v7.31h9.64v6.53h-9.64v7.35c0,1.14.18,2.04.54,2.7.36.67.88,1.14,1.58,1.41.7.28,1.57.41,2.61.41.84,0,1.63-.07,2.36-.22.73-.15,1.42-.33,2.07-.56l1.46,6.04c-1.07.29-2.27.58-3.6.85-1.33.28-2.82.41-4.48.41Z"/>
          <path class="cls-1" d="M119.57,182.16c-3.25,0-5.69-.98-7.33-2.95-1.64-1.96-2.46-4.52-2.46-7.67v-17.34h-7.31v-6.53h15.68v24.16c0,1.4.4,2.35,1.19,2.85.8.5,1.61.76,2.46.76.52,0,1.06-.06,1.61-.17.55-.11,1.19-.28,1.9-.51l1.8,6.14c-1.3.39-2.48.7-3.56.92-1.07.23-2.4.34-3.99.34Z"/>
          <path class="cls-1" d="M144.36,167.06c-1.88,0-3.41-.62-4.58-1.85-1.17-1.23-1.75-2.73-1.75-4.48s.58-3.21,1.75-4.46,2.7-1.88,4.58-1.88,3.45.62,4.6,1.88c1.15,1.25,1.73,2.74,1.73,4.46s-.58,3.25-1.73,4.48c-1.15,1.23-2.69,1.85-4.6,1.85ZM140.37,192.19l-2-4.77c2.21-.71,3.84-1.64,4.9-2.78,1.05-1.14,1.55-2.39,1.49-3.75v-6.33l3.02,5.31c-.49.36-1.02.63-1.58.83-.57.2-1.18.29-1.83.29-1.01,0-1.96-.22-2.85-.66-.89-.44-1.62-1.06-2.17-1.88-.55-.81-.83-1.8-.83-2.97,0-1.62.59-2.95,1.78-3.97,1.19-1.02,2.62-1.53,4.31-1.53,2.21,0,3.87.8,4.99,2.41,1.12,1.61,1.68,3.86,1.68,6.75,0,3.18-.91,5.89-2.73,8.13-1.82,2.24-4.55,3.88-8.18,4.92Z"/>
        </g>
        <g id="AHjl1B">
          <g>
            <path d="M253.73,135.87c16.15,12.41,15.23,48.38-3.94,57.59-7.06,3.39-14.61,2.15-20.53-2.81-14.61-12.24-14.66-41.16-.65-53.9,7.32-6.65,17.3-6.89,25.12-.88ZM250.31,139.53c-.18-.14-.25-.44-.48-.6-10.99-7.54-21.47,1.88-25.01,12.3.62.29,1.22-.6,1.75-.89,14.4-7.97,23.85,13.44,14.29,24.06-4.14,4.59-11.03,5.03-15.8,1.15.78,3.45,3.04,7.16,5.5,9.71,10.97,11.41,23.12,3.19,27.75-9.17,4.35-11.62,2.34-28.84-8-36.56ZM234.09,152.14c-1.69-1.73-5.45.4-4.05,3.21s5.72,1.04,4.85-2.16c-.06-.21-.43-.24-.57-.44-.13-.19-.12-.51-.22-.61Z"/>
            <path d="M203.4,137.29c9.04,8.52,11.31,23.81,8.79,35.58-3.03,14.17-15.91,28.54-31.45,20.04-16.76-9.18-18.28-37.54-7.84-52.02,7.57-10.5,20.76-12.77,30.5-3.59ZM202.67,183.12c8.78-11.9,7.92-35.29-4.86-44.19-11.01-7.67-21.43,2.14-25,12.42.79.16,1.04-.59,1.6-.92,14.08-8.29,24.08,12.94,14.82,23.68-4.09,4.74-11.19,5.55-16.06,1.45-.3.3.06.93.18,1.26,4.79,13.79,19.62,19.45,29.32,6.31ZM182.32,152.39c-2.29-2.39-5.77.86-4.11,3.27,2.13,3.09,6.62-.65,4.11-3.27Z"/>
          </g>
        </g>
      </g>
    </g>
  </g>
</svg>