<?xml version="1.0" encoding="UTF-8"?>
<svg id="Layer_2" data-name="Layer 2" xmlns="http://www.w3.org/2000/svg" viewBox="0 0 354 327">
  <defs>
    <style>
      .cls-1 {
        fill: #f9f9fa;
      }

      .cls-2 {
        fill: #fff;
      }
    </style>
  </defs>
  <g id="Layer_1-2" data-name="Layer 1">
    <rect class="cls-1" width="354" height="327"/>
    <g>
      <g>
        <path d="M126.42,154.62c.94.56,1.67,1.32,2.2,2.29.53.97.79,2.06.79,3.26v.37c0,1.2-.26,2.3-.79,3.28-.53.98-1.26,1.75-2.2,2.3-.94.56-2.01.83-3.22.83h-4.66v6.27h-6.24v-19.43h10.9c1.2,0,2.28.28,3.22.83M118.54,162.4h2.57c.66,0,1.15-.17,1.48-.51.33-.34.49-.8.49-1.38v-.23c0-.6-.17-1.07-.49-1.4-.33-.33-.82-.49-1.48-.49h-2.57v4.01Z"/>
        <path d="M149.11,156.02c1.83,1.71,2.74,4.21,2.74,7.48s-.91,5.77-2.74,7.48c-1.83,1.71-4.41,2.57-7.77,2.57s-5.93-.85-7.75-2.56c-1.82-1.7-2.72-4.2-2.72-7.5s.91-5.79,2.72-7.5c1.82-1.7,4.4-2.56,7.75-2.56s5.94.86,7.77,2.57M138.29,159.32c-.7.81-1.04,1.9-1.04,3.28v1.81c0,1.37.35,2.47,1.04,3.28.7.81,1.71,1.21,3.05,1.21s2.36-.4,3.06-1.21c.71-.81,1.06-1.9,1.06-3.28v-1.81c0-1.37-.35-2.47-1.06-3.28-.71-.81-1.73-1.21-3.06-1.21s-2.35.4-3.05,1.21"/>
        <polygon points="153.78 153.79 160.02 153.79 160.02 168.24 169.99 168.24 169.99 173.21 153.78 173.21 153.78 153.79"/>
        <polygon points="180.38 173.21 174.13 173.21 174.13 165.67 166.43 153.79 173.6 153.79 177.33 160.25 177.44 160.25 181.17 153.79 187.97 153.79 180.38 165.67 180.38 173.21"/>
        <polygon points="202.28 158.76 202.28 173.21 196.04 173.21 196.04 158.76 189.66 158.76 189.66 153.79 208.64 153.79 208.64 158.76 202.28 158.76"/>
        <path d="M228.36,162.96c-.64.96-1.57,1.67-2.8,2.12l4.32,8.13h-7l-3.45-7.09h-2.32v7.09h-6.24v-19.43h11.89c1.39,0,2.58.27,3.57.8.99.54,1.73,1.26,2.23,2.17.5.91.75,1.91.75,2.98,0,1.19-.32,2.26-.96,3.22M222.46,158.73c-.34-.34-.75-.51-1.24-.51h-4.09v3.59h4.09c.49,0,.9-.17,1.24-.52.34-.35.51-.78.51-1.29s-.17-.93-.51-1.27"/>
        <path d="M246.68,173.21l-.82-2.74h-6.81l-.82,2.74h-6.38l7.09-19.43h7.26l7.09,19.43h-6.61ZM240.35,166.13h4.21l-2.03-6.92h-.11l-2.06,6.92Z"/>
        <path d="M270.41,155.61c1.67,1.44,2.51,3.5,2.51,6.17h-5.96c0-1.13-.3-2.02-.89-2.68-.59-.66-1.44-.99-2.53-.99-1.26,0-2.19.39-2.78,1.19-.59.79-.89,1.89-.89,3.3v1.81c0,1.39.3,2.49.89,3.29.59.8,1.5,1.2,2.72,1.2s2.12-.31,2.74-.93c.62-.62.93-1.5.93-2.63h5.76c0,2.65-.81,4.69-2.44,6.1-1.63,1.41-3.93,2.12-6.9,2.12-3.31,0-5.82-.85-7.53-2.54-1.7-1.69-2.56-4.2-2.56-7.51s.85-5.82,2.56-7.51c1.7-1.69,4.21-2.54,7.53-2.54,2.88,0,5.16.72,6.83,2.16"/>
        <rect x="100.96" y="162.4" width="14.77" height="4.33"/>
        <rect x="274.87" y="153.79" width="6.24" height="19.43"/>
        <polygon points="280.47 161.69 286.35 153.79 293.7 153.79 285.62 163.54 293.77 173.21 286.39 173.21 280.47 165.07 280.47 161.69"/>
        <rect x="285.63" y="161.46" width="16.11" height="4.33"/>
      </g>
      <g>
        <circle cx="70.22" cy="163.5" r="17.96"/>
        <g>
          <circle class="cls-2" cx="64.86" cy="172.9" r="2.43"/>
          <circle class="cls-2" cx="64.86" cy="166.1" r="2.43"/>
          <circle class="cls-2" cx="64.86" cy="159.29" r="2.43"/>
          <circle class="cls-2" cx="71.62" cy="166.1" r="2.43"/>
          <circle class="cls-2" cx="71.62" cy="159.29" r="2.43"/>
          <circle class="cls-2" cx="78.38" cy="159.29" r="2.43"/>
          <circle class="cls-2" cx="71.62" cy="152.78" r="2.43"/>
        </g>
      </g>
    </g>
  </g>
</svg>