<?xml version="1.0" encoding="UTF-8"?>
<svg id="Layer_2" data-name="Layer 2" xmlns="http://www.w3.org/2000/svg" viewBox="0 0 354 327">
  <defs>
    <style>
      .cls-1 {
        fill: #f9f9fa;
      }

      .cls-2 {
        fill: #17102e;
      }

      .cls-3 {
        fill: #fff;
      }
    </style>
  </defs>
  <g id="Layer_1-2" data-name="Layer 1">
    <g>
      <rect class="cls-1" width="354" height="327"/>
      <g>
        <rect class="cls-2" x="114.05" y="100.55" width="125.91" height="125.91"/>
        <g>
          <path class="cls-3" d="M138.42,173.49c-1.62-1.01-2.89-2.4-3.83-4.17-.94-1.77-1.41-3.78-1.41-6.03s.47-4.26,1.41-6.03c.94-1.77,2.21-3.16,3.83-4.17,1.61-1.01,3.42-1.51,5.41-1.51,1.56,0,2.96.35,4.2,1.04,1.24.69,2.18,1.54,2.81,2.55h.22l-.22-3.11v-8.69h4.76v30.97h-4.54v-2.85h-.22c-.63.98-1.57,1.82-2.81,2.51-1.24.69-2.64,1.04-4.2,1.04-1.99,0-3.79-.5-5.41-1.51ZM147.74,169.73c.99-.61,1.8-1.47,2.4-2.6.61-1.12.91-2.41.91-3.85s-.3-2.72-.91-3.83c-.61-1.11-1.41-1.97-2.4-2.57s-2.07-.91-3.22-.91-2.24.3-3.24.91c-1.01.61-1.82,1.46-2.42,2.57s-.91,2.39-.91,3.83.3,2.72.91,3.85,1.41,1.99,2.42,2.6c1.01.61,2.09.91,3.24.91s2.23-.3,3.22-.91Z"/>
          <path class="cls-3" d="M160.95,152.25h4.54v2.9h.22c.63-1.01,1.57-1.86,2.81-2.55,1.24-.69,2.64-1.04,4.2-1.04,1.99,0,3.79.5,5.41,1.51,1.61,1.01,2.89,2.4,3.83,4.17.94,1.77,1.41,3.78,1.41,6.03s-.47,4.26-1.41,6.03c-.94,1.77-2.21,3.17-3.83,4.17-1.62,1.01-3.42,1.51-5.41,1.51-1.56,0-2.96-.35-4.2-1.04-1.24-.69-2.18-1.53-2.81-2.51h-.22l.22,3.07v9.13h-4.76v-31.4ZM175.27,169.73c1.01-.61,1.82-1.47,2.42-2.6.61-1.12.91-2.41.91-3.85s-.3-2.72-.91-3.83c-.61-1.11-1.41-1.97-2.42-2.57-1.01-.61-2.09-.91-3.24-.91s-2.23.3-3.22.91c-.99.61-1.79,1.46-2.4,2.57-.61,1.11-.91,2.39-.91,3.83s.3,2.72.91,3.85c.61,1.12,1.41,1.99,2.4,2.6.99.61,2.07.91,3.22.91s2.23-.3,3.24-.91Z"/>
          <path class="cls-3" d="M187.47,152.25h4.54v2.9h.22c.66-1.07,1.6-1.93,2.81-2.6,1.21-.66,2.51-.99,3.89-.99,1.59,0,2.97.37,4.15,1.1,1.18.74,2.03,1.71,2.55,2.92.75-1.21,1.75-2.18,3.01-2.92,1.25-.74,2.73-1.1,4.43-1.1,2.54,0,4.46.77,5.77,2.31,1.31,1.54,1.97,3.64,1.97,6.29v14.14h-4.76v-13.32c0-3.34-1.43-5.02-4.28-5.02-1.53,0-2.78.62-3.76,1.86-.98,1.24-1.47,2.77-1.47,4.58v11.9h-4.76v-13.32c0-3.34-1.47-5.02-4.41-5.02-1.5,0-2.73.62-3.7,1.86-.97,1.24-1.45,2.77-1.45,4.58v11.9h-4.76v-22.06Z"/>
        </g>
      </g>
    </g>
  </g>
</svg>