<?xml version="1.0" encoding="UTF-8"?>
<svg id="Layer_2" data-name="Layer 2" xmlns="http://www.w3.org/2000/svg" viewBox="0 0 354 327">
  <defs>
    <style>
      .cls-1 {
        fill: #f9f9fa;
      }

      .cls-2 {
        fill: #212255;
      }

      .cls-3 {
        stroke: #f2712a;
      }

      .cls-3, .cls-4, .cls-5, .cls-6 {
        fill: none;
        stroke-miterlimit: 10;
        stroke-width: 2.59px;
      }

      .cls-4 {
        stroke: #0daed0;
      }

      .cls-5 {
        stroke: #f7bc1a;
      }

      .cls-6 {
        stroke: #12a64d;
      }
    </style>
  </defs>
  <g id="Layer_1-2" data-name="Layer 1">
    <rect class="cls-1" width="354" height="327"/>
    <g>
      <g>
        <path class="cls-2" d="M119.43,158.7c1.36,1.17,2.05,2.85,2.05,5.02h-4.85c0-.92-.24-1.65-.72-2.18-.48-.54-1.17-.8-2.06-.8-1.03,0-1.78.32-2.26.97-.48.64-.72,1.54-.72,2.69v1.47c0,1.13.24,2.03.72,2.68.48.65,1.22.98,2.22.98s1.72-.25,2.23-.76c.51-.51.76-1.22.76-2.14h4.69c0,2.16-.66,3.82-1.99,4.97-1.33,1.15-3.2,1.72-5.62,1.72-2.7,0-4.74-.69-6.13-2.07-1.39-1.38-2.08-3.42-2.08-6.12s.69-4.74,2.08-6.12c1.39-1.38,3.43-2.07,6.13-2.07,2.35,0,4.2.59,5.56,1.76Z"/>
        <path class="cls-2" d="M124.06,173.03v-15.82h5.08v15.82h-5.08Z"/>
        <path class="cls-2" d="M146.85,164.69c-.52.78-1.28,1.36-2.28,1.72l3.52,6.62h-5.7l-2.81-5.77h-1.89v5.77h-5.08v-15.82h9.68c1.13,0,2.1.22,2.91.66.8.44,1.41,1.03,1.82,1.77.41.74.61,1.55.61,2.43,0,.97-.26,1.84-.78,2.62ZM142.04,161.24c-.28-.28-.61-.41-1.01-.41h-3.33v2.92h3.33c.4,0,.74-.14,1.01-.43.28-.28.41-.63.41-1.05s-.14-.76-.41-1.03Z"/>
        <path class="cls-2" d="M163.72,158.7c1.36,1.17,2.05,2.85,2.05,5.02h-4.85c0-.92-.24-1.65-.72-2.18-.48-.54-1.17-.8-2.06-.8-1.03,0-1.78.32-2.26.97-.48.64-.72,1.54-.72,2.69v1.47c0,1.13.24,2.03.72,2.68.48.65,1.22.98,2.22.98s1.72-.25,2.23-.76c.51-.51.76-1.22.76-2.14h4.69c0,2.16-.66,3.82-1.99,4.97-1.33,1.15-3.2,1.72-5.62,1.72-2.7,0-4.74-.69-6.13-2.07-1.39-1.38-2.08-3.42-2.08-6.12s.69-4.74,2.08-6.12c1.39-1.38,3.43-2.07,6.13-2.07,2.35,0,4.2.59,5.56,1.76Z"/>
        <path class="cls-2" d="M182.28,171.61c-1.36,1.13-3.3,1.7-5.82,1.7s-4.46-.57-5.83-1.7c-1.37-1.13-2.06-2.78-2.06-4.94v-9.45h5.08v9.38c0,.89.24,1.6.71,2.13.47.53,1.17.79,2.07.79s1.6-.27,2.08-.8c.48-.54.72-1.24.72-2.12v-9.38h5.08v9.45c0,2.16-.68,3.81-2.05,4.94Z"/>
        <path class="cls-2" d="M187.57,157.21h5.08v11.77h8.12v4.05h-13.2v-15.82Z"/>
        <path class="cls-2" d="M214.04,173.03l-.67-2.23h-5.54l-.67,2.23h-5.2l5.77-15.82h5.91l5.77,15.82h-5.38ZM208.89,167.26h3.43l-1.66-5.63h-.09l-1.68,5.63Z"/>
        <path class="cls-2" d="M235.63,164.69c-.52.78-1.28,1.36-2.28,1.72l3.52,6.62h-5.7l-2.81-5.77h-1.89v5.77h-5.08v-15.82h9.68c1.13,0,2.1.22,2.91.66.8.44,1.41,1.03,1.82,1.77.41.74.61,1.55.61,2.43,0,.97-.26,1.84-.78,2.62ZM230.83,161.24c-.28-.28-.61-.41-1.01-.41h-3.33v2.92h3.33c.4,0,.74-.14,1.01-.43.28-.28.41-.63.41-1.05s-.14-.76-.41-1.03Z"/>
        <path class="cls-2" d="M258.04,173.03v-6h-5.59v6h-5.08v-15.82h5.08v5.77h5.59v-5.77h5.08v15.82h-5.08Z"/>
        <path class="cls-2" d="M280.07,171.61c-1.36,1.13-3.3,1.7-5.82,1.7s-4.46-.57-5.83-1.7c-1.37-1.13-2.06-2.78-2.06-4.94v-9.45h5.08v9.38c0,.89.24,1.6.71,2.13.47.53,1.16.79,2.07.79s1.6-.27,2.08-.8c.48-.54.72-1.24.72-2.12v-9.38h5.08v9.45c0,2.16-.68,3.81-2.05,4.94Z"/>
        <path class="cls-2" d="M298.09,157.71c.67.33,1.2.79,1.59,1.39.39.6.59,1.26.59,2,0,1.95-.88,3.17-2.64,3.68v.09c2.01.46,3.01,1.78,3.01,3.96,0,.83-.2,1.56-.61,2.2-.41.64-.96,1.13-1.67,1.48-.71.35-1.48.53-2.32.53h-10.67v-15.82h10.53c.8,0,1.53.16,2.2.49ZM290.44,163.38h3.49c.34,0,.62-.12.84-.36.22-.24.33-.53.33-.89v-.23c0-.34-.11-.62-.34-.86-.23-.24-.51-.36-.83-.36h-3.49v2.69ZM290.44,169.36h3.86c.34,0,.62-.12.84-.36.22-.24.33-.53.33-.89v-.23c0-.35-.11-.65-.33-.89-.22-.24-.5-.36-.84-.36h-3.86v2.71Z"/>
      </g>
      <g>
        <circle class="cls-4" cx="74.32" cy="163.5" r="20.95"/>
        <circle class="cls-6" cx="74.32" cy="163.5" r="15.96"/>
        <circle class="cls-3" cx="74.32" cy="163.5" r="10.82"/>
        <circle class="cls-5" cx="74.32" cy="163.5" r="6.1"/>
      </g>
    </g>
  </g>
</svg>