<?xml version="1.0" encoding="UTF-8"?>
<svg id="Layer_2" data-name="Layer 2" xmlns="http://www.w3.org/2000/svg" viewBox="0 0 354 327">
  <defs>
    <style>
      .cls-1 {
        fill: #f9f9fa;
      }
    </style>
  </defs>
  <g id="Layer_1-2" data-name="Layer 1">
    <g>
      <rect class="cls-1" width="354" height="327"/>
      <g>
        <path d="M130.2,119.43l.64-.29c15.97.68,32.73-.95,48.58.2,28.58,2.08,47.99,22.19,43.81,51.62-3.56,25.07-24.82,36.25-48.26,36.98-14.68.46-29.44-.37-44.13,0l-.64-.29v-88.23ZM136.53,201.79c12.3-.26,24.66.35,36.95,0,25.63-.71,45.51-13.15,44.02-41.25-1.32-24.83-21.75-34.66-44.02-35.27-12.3-.34-24.65.27-36.95,0v76.5Z"/>
        <path d="M144.16,193.42v-60.21l.64-.29c21.17.85,54.23-5.81,62.03,21,5.94,20.41-7.46,37.94-28.15,39.31l-34.52.19ZM150.49,186.9h24.84c16.64-.27,28.6-13.08,24.38-29.97-5.44-21.78-31.78-16.76-48.59-17.32l-.64.29v47Z"/>
        <path d="M182.13,152.28v5.12l-4.28,4.47c.68.44,1.44.59,2.17.99,4.07,2.23,4.57,7.61,1.65,11.01-3.53,4.12-11.52,3.78-16.24,2.28-.49-.16-2.45-.78-2.46-1.25l2.6-5.8c1.87,1.07,8.25,2.78,9.51.58.35-.62.24-1.65-.39-2.05-.15-.09-1.45-.48-1.57-.48h-4v-4.93c.92-1.12,2.4-2.14,3.26-3.26.14-.19.36-.23.28-.56h-8.56v-6.14h18.05Z"/>
      </g>
    </g>
  </g>
</svg>