<?xml version="1.0" encoding="UTF-8"?>
<svg id="Layer_2" data-name="Layer 2" xmlns="http://www.w3.org/2000/svg" viewBox="0 0 354 327">
  <defs>
    <style>
      .cls-1 {
        fill: #010101;
      }

      .cls-2 {
        fill: #f9f9fa;
      }

      .cls-3 {
        fill: #00a651;
      }

      .cls-4 {
        fill: #fff;
        stroke: #000;
        stroke-miterlimit: 10;
        stroke-width: 1.15px;
      }
    </style>
  </defs>
  <g id="Layer_1-2" data-name="Layer 1">
    <g>
      <rect class="cls-2" width="354" height="327"/>
      <g>
        <rect class="cls-3" x="84.15" y="137.87" width="194.74" height="60.47"/>
        <g>
          <rect class="cls-4" x="75.11" y="128.66" width="194.74" height="60.47"/>
          <g>
            <polygon class="cls-1" points="250.54 157.88 244.52 157.88 241.92 153.57 241.82 153.57 239.2 157.88 233.47 157.88 238.73 150.61 233.99 144.18 240.06 144.18 242.23 147.81 242.34 147.81 244.52 144.18 250.23 144.18 245.4 150.74 250.54 157.88"/>
            <polygon class="cls-1" points="96.2 151.81 96.2 173.24 114.08 173.24 114.08 167.76 103.08 167.76 103.08 151.81 96.2 151.81"/>
            <polygon class="cls-1" points="117.29 151.81 117.29 173.24 136.04 173.24 136.04 168.1 124.18 168.1 124.18 164.83 134.14 164.83 134.14 159.91 124.18 159.91 124.18 156.95 135.83 156.95 135.83 151.81 117.29 151.81"/>
            <path class="cls-1" d="M159.99,162.53c0,7.14-3.75,10.72-11.24,10.72h-9.28v-21.43h9.28c7.5,0,11.24,3.57,11.24,10.72M146.35,168.1h2.27c2.89,0,4.33-1.55,4.33-4.64v-1.87c0-3.09-1.44-4.64-4.33-4.64h-2.27v11.15Z"/>
            <path class="cls-1" d="M173.85,151.44c2.06,0,3.9.31,5.55.93"/>
            <path class="cls-1" d="M179.39,152.37c1.64.62,2.94,1.54,3.91,2.76.97,1.22,1.45,2.69,1.45,4.44h-6.57c0-.89-.39-1.61-1.18-2.17-.79-.55-1.74-.83-2.87-.83-1.62,0-2.85.43-3.68,1.29-.83.86-1.25,2.08-1.25,3.66v1.99c0,1.58.41,2.8,1.25,3.66.83.86,2.06,1.29,3.68,1.29,1.12,0,2.08-.27,2.87-.79.79-.53,1.18-1.21,1.18-2.04h-4.86v-4.36h11.43v11.96h-3.55l-.69-2.12c-1.95,1.66-4.51,2.49-7.66,2.49-3.55,0-6.22-.93-8.01-2.79-1.79-1.86-2.68-4.63-2.68-8.3s1.01-6.39,3.04-8.27c2.02-1.88,4.91-2.82,8.64-2.82"/>
            <polygon class="cls-1" points="188.39 151.81 206.92 151.81 206.92 156.95 195.27 156.95 195.27 159.91 205.24 159.91 205.24 164.83 195.27 164.83 195.27 168.1 207.14 168.1 207.14 173.24 188.39 173.24 188.39 151.81"/>
            <path class="cls-1" d="M229.84,161.94c-.71,1.06-1.73,1.84-3.08,2.34l4.77,8.97h-7.73l-3.8-7.82h-2.55v7.82h-6.88v-21.43h13.11c1.54,0,2.85.3,3.94.89,1.09.59,1.91,1.39,2.46,2.4.55,1.01.83,2.1.83,3.29,0,1.31-.35,2.49-1.06,3.55M223.33,157.26c-.37-.37-.83-.56-1.37-.56h-4.52v3.96h4.52c.54,0,1-.19,1.37-.58.37-.38.56-.86.56-1.42s-.19-1.03-.56-1.4"/>
          </g>
        </g>
      </g>
    </g>
  </g>
</svg>