<?xml version="1.0" encoding="UTF-8"?>
<svg id="Layer_2" data-name="Layer 2" xmlns="http://www.w3.org/2000/svg" viewBox="0 0 354 327">
  <defs>
    <style>
      .cls-1 {
        fill: #010101;
      }

      .cls-2 {
        fill: #f9f9fa;
      }

      .cls-3 {
        stroke-width: 1.24px;
      }

      .cls-3, .cls-4 {
        fill: none;
        stroke: #010101;
        stroke-miterlimit: 10;
      }

      .cls-4 {
        stroke-width: 7.04px;
      }
    </style>
  </defs>
  <g id="Layer_1-2" data-name="Layer 1">
    <rect class="cls-2" width="354" height="327"/>
    <g>
      <g>
        <path class="cls-1" d="M121.91,175.8v-20.01h-7.34v-3.85h19.64v3.85h-7.3v20.01h-5Z"/>
        <path class="cls-1" d="M142.22,176.17c-3.29,0-5.7-.8-7.23-2.39-1.53-1.59-2.3-3.85-2.3-6.76s.77-5.17,2.32-6.76c1.54-1.59,3.95-2.39,7.21-2.39s5.7.8,7.24,2.39c1.54,1.59,2.32,3.85,2.32,6.76s-.77,5.17-2.3,6.76c-1.53,1.59-3.95,2.39-7.26,2.39ZM142.22,171.91c1.61,0,2.75-.36,3.45-1.09.69-.73,1.04-1.99,1.04-3.8s-.35-3.07-1.04-3.8c-.69-.73-1.84-1.09-3.45-1.09s-2.72.37-3.41,1.09c-.69.73-1.04,2-1.04,3.8s.35,3.07,1.04,3.8c.69.73,1.83,1.09,3.41,1.09Z"/>
        <path class="cls-1" d="M155.26,175.8v-24.98h5v13.75l6.56-6.34h5.71l-7.08,7.19,7.49,10.38h-5.3l-5.34-7.75-2.04,1.96v5.78h-5Z"/>
        <path class="cls-1" d="M182.91,176.17c-3.04,0-5.45-.76-7.23-2.28-1.78-1.52-2.67-3.82-2.67-6.91,0-2.79.75-5.01,2.24-6.65,1.49-1.64,3.73-2.46,6.69-2.46,2.72,0,4.8.71,6.24,2.13,1.45,1.42,2.17,3.28,2.17,5.58v3.19h-12.71c.27,1.41.92,2.37,1.94,2.89s2.48.78,4.36.78c.94,0,1.9-.09,2.87-.26.98-.17,1.81-.39,2.5-.67v3.56c-.81.37-1.77.65-2.85.83-1.09.18-2.27.28-3.56.28ZM177.65,165.69h8.34v-.96c0-1.01-.3-1.81-.89-2.39-.59-.58-1.59-.87-3-.87-1.66,0-2.81.33-3.46,1-.66.67-.98,1.74-.98,3.22Z"/>
        <path class="cls-1" d="M193.84,175.8v-17.57h4.63l.19,1.67c.72-.54,1.62-1.02,2.72-1.43,1.1-.41,2.25-.61,3.46-.61,2.32,0,4.01.54,5.08,1.63,1.06,1.09,1.59,2.77,1.59,5.04v11.27h-5v-11.01c0-1.19-.24-2.03-.72-2.52-.48-.49-1.38-.74-2.69-.74-.77,0-1.54.17-2.32.52s-1.43.78-1.95,1.3v12.45h-5Z"/>
        <path class="cls-1" d="M226.45,176.17c-7.73,0-11.6-4.06-11.6-12.19,0-4.37.97-7.54,2.93-9.49,1.95-1.95,4.84-2.93,8.67-2.93s6.72.98,8.67,2.93c1.95,1.95,2.93,5.11,2.93,9.49,0,8.13-3.87,12.19-11.6,12.19ZM226.45,171.91c2.25,0,3.9-.65,4.95-1.94,1.05-1.3,1.58-3.29,1.58-5.99,0-2.99-.53-5.1-1.58-6.32-1.05-1.22-2.7-1.83-4.95-1.83s-3.9.61-4.95,1.83c-1.05,1.22-1.58,3.33-1.58,6.32,0,2.69.52,4.69,1.58,5.99,1.05,1.3,2.7,1.94,4.95,1.94Z"/>
        <path class="cls-1" d="M241.54,175.8v-23.87h11.19c1.88,0,3.42.36,4.61,1.07,1.2.72,2.09,1.69,2.69,2.93.59,1.24.89,2.64.89,4.22s-.34,3.03-1.02,4.26c-.68,1.24-1.64,2.19-2.89,2.87-1.25.68-2.72,1.02-4.43,1.02h-6.04v7.49h-5ZM246.54,164.35h5c1.43,0,2.51-.38,3.24-1.13.73-.75,1.09-1.77,1.09-3.06,0-1.38-.35-2.44-1.04-3.17-.69-.73-1.73-1.09-3.11-1.09h-5.19v8.45Z"/>
        <path class="cls-1" d="M271.11,176.17c-1.53,0-2.96-.11-4.28-.33-1.32-.22-2.46-.54-3.43-.96v-4.41c1.09.45,2.26.8,3.52,1.07,1.26.27,2.49.41,3.71.41,1.73,0,3-.16,3.82-.48s1.22-1.05,1.22-2.19c0-.72-.17-1.28-.52-1.7-.35-.42-.95-.8-1.8-1.13-.85-.33-2.06-.71-3.61-1.13-2.49-.69-4.25-1.56-5.26-2.59s-1.52-2.47-1.52-4.3c0-2.2.8-3.89,2.41-5.08s3.94-1.78,7.01-1.78c1.43,0,2.77.1,4,.3,1.24.2,2.24.43,3,.7v4.41c-2.03-.76-4.14-1.15-6.34-1.15-1.56,0-2.78.17-3.67.5-.89.33-1.33,1.03-1.33,2.09,0,.62.16,1.11.48,1.48.32.37.87.7,1.65,1,.78.3,1.87.63,3.28,1,1.95.52,3.46,1.14,4.52,1.85,1.06.72,1.8,1.53,2.21,2.45.41.91.61,1.94.61,3.08,0,2.08-.79,3.74-2.37,5-1.58,1.26-4.01,1.89-7.3,1.89Z"/>
      </g>
      <g>
        <circle class="cls-4" cx="90.06" cy="163.5" r="11.43"/>
        <circle class="cls-3" cx="90.06" cy="163.5" r="16.85"/>
      </g>
    </g>
  </g>
</svg>