<?xml version="1.0" encoding="UTF-8"?>
<svg id="Layer_2" data-name="Layer 2" xmlns="http://www.w3.org/2000/svg" viewBox="0 0 354 327">
  <defs>
    <style>
      .cls-1 {
        fill: #f9f9fa;
      }

      .cls-2 {
        fill: #231f20;
      }
    </style>
  </defs>
  <g id="Layer_1-2" data-name="Layer 1">
    <rect class="cls-1" width="354" height="327"/>
    <g>
      <path d="M132.89,186.64c-7.53,0-13.24-1.97-17.14-5.92-3.9-3.95-5.85-9.43-5.85-16.45,0-7.43,1.97-13.28,5.92-17.53,3.95-4.25,9.83-6.38,17.63-6.38,2.69,0,5.13.15,7.32.45,2.18.3,4.25.78,6.2,1.43v8.08c-1.95-.7-4.01-1.2-6.17-1.5-2.16-.3-4.38-.45-6.66-.45-5.34,0-9.13,1.31-11.36,3.94-2.23,2.62-3.35,6.61-3.35,11.95,0,9.62,4.53,14.43,13.59,14.43,1.58,0,3.12-.13,4.63-.38,1.51-.25,2.85-.59,4.01-1.01v-10.45h-10.45v-5.99h18.4v21.95c-1.53.98-3.67,1.86-6.41,2.65-2.74.79-6.18,1.19-10.31,1.19Z"/>
      <path class="cls-2" d="M176.58,186.64c-14.54,0-21.81-7.64-21.81-22.93,0-8.22,1.83-14.17,5.51-17.84,3.67-3.67,9.11-5.51,16.31-5.51s12.64,1.84,16.31,5.51c3.67,3.67,5.51,9.62,5.51,17.84,0,15.29-7.27,22.93-21.81,22.93ZM176.58,178.62c4.23,0,7.33-1.22,9.3-3.66,1.97-2.44,2.96-6.19,2.96-11.25,0-5.62-.99-9.58-2.96-11.88-1.98-2.3-5.08-3.45-9.3-3.45s-7.33,1.15-9.3,3.45c-1.98,2.3-2.96,6.26-2.96,11.88,0,5.06.99,8.82,2.96,11.25,1.97,2.44,5.08,3.66,9.3,3.66Z"/>
      <path class="cls-2" d="M204.95,185.94v-44.88h18.82c6.74,0,11.81,1.73,15.23,5.19,3.41,3.46,5.12,9.28,5.12,17.46,0,7.71-1.68,13.35-5.05,16.9-3.37,3.55-8.47,5.33-15.3,5.33h-18.82ZM214.35,178.69h8.08c2.65,0,4.88-.41,6.69-1.22,1.81-.81,3.17-2.3,4.08-4.46.91-2.16,1.36-5.26,1.36-9.3s-.42-7.13-1.25-9.27c-.84-2.14-2.14-3.6-3.9-4.39-1.77-.79-4.09-1.18-6.97-1.18h-8.08v29.83Z"/>
    </g>
  </g>
</svg>