<?xml version="1.0" encoding="UTF-8"?>
<svg id="Layer_2" data-name="Layer 2" xmlns="http://www.w3.org/2000/svg" viewBox="0 0 354 327">
  <defs>
    <style>
      .cls-1 {
        fill: #f9f9fa;
      }
    </style>
  </defs>
  <g id="Layer_1-2" data-name="Layer 1">
    <g>
      <rect class="cls-1" width="354" height="327"/>
      <g>
        <path d="M162.7,156.11c2.14-2.56,4.85-5.2,8.52-4.53,4.03.73,2.94,6.07,2.39,8.88-.38,1.92-2,6.96-.37,8.42,1.75,1.56,3.8-2.04,4.36-3.36.75-1.78.54-4.31,3.22-3.4,3.33,1.14,1.99,4.08.84,6.37-2.25,4.48-6.91,8.45-12.15,5.87-5.61-2.76-1.79-11.31-2.2-15.76-.29-3.12-2.76.4-3.36,1.38-2.73,4.44-3.86,9.49-4.26,14.65-1.34,2.12-5.21,1.22-6.24-.83-3.03,2.06-7.47,1.64-9.47-1.62-1.14.87-2.08,1.83-3.45,2.36-3.52,1.37-6.77-.16-8.72-3.17-.81.58-1.44,1.35-2.26,1.92-5.93,4.14-15.26,2.07-17.1-5.41-.95-3.87.42-9.66,3-12.72,4.69-5.56,15.28-4.71,13.36,4.16-.99,4.58-5.18,7.33-9.64,7.86-.32.31,1.36,1.63,1.67,1.78,2.2,1.08,5,.66,6.85-.9,3.28-2.76,2.85-7.19,4.66-10.74,2.59-5.09,8.49-7.57,13.39-3.9,1.35-1.2,2.65-1.98,4.5-1.4.92.29,1.73.99,1.78,2.02.03.76-.54,1.32-.83,1.98-1.46,3.33-2.91,7.12-2.54,10.82.21,2.14,1.5,3.28,3.25,1.49,2.65-2.71,2.76-7.49,3.42-11.03.79-4.27,2.98-14.89,8.2-15.71,1.53-.24,4.12.48,4.21,2.3-1.86,3.99-3.89,7.94-5.01,12.22ZM118.48,163c1.89-.2,4.75-1.56,4.87-3.71.07-1.22-.67-2.16-1.96-1.96-1.74.28-2.83,4.15-2.91,5.66ZM143.47,158.03c-5.62-3.71-8.3,7.14-6.22,10.33,1.46,2.23,3.61-.03,4.33-1.67,1.17-2.63,1.21-5.88,1.89-8.66Z"/>
        <path d="M223.41,156.79l2.14-5.36c2.35-5.06,7.21-13.6,13.85-12.7,2.45.33,3.99,2.58,3.59,5-.29,1.7-1.36.95-2.43,1.08-2.3.28-5.19,3.91-6.41,5.75-3.71,5.6-5.53,12.16-7.02,18.65-.59,2.59-.93,5.94-1.65,8.35-.67,2.25-4.53,3.24-5.92,1.23-.74-1.06-1.28-5.47-1.52-6.99-.82-5.15-1.43-10.36-1.94-15.55l-2.54,6.44c-2.98,6.88-9.03,17.21-17.8,16.51-3.16-.25-5.17-2.65-4.63-5.84.33-1.94,1.93-.53,3.16-.38,7.06.83,11.5-8.98,13.77-14.3,2.11-4.94,3.81-10.05,5.74-15.07.05-.21.02-.22-.19-.19-1.08.15-3.79,1.37-4.85,1.91-3.43,1.72-9.52,6.08-8.68,10.52.21,1.13,2.43,2.73.35,3.18-2.39.52-6-1.06-7.29-3.14-2.98-4.81,2.47-10.41,6.26-12.87,4.8-3.12,12.55-5.08,18.26-4.73,2.16.13,4.02.75,4.24,3.19l1.5,15.31Z"/>
        <path d="M100.36,171.91c-2.66,3.07-7.95,6.18-11.81,3.35-5.07-3.72-3.2-14.63-2.03-19.94.79-3.58,1.93-7.07,3.02-10.56-.32-.29-4.56,2.38-5.12,2.78-2.92,2.08-8.84,7.83-6.84,11.8.53,1.06,2.99,2.2.1,2.93-4.34,1.09-8.91-1.76-8.55-6.51.71-9.47,16.18-16.74,24.54-16.81,1.71-.01,4.3.53,3.96,2.74-.29,1.9-1.42,4.69-1.96,6.69-1.22,4.56-2.88,10.28-3.15,14.95-.13,2.22-.28,5.83,2.9,5.32,2.28-.36,4.95-5.27,5.87-7.23,1.7-3.61,2.37-6.83,3.47-10.58,1.09-3.75,3.45-11.38,8.77-9.03.75.33,2.08,1.23,1.95,2.18-.05.38-1.38,2.57-1.66,3.21-5.24,11.76-3.48,35.91-18.25,40.91-5.34,1.81-13.32-.15-12.5-7.08.09-.72.6-2.31,1.53-2.24.31.02,2.28,1.3,2.92,1.55,6.51,2.55,10.98-2.88,12.84-8.44Z"/>
        <path d="M264.65,156.11c2.14-2.56,4.85-5.2,8.52-4.53,5.58,1.01,1.59,10.38,1.35,13.78-.14,1.98.33,5.4,2.97,3.24,1.8-1.47,2.09-3.68,2.87-5.64.85-2.13,4.03-.54,4.47,1.14.31,1.18-.72,3.37-1.28,4.48-2.18,4.28-6.01,7.67-11.12,6.16-6.29-1.86-3.43-9.94-3.18-14.37.28-4.83-1.76-2.98-3.36-.38-2.73,4.44-3.86,9.49-4.26,14.65-1.33,2.11-5.21,1.22-6.24-.83-3.03,2.06-7.47,1.64-9.47-1.62-1.14.87-2.08,1.83-3.45,2.36-4.69,1.83-8.78-1.49-9.8-6-1.97-8.74,5.02-21.56,15.01-15.12.6-.36.96-.9,1.64-1.2,1.57-.71,4.28-.42,4.59,1.6.15,1-.42,1.39-.78,2.21-1.35,3.09-3.64,8.99-2.17,12.2.98,2.14,2.71.45,3.57-.8,2.06-3.02,2.07-6.63,2.72-10.12.79-4.25,3.05-15.21,8.42-15.76,1.37-.14,4.22.71,3.97,2.47-1.93,3.91-3.86,7.86-5,12.1ZM245.43,158.03c-5.62-3.71-8.3,7.14-6.22,10.33,1.46,2.23,3.61-.03,4.33-1.67,1.17-2.63,1.21-5.88,1.89-8.66Z"/>
      </g>
    </g>
  </g>
</svg>