<?xml version="1.0" encoding="UTF-8"?>
<svg id="Layer_2" data-name="Layer 2" xmlns="http://www.w3.org/2000/svg" viewBox="0 0 354 327">
  <defs>
    <style>
      .cls-1 {
        fill: #010101;
      }

      .cls-2 {
        fill: #f9f9fa;
      }
    </style>
  </defs>
  <g id="Layer_1-2" data-name="Layer 1">
    <g>
      <rect class="cls-2" width="354" height="327"/>
      <g>
        <path class="cls-1" d="M104.14,185.47c-2.07-2.25-3.1-5.33-3.1-9.24v-12.83h-4.64v-8.32h4.64v-9.82h12.01v9.82h7.5v8.32h-7.5v11.19c0,1.77.33,3.05.99,3.82.66.77,1.83,1.16,3.51,1.16,1.5,0,3-.41,4.5-1.23v8.94c-1.18.55-2.45.94-3.79,1.19-1.34.25-2.99.38-4.95.38-4.05,0-7.11-1.13-9.18-3.38Z"/>
        <path class="cls-1" d="M124.99,155.07h12.01l5.25,18.76,5.25-18.76h9.69l5.25,18.76,5.25-18.76h12.01l-10.98,32.75h-10.78l-5.59-18.42-5.59,18.42h-10.78l-10.98-32.75Z"/>
        <path class="cls-1" d="M185.02,148.94c-1.23-1.18-1.84-2.68-1.84-4.5s.62-3.26,1.84-4.47c1.23-1.2,2.75-1.81,4.57-1.81s3.28.6,4.54,1.81c1.25,1.21,1.88,2.69,1.88,4.47s-.63,3.26-1.88,4.47c-1.25,1.21-2.76,1.81-4.54,1.81s-3.34-.59-4.57-1.77ZM183.58,155.07h12.01v32.75h-12.01v-32.75Z"/>
        <path class="cls-1" d="M203.98,148.94c-1.23-1.18-1.84-2.68-1.84-4.5s.62-3.26,1.84-4.47c1.23-1.2,2.75-1.81,4.57-1.81s3.28.6,4.54,1.81c1.25,1.21,1.88,2.69,1.88,4.47s-.63,3.26-1.88,4.47c-1.25,1.21-2.76,1.81-4.54,1.81s-3.34-.59-4.57-1.77ZM202.55,155.07h12.01v32.75h-12.01v-32.75Z"/>
        <path class="cls-1" d="M221.1,155.07h11.6v3.62c1.41-1.55,3.11-2.71,5.12-3.48,2-.77,4.09-1.16,6.28-1.16,4.59,0,7.99,1.19,10.2,3.58,2.21,2.39,3.31,5.63,3.31,9.72v20.47h-12.01v-18.9c0-3.68-1.68-5.53-5.05-5.53-1.55,0-2.96.35-4.23,1.06-1.27.71-2.34,1.79-3.21,3.24v20.12h-12.01v-32.75Z"/>
      </g>
    </g>
  </g>
</svg>