<?xml version="1.0" encoding="UTF-8"?>
<svg id="Layer_2" data-name="Layer 2" xmlns="http://www.w3.org/2000/svg" viewBox="0 0 354 327">
  <defs>
    <style>
      .cls-1 {
        fill: #fff;
      }

      .cls-2 {
        fill: #0b193e;
      }
    </style>
  </defs>
  <g id="Layer_1-2" data-name="Layer 1">
    <g>
      <rect class="cls-2" width="354" height="327"/>
      <g>
        <path class="cls-1" d="M232.46,189.15v14.08c.14,3.37,2.14,5.24,5.55,5.37,3.9.15,7.89.17,12.14,0,3.25-.13,5.14-2.15,5.32-5.38v-14.07h-5.12v12.95c-.03,1.19-.76,1.68-1.7,1.77-3.16.23-6.34.23-9.5,0-.86-.08-1.54-.9-1.57-1.81v-12.91h-5.1Z"/>
        <path class="cls-1" d="M110.9,189.14c-2.65.15-5.47,1.55-5.86,4.83-.08.56-.09,1.13-.02,1.7.42,3.6,3.05,4.47,5.15,4.65,2.17.19,11.03.66,12.11.75,1.45.12,1.66.69,1.66,1.47,0,.87-.4,1.38-1.66,1.45-2.73.16-7.86.12-10.43.03-.91-.03-1.56-.27-1.59-1.36v-.94h-5.14s0,.45,0,.57c.02,4.04,1.4,5.91,5.25,6.21,3.72.29,9.33.24,13.49-.02,3.64-.23,4.98-2.75,5.11-5.65.01-.15,0-.44,0-.68-.12-3.43-2.11-5.1-4.84-5.36-1.77-.15-11.24-.59-12.57-.7-1.01-.09-1.43-.6-1.43-1.45,0-.68.43-1.22,1.34-1.29,3.03-.2,8.28-.16,10.35-.04,1.02.07,1.43.57,1.48,1.16v.9h5.13v-.8c-.1-3.86-1.96-5.33-5.5-5.47-3.85-.15-8.03-.19-12.02.04Z"/>
        <path class="cls-1" d="M156.61,208.66h17.01c3.99-.11,5.77-2.21,5.77-5.98,0-2.65-1.27-4.09-2.23-4.38.8-.35,1.72-1.53,1.72-3.81,0-3.42-2.17-5.22-5.4-5.35h-16.87v19.51h0ZM172.18,193.43h0c.94.07,1.75.46,1.75,1.51s-.73,1.63-1.84,1.69h-10.35v-3.2h10.45ZM172.18,200.68h0c.86.04,2.04.41,2.04,1.82s-.97,1.82-2.16,1.87h-10.33v-3.69h10.44Z"/>
        <path class="cls-1" d="M130.88,189.15v14.08c.14,3.37,2.14,5.24,5.56,5.37,3.9.15,7.89.17,12.14,0,3.24-.13,5.13-2.15,5.31-5.38v-14.07h-5.12v12.95c-.03,1.19-.76,1.68-1.71,1.77-3.16.23-6.34.23-9.5,0-.86-.08-1.55-.9-1.58-1.81v-12.91h-5.09Z"/>
        <path class="cls-1" d="M207.43,189.14v19.52h5.1v-6.99h10.59c1.21.02,1.83.82,1.9,1.88.13,1.99.08,5.1.08,5.1h5.18s-.02-2.81-.09-4.91c-.07-2.24-1.21-3.99-2.23-4.32.85-.47,2.03-1.69,2.03-4.39,0-4.02-2.11-5.73-5.48-5.89h-17.09ZM223.12,193.43h0c1.21.1,1.84.63,1.84,1.87s-.62,1.83-1.84,1.89h-10.59v-3.75h10.59Z"/>
        <path class="cls-1" d="M186.78,205.19h11.62l1.78,3.46h5.98l-10.63-19.51h-5.74l-10.65,19.51h5.82l1.81-3.46ZM196.26,201.06h-7.32l3.69-7.05,3.63,7.05Z"/>
        <path class="cls-1" d="M124.55,151.15c0-16.66,25.83-30.15,56.2-30.15s55.73,13.49,55.73,30.15-25.36,30.15-55.73,30.15-56.2-13.5-56.2-30.15h0ZM180.78,178.12h0c28.12,0,51.6-12.08,51.6-26.97s-23.73-26.96-51.6-26.96-52.12,11.96-52.12,26.96,23.05,26.97,52.12,26.97ZM195.32,167.46h0c.83.13,3.76.56,4.96.78,1.01.21,1.51.53,1.99,1.72.16.39.41,1.24.54,1.73.18.62.4,1.57.43,1.65.05.15.19.24.34.23.15,0,.29-.1.33-.24.06-.14.32-1.1.48-1.67.15-.58.34-1.15.55-1.7.29-.7.68-1.46,1.88-1.69,1.2-.21,3.97-.56,5.34-.73,1.04-.12,3.29-.41,3.55-.43s.39-.2.39-.38c0-.2-.12-.35-.4-.38-.42-.03-2.5-.25-3.53-.38-1.59-.19-4.31-.59-5.23-.79-.96-.22-1.42-.49-1.85-1.38-.25-.51-.45-1.05-.59-1.6-.1-.4-.49-1.7-.55-1.91-.06-.25-.2-.33-.36-.33s-.31.06-.38.34c-.09.27-.4,1.51-.54,1.93-.15.53-.34,1.05-.55,1.55-.33.7-.8,1.19-1.81,1.4-1.55.31-4.34.75-5,.85-2.52.35-3.11.42-4.83.23-1.32-.12-4.28-.59-6.25-.89-1.19-.18-2.41-.27-3.07-1.38-.39-.67-.6-1.31-.86-2.13-.23-.7-.57-1.95-.65-2.25-.08-.24-.18-.38-.39-.38s-.32.14-.4.4c-.09.27-.47,1.59-.65,2.21-.28.92-.53,1.66-.88,2.16-.67.98-1.3,1.1-2.92,1.37-1.7.29-3.82.52-5.47.69-1.45.17-2.36.27-2.89.33-.26.03-.42.12-.42.38s.16.36.42.39c.48.07,1.91.22,2.91.33,1.67.18,3.18.33,5.46.69,2.2.34,2.59.64,3.3,2.3.28.67.49,1.37.63,2.08.16.7.48,2.1.53,2.4.02.21.14.39.37.39s.35-.15.39-.4c.05-.33.39-1.81.55-2.38.16-.71.36-1.4.61-2.08.7-1.8,1.28-1.99,3.43-2.32,1.64-.26,4.71-.72,6.26-.9,1.73-.16,2.42-.16,4.84.2h0ZM211.57,156.1h0c.9.13,2.42.42,4.14.81,1.14.26,1.53.86,1.79,1.58s.45,1.53.67,2.39c.2.73.33,1.37.34,1.49.03.19.18.33.37.34.19,0,.35-.14.38-.32.04-.16.17-.8.35-1.53.2-.78.43-1.64.67-2.39.23-.69.63-1.26,1.63-1.51.96-.22,2.54-.48,3.83-.67,1.12-.17,3.05-.41,3.32-.46s.39-.21.39-.37-.09-.35-.39-.39c-.28-.05-2.13-.3-3.33-.47-1.47-.22-2.98-.46-3.81-.65-.62-.15-1.24-.57-1.51-1.17-.29-.59-.52-1.21-.7-1.84-.15-.55-.37-1.35-.43-1.57-.04-.18-.2-.31-.38-.3-.14,0-.29.07-.36.31-.08.28-.27.99-.45,1.56-.24.85-.42,1.32-.69,1.83-.3.57-.76,1.01-1.68,1.2-1.72.36-3.2.67-4.14.82-2.01.31-2.96.45-6,.02-1.36-.2-3.66-.55-5.47-.9-1-.2-1.89-.48-2.39-1.46-.32-.66-.53-1.43-.77-2.22-.15-.5-.45-1.51-.55-1.9-.07-.26-.18-.37-.39-.37s-.32.11-.39.37c-.1.33-.38,1.31-.54,1.89-.23.77-.47,1.58-.78,2.22-.49,1-1.3,1.24-2.35,1.45-1.5.31-3.89.57-6.02.79-.95.12-2.68.33-3.09.39-.23.02-.36.14-.36.37s.09.34.35.38c.37.06,2.41.29,3.08.36,1.14.13,3.88.5,6.03.81,1.47.22,2.27.79,2.7,2.52.23.94.43,1.63.58,2.35.13.59.34,1.53.4,1.72.08.27.21.38.38.38s.33-.08.4-.4c.04-.17.3-1.34.36-1.66.16-.68.36-1.53.59-2.4.44-1.56.9-2.08,2.76-2.51,1.46-.34,4.14-.68,5.44-.86,3.2-.46,4.03-.31,6.03-.03h0ZM224.51,143.99h0c-.16,0-2.47-.31-3.69-.48-1.41-.21-3.17-.41-4.75-.75-.64-.13-1.49-.47-1.93-1.37-.31-.63-.48-1.29-.86-2.53-.12-.35-.37-1.36-.44-1.61-.08-.28-.23-.34-.38-.34s-.3.05-.39.34c-.07.25-.33,1.13-.45,1.58-.39,1.32-.61,2.03-.86,2.57-.42.84-1.09,1.19-2.21,1.4-1.1.18-3.34.5-5.58.79-4.37.54-4.56.53-8.76.06-1.26-.13-4.59-.56-5.69-.7-4.02-.48-10.71-1.16-14.77-1.88-2.21-.4-4.18-.88-5.46-4.02-.85-2.11-1.36-4.01-1.84-5.72-.41-1.42-.86-3.36-1.01-4.01-.08-.31-.2-.42-.41-.42-.18,0-.31.1-.4.42-.17.64-.7,2.65-1.08,4-.49,1.66-.95,3.64-1.81,5.73-1.11,2.65-2.51,3.46-5.4,4.03-4.12.78-9.14,1.4-13.79,1.9-2.29.24-8.91.97-9.18,1-.21,0-.37.17-.37.37,0,.21.17.37.37.37h0c.28.04,7.07.75,9.21.98,4.82.52,9.29,1.08,13.56,1.82,4.14.72,5.11,2.84,5.9,5.47.62,2.08,1.45,5.72,1.74,7.15.29,1.25.78,3.86.84,4.09.06.28.19.4.39.4.18,0,.33-.1.41-.4.05-.25.55-2.93.81-4.11.31-1.39,1.16-5.2,1.75-7.17,1.06-3.47,2.08-4.68,5.76-5.32,3.7-.66,10.65-1.48,14.8-1.98,1.04-.13,3.44-.33,5.66-.6,4.23-.47,4.6-.43,8.78.08,2.2.26,3.7.47,5.47.77,1.42.24,1.96.65,2.39,1.88.35.98.62,2.06.8,2.8.16.65.37,1.7.43,1.92.02.18.17.32.35.32.19,0,.35-.14.39-.32.06-.27.26-1.27.42-1.92s.53-1.99.81-2.8c.4-1.13,1.04-1.62,2.1-1.84,1.17-.26,3.22-.53,4.69-.75,1.13-.16,3.5-.46,3.67-.48.2,0,.37-.16.37-.36,0,0,0-.02,0-.02,0-.2-.16-.36-.36-.37Z"/>
      </g>
    </g>
  </g>
</svg>
