<?xml version="1.0" encoding="UTF-8"?>
<svg id="Layer_2" data-name="Layer 2" xmlns="http://www.w3.org/2000/svg" viewBox="0 0 354 327">
  <defs>
    <style>
      .cls-1 {
        fill: #f9f9fa;
      }

      .cls-2 {
        fill: #122d50;
      }

      .cls-3 {
        fill: #134983;
      }

      .cls-4 {
        fill: #06a2c4;
      }
    </style>
  </defs>
  <g id="Layer_1-2" data-name="Layer 1">
    <rect class="cls-1" width="354" height="327"/>
    <g>
      <g>
        <path class="cls-4" d="M294.16,157.87c-1.88,1.88-3.83,3.95-6.82,3.95s-5.31-2.29-5.31-5.46c0-2.91,2.36-5.46,5.6-5.46,2.73,0,4.76,2.18,6.53,3.95,1.88-1.88,3.83-3.95,6.82-3.95,3.13,0,5.31,2.29,5.31,5.46,0,2.91-2.36,5.46-5.6,5.46-2.73,0-4.76-2.18-6.53-3.95ZM292.69,156.36c-1.44-1.33-2.95-3.24-5.09-3.24-1.84,0-3.24,1.51-3.24,3.24,0,1.88,1.33,3.24,3.13,3.24,2.1,0,3.8-1.81,5.2-3.24ZM303.97,156.36c0-1.88-1.33-3.24-3.13-3.24-2.1,0-3.8,1.81-5.2,3.24,1.44,1.33,2.95,3.24,5.09,3.24,1.84,0,3.24-1.51,3.24-3.24Z"/>
        <path class="cls-4" d="M292.65,156.36c-1.88-1.88-3.95-3.83-3.95-6.82s2.29-5.31,5.46-5.31c2.91,0,5.46,2.36,5.46,5.6,0,2.73-2.18,4.76-3.95,6.53,1.88,1.88,3.95,3.84,3.95,6.82,0,3.13-2.29,5.31-5.46,5.31-2.91,0-5.46-2.36-5.46-5.6,0-2.73,2.18-4.76,3.95-6.53ZM294.16,154.88c1.33-1.44,3.24-2.95,3.24-5.09,0-1.84-1.51-3.24-3.24-3.24-1.88,0-3.24,1.33-3.24,3.13,0,2.1,1.81,3.8,3.24,5.2ZM294.16,166.17c1.88,0,3.24-1.33,3.24-3.13,0-2.1-1.81-3.8-3.24-5.2-1.33,1.44-3.24,2.95-3.24,5.09,0,1.84,1.51,3.24,3.24,3.24Z"/>
      </g>
      <g>
        <g>
          <path class="cls-2" d="M250.15,155.42l-5.48,20.58h-2.62l-4.01-13.49c-.17-.54-.33-1.09-.48-1.66s-.27-1.07-.37-1.5c-.11-.43-.17-.73-.19-.91-.02.25-.12.78-.32,1.6-.19.82-.41,1.67-.66,2.55l-3.89,13.4h-2.62l-5.45-20.58h2.71l3.2,12.57c.23.88.43,1.74.59,2.57.16.83.29,1.6.39,2.33.1-.75.24-1.57.43-2.45.19-.88.41-1.75.66-2.59l3.63-12.42h2.68l3.78,12.51c.27.88.5,1.77.69,2.65.19.88.34,1.65.43,2.31.08-.71.21-1.48.39-2.32.18-.84.39-1.71.62-2.61l3.17-12.54h2.71Z"/>
          <path class="cls-2" d="M253.41,154.76c.38,0,.73.13,1.02.39.3.26.45.67.45,1.23s-.15.97-.45,1.23c-.3.26-.64.39-1.02.39-.42,0-.78-.13-1.07-.39-.29-.26-.43-.67-.43-1.23s.14-.97.43-1.23c.29-.26.64-.39,1.07-.39ZM254.64,160.55v15.45h-2.54v-15.45h2.54Z"/>
          <path class="cls-2" d="M261.19,154.09v11.44c0,.31-.01.71-.04,1.21-.03.5-.05.93-.07,1.3h.12c.12-.15.29-.37.52-.66.23-.29.47-.58.71-.88.24-.3.45-.54.62-.74l4.93-5.22h2.97l-6.25,6.6,6.69,8.85h-3.06l-5.36-7.21-1.76,1.53v5.68h-2.51v-21.9h2.51Z"/>
          <path class="cls-2" d="M274.5,154.76c.38,0,.73.13,1.02.39.3.26.45.67.45,1.23s-.15.97-.45,1.23c-.3.26-.64.39-1.02.39-.42,0-.78-.13-1.07-.39-.29-.26-.43-.67-.43-1.23s.14-.97.43-1.23c.29-.26.64-.39,1.07-.39ZM275.74,160.55v15.45h-2.54v-15.45h2.54Z"/>
        </g>
        <g>
          <path class="cls-3" d="M60.92,170.33c0,1.8-.65,3.24-1.95,4.31-1.3,1.07-3.14,1.61-5.53,1.61-2.14,0-4.05-.41-5.74-1.22v-4.01c.97.42,1.97.8,3,1.15,1.03.35,2.06.53,3.08.53s1.81-.2,2.26-.61c.44-.41.67-.92.67-1.55,0-.51-.18-.95-.53-1.31-.35-.36-.82-.7-1.41-1.01-.59-.31-1.26-.65-2.02-1.01-.47-.23-.99-.5-1.53-.81-.55-.31-1.08-.7-1.58-1.17-.5-.46-.91-1.03-1.24-1.69-.32-.66-.48-1.46-.48-2.39,0-1.82.62-3.23,1.85-4.25,1.23-1.01,2.91-1.52,5.03-1.52,1.06,0,2.06.12,3.01.37.95.25,1.95.6,3.01,1.05l-1.39,3.35c-.93-.38-1.76-.67-2.5-.88-.74-.21-1.5-.31-2.27-.31-.81,0-1.44.19-1.88.57-.44.38-.65.87-.65,1.48,0,.72.32,1.29.97,1.71.64.42,1.6.93,2.87,1.53,1.04.49,1.93,1,2.66,1.53.73.53,1.29,1.16,1.69,1.88.4.72.6,1.61.6,2.67Z"/>
          <path class="cls-3" d="M77.09,160.44v15.52h-3.24l-.57-1.99h-.23c-.49.8-1.17,1.37-2.03,1.73-.86.36-1.78.54-2.74.54-1.67,0-3-.45-4.01-1.35-1-.9-1.51-2.34-1.51-4.33v-10.12h4.23v9.07c0,1.12.2,1.96.6,2.51.4.56,1.03.84,1.9.84,1.29,0,2.17-.44,2.64-1.32.47-.88.71-2.15.71-3.79v-7.3h4.23Z"/>
          <path class="cls-3" d="M90.93,171.35c0,1.57-.55,2.78-1.66,3.62-1.11.84-2.76,1.26-4.96,1.26-1.08,0-2.01-.07-2.78-.21-.78-.14-1.55-.37-2.33-.7v-3.5c.83.38,1.73.69,2.7.94.97.25,1.82.37,2.56.37.81,0,1.4-.12,1.76-.37.36-.25.54-.57.54-.97,0-.27-.07-.5-.21-.71-.14-.21-.45-.44-.92-.71-.47-.27-1.21-.61-2.22-1.02-.99-.42-1.79-.83-2.4-1.24-.62-.41-1.08-.9-1.38-1.48-.3-.58-.45-1.3-.45-2.17,0-1.44.56-2.52,1.68-3.24,1.12-.72,2.6-1.08,4.46-1.08.97,0,1.89.09,2.76.28.87.19,1.77.5,2.7.94l-1.28,3.04c-.76-.32-1.48-.59-2.16-.81-.68-.22-1.37-.33-2.07-.33-1.25,0-1.88.34-1.88,1.02,0,.25.08.47.24.67.16.2.47.41.94.64.46.23,1.15.53,2.06.91.89.36,1.66.73,2.3,1.12.64.39,1.14.88,1.49,1.46.35.59.53,1.34.53,2.24Z"/>
          <path class="cls-3" d="M99.34,172.85c.47,0,.93-.04,1.36-.13.44-.09.87-.2,1.31-.36v3.15c-.45.21-1.02.38-1.69.51-.67.13-1.41.2-2.2.2-.93,0-1.76-.15-2.49-.45-.73-.3-1.31-.82-1.73-1.56-.43-.74-.64-1.78-.64-3.13v-7.47h-2.02v-1.79l2.33-1.42,1.22-3.27h2.7v3.3h4.35v3.18h-4.35v7.47c0,.59.17,1.03.51,1.32.34.29.79.44,1.34.44Z"/>
          <path class="cls-3" d="M110.08,160.12c2.08,0,3.68.45,4.79,1.35,1.11.9,1.66,2.28,1.66,4.13v10.34h-2.96l-.82-2.1h-.11c-.66.83-1.36,1.44-2.1,1.82-.74.38-1.75.57-3.04.57-1.38,0-2.53-.4-3.44-1.19-.91-.8-1.36-2.04-1.36-3.72s.58-2.86,1.73-3.64c1.16-.78,2.89-1.21,5.2-1.31l2.7-.09v-.68c0-.81-.21-1.41-.64-1.79-.43-.38-1.02-.57-1.78-.57s-1.5.11-2.22.33c-.72.22-1.44.49-2.16.81l-1.39-2.87c.81-.42,1.73-.75,2.76-1.01,1.02-.26,2.08-.38,3.18-.38ZM112.33,168.76l-1.65.06c-1.36.04-2.31.28-2.84.74-.53.45-.8,1.05-.8,1.79,0,.64.19,1.1.57,1.38.38.27.87.41,1.48.41.91,0,1.68-.27,2.3-.81.63-.54.94-1.3.94-2.29v-1.28Z"/>
          <path class="cls-3" d="M121.59,154.35c.63,0,1.17.15,1.62.44.45.29.68.84.68,1.63s-.23,1.32-.68,1.62c-.45.3-.99.45-1.62.45s-1.19-.15-1.63-.45c-.45-.3-.67-.84-.67-1.62s.22-1.34.67-1.63c.44-.29.99-.44,1.63-.44ZM123.69,160.44v15.52h-4.23v-15.52h4.23Z"/>
          <path class="cls-3" d="M135.51,160.15c1.67,0,3,.45,4.01,1.35,1,.9,1.51,2.34,1.51,4.33v10.12h-4.23v-9.07c0-1.12-.2-1.96-.6-2.51-.4-.56-1.03-.84-1.9-.84-1.29,0-2.17.44-2.64,1.32-.47.88-.71,2.15-.71,3.79v7.3h-4.23v-15.52h3.24l.57,1.99h.23c.49-.8,1.17-1.37,2.03-1.73.86-.36,1.78-.54,2.74-.54Z"/>
          <path class="cls-3" d="M149.75,160.12c2.08,0,3.68.45,4.79,1.35,1.11.9,1.66,2.28,1.66,4.13v10.34h-2.96l-.82-2.1h-.11c-.66.83-1.36,1.44-2.1,1.82-.74.38-1.75.57-3.04.57-1.38,0-2.53-.4-3.44-1.19-.91-.8-1.36-2.04-1.36-3.72s.58-2.86,1.73-3.64c1.16-.78,2.89-1.21,5.2-1.31l2.7-.09v-.68c0-.81-.21-1.41-.64-1.79-.43-.38-1.02-.57-1.78-.57s-1.5.11-2.22.33c-.72.22-1.44.49-2.16.81l-1.39-2.87c.81-.42,1.73-.75,2.76-1.01,1.02-.26,2.08-.38,3.18-.38ZM152,168.76l-1.65.06c-1.36.04-2.31.28-2.84.74-.53.45-.8,1.05-.8,1.79,0,.64.19,1.1.57,1.38.38.27.87.41,1.48.41.91,0,1.68-.27,2.3-.81.63-.54.94-1.3.94-2.29v-1.28Z"/>
          <path class="cls-3" d="M162.51,154.35v5.03c0,.59-.02,1.17-.06,1.73-.04.57-.08,1.01-.11,1.34h.17c.42-.64.98-1.19,1.68-1.63.7-.44,1.61-.67,2.73-.67,1.74,0,3.15.68,4.23,2.03,1.08,1.35,1.62,3.35,1.62,5.98s-.55,4.66-1.65,6.02c-1.1,1.36-2.54,2.05-4.32,2.05-1.14,0-2.03-.2-2.69-.61-.65-.41-1.19-.87-1.61-1.38h-.28l-.71,1.71h-3.24v-21.6h4.23ZM165.55,163.53c-1.1,0-1.88.35-2.33,1.04-.45.69-.69,1.73-.71,3.11v.45c0,1.5.22,2.65.67,3.45.45.81,1.25,1.21,2.43,1.21.87,0,1.56-.4,2.07-1.21.51-.8.77-1.97.77-3.48s-.26-2.66-.78-3.42c-.52-.77-1.23-1.15-2.12-1.15Z"/>
          <path class="cls-3" d="M176.97,154.35c.63,0,1.17.15,1.62.44.45.29.68.84.68,1.63s-.23,1.32-.68,1.62c-.45.3-.99.45-1.62.45s-1.19-.15-1.63-.45c-.45-.3-.67-.84-.67-1.62s.22-1.34.67-1.63c.44-.29.99-.44,1.63-.44ZM179.08,160.44v15.52h-4.23v-15.52h4.23Z"/>
          <path class="cls-3" d="M185.47,175.95h-4.23v-21.6h4.23v21.6Z"/>
          <path class="cls-3" d="M190.05,154.35c.62,0,1.17.15,1.62.44s.68.84.68,1.63-.23,1.32-.68,1.62-.99.45-1.62.45-1.19-.15-1.63-.45c-.45-.3-.67-.84-.67-1.62s.22-1.34.67-1.63c.44-.29.99-.44,1.63-.44ZM192.15,160.44v15.52h-4.23v-15.52h4.23Z"/>
          <path class="cls-3" d="M201.7,172.85c.47,0,.93-.04,1.36-.13.44-.09.87-.2,1.31-.36v3.15c-.45.21-1.02.38-1.69.51-.67.13-1.41.2-2.2.2-.93,0-1.76-.15-2.49-.45-.73-.3-1.31-.82-1.73-1.56-.43-.74-.64-1.78-.64-3.13v-7.47h-2.02v-1.79l2.33-1.42,1.22-3.27h2.7v3.3h4.35v3.18h-4.35v7.47c0,.59.17,1.03.51,1.32.34.29.79.44,1.34.44Z"/>
          <path class="cls-3" d="M205.56,160.44h4.63l2.93,8.72c.15.44.27.87.34,1.31.08.44.13.9.17,1.39h.09c.06-.49.13-.96.23-1.39.09-.44.22-.87.37-1.31l2.87-8.72h4.55l-6.56,17.51c-.61,1.61-1.47,2.82-2.59,3.62-1.12.81-2.42,1.21-3.89,1.21-.49,0-.91-.02-1.25-.07-.34-.05-.64-.1-.91-.16v-3.35c.19.04.44.08.74.11.3.04.62.06.94.06.89,0,1.59-.27,2.1-.81.51-.54.9-1.19,1.17-1.95l.26-.77-6.17-15.4Z"/>
        </g>
      </g>
    </g>
  </g>
</svg>